<svg   viewBox="0 0 100 30" fill="none" xmlns="http://www.w3.org/2000/svg">
<path d="M25.7297 13.8249C22.3142 8.34276 21.0601 3.00441 20.5519 0C18.5061 1.32473 16.4581 2.64945 14.4101 3.9765C14.9968 6.58883 16.1048 10.4725 18.2705 14.7158H11.8954C11.7013 14.4258 11.5093 14.1312 11.3196 13.8249C7.90407 8.34276 6.64998 3.00441 6.1418 0C4.0938 1.32473 2.04799 2.64945 0 3.9765C0.754639 7.34515 2.37515 12.8273 6.01748 18.4719C9.62491 24.0608 13.6686 27.4109 16.24 29.2205C17.9281 27.5061 19.6141 25.7916 21.3022 24.0748C20.1288 23.3231 18.5061 22.1631 16.7351 20.4834H21.8147C25.0361 24.8821 28.4058 27.6383 30.6501 29.2182C32.3382 27.5037 34.0242 25.7892 35.7123 24.0724C34.5389 23.3208 32.9162 22.1607 31.1452 20.4811H35.7123V14.7112H26.3055C26.1114 14.4212 25.9194 14.1265 25.7297 13.8203V13.8249Z" fill="white"/>
<path d="M35.8148 0.0233154H28.877V7.40327H35.8148V0.0233154Z" fill="white"/>
<path d="M54.8902 13.398L57.0298 4.92297H58.6045L56.1073 14.5696H53.7387L51.972 6.76274L50.2163 14.5696H47.8346L45.3242 4.92297H46.912L49.0647 13.398L50.9862 4.92297H53.0102L54.8924 13.398H54.8902Z" fill="white"/>
<path d="M60.48 14.5693H58.8398L62.0809 4.92273H64.3099L67.5378 14.5693H65.9108L65.3088 12.7713H61.0819L60.48 14.5693ZM61.4156 11.544H64.9904L63.1976 6.34026L61.4178 11.544H61.4156Z" fill="white"/>
<path d="M72.8789 14.9104C70.6128 14.9104 68.9727 13.4395 68.9727 11.4234H70.4339C70.4339 12.6623 71.459 13.5624 72.9182 13.5624C74.2115 13.5624 74.9683 12.8548 74.9683 11.8874C74.9683 10.7831 73.8146 10.6207 72.5343 10.4304C70.8309 10.1845 69.0883 9.85737 69.0883 7.63712C69.0883 5.85303 70.5103 4.58398 72.6237 4.58398C74.7371 4.58398 76.2878 5.97367 76.2878 7.89464H74.8658C74.8658 6.75087 73.9301 5.93191 72.6368 5.93191C71.3434 5.93191 70.6128 6.58615 70.6128 7.4724C70.6128 8.57672 71.6641 8.75304 72.9705 8.94328C74.6608 9.1892 76.4929 9.51633 76.4929 11.6809C76.4929 13.5601 75.097 14.9104 72.8811 14.9104H72.8789Z" fill="white"/>
<path d="M79.5933 14.5696H77.9531L81.1941 4.92297H83.4232L86.6511 14.5696H85.024L84.4221 12.7716H80.1952L79.5933 14.5696ZM80.5289 11.5443H84.1037L82.3108 6.3405L80.5311 11.5443H80.5289Z" fill="white"/>
<path d="M88.4846 14.5693V4.92273H92.5828C94.3385 4.92273 95.5795 6.01314 95.5795 7.51186C95.5795 8.45147 95.0168 9.27043 94.2338 9.50011C95.1695 9.74604 95.8347 10.6996 95.8347 11.8155C95.8347 13.4233 94.5021 14.567 92.6329 14.567H88.4824L88.4846 14.5693ZM90.0222 6.27066V8.87371H92.3538C93.3396 8.87371 94.031 8.34243 94.031 7.57914C94.031 6.81586 93.3396 6.27066 92.3538 6.27066H90.0222ZM92.3799 10.1544H90.0222V13.2191H92.3799C93.4944 13.2191 94.2883 12.5648 94.2883 11.6786C94.2883 10.7924 93.4944 10.152 92.3799 10.152V10.1544Z" fill="white"/>
<path d="M99.7193 4.92297V14.5696H98.1816V4.92297H99.7193Z" fill="white"/>
<path d="M54.8902 28.8284L57.0298 20.3534H58.6045L56.1073 30H53.7387L51.972 22.1932L50.2163 30H47.8346L45.3242 20.3534H46.912L49.0647 28.8284L50.9862 20.3534H53.0102L54.8924 28.8284H54.8902Z" fill="white"/>
<path d="M60.48 30H58.8398L62.0809 20.3534H64.3099L67.5378 30H65.9108L65.3088 28.202H61.0819L60.48 30ZM61.4156 26.9747H64.9904L63.1976 21.7709L61.4178 26.9747H61.4156Z" fill="white"/>
<path d="M69.3672 30V20.3534H70.9048V28.5825H75.184V30H69.3694H69.3672Z" fill="white"/>
<path d="M77.1719 30V20.3534H78.7095V28.5825H82.9865V30H77.1719Z" fill="white"/>
<path d="M86.4579 28.6103H91.3762V30H84.9727V20.3534H91.2497V21.7431H86.4601V24.3995H90.7371V25.6523H86.4601V28.608L86.4579 28.6103Z" fill="white"/>
<path d="M95.5675 21.757H92.6602V20.3534H99.9993V21.757H97.1051V30H95.5675V21.757Z" fill="white"/>
</svg>
