<svg width="26" height="26" viewBox="0 0 26 26" fill="none" xmlns="http://www.w3.org/2000/svg">
<path d="M8.69637 20.4121C8.69637 20.5169 8.57581 20.6008 8.42379 20.6008C8.25081 20.6165 8.13024 20.5327 8.13024 20.4121C8.13024 20.3073 8.25081 20.2234 8.40282 20.2234C8.56008 20.2077 8.69637 20.2915 8.69637 20.4121ZM7.06613 20.1762C7.02944 20.281 7.13427 20.4016 7.29153 20.4331C7.42782 20.4855 7.58508 20.4331 7.61653 20.3282C7.64798 20.2234 7.54839 20.1028 7.39113 20.0556C7.25484 20.019 7.10282 20.0714 7.06613 20.1762ZM9.38306 20.0871C9.23105 20.1238 9.12621 20.2234 9.14194 20.344C9.15766 20.4488 9.29395 20.5169 9.45121 20.4802C9.60323 20.4435 9.70806 20.344 9.69234 20.2391C9.67661 20.1395 9.53508 20.0714 9.38306 20.0871ZM12.8323 0C5.56169 0 0 5.51976 0 12.7903C0 18.6036 3.65887 23.5782 8.88508 25.329C9.55605 25.4496 9.79193 25.0355 9.79193 24.6948C9.79193 24.3698 9.77621 22.577 9.77621 21.4762C9.77621 21.4762 6.10685 22.2625 5.33629 19.9141C5.33629 19.9141 4.73871 18.3887 3.87903 17.9956C3.87903 17.9956 2.67863 17.1726 3.9629 17.1883C3.9629 17.1883 5.26815 17.2931 5.98629 18.5407C7.13427 20.5641 9.05806 19.9823 9.80766 19.6363C9.92823 18.7976 10.269 18.2157 10.6464 17.8698C7.71613 17.5448 4.75968 17.1202 4.75968 12.0774C4.75968 10.6359 5.15806 9.9125 5.99677 8.98992C5.86048 8.64919 5.41492 7.24435 6.13306 5.43064C7.22863 5.08992 9.75 6.84597 9.75 6.84597C10.7984 6.55242 11.9254 6.4004 13.0419 6.4004C14.1585 6.4004 15.2855 6.55242 16.3339 6.84597C16.3339 6.84597 18.8552 5.08468 19.9508 5.43064C20.669 7.2496 20.2234 8.64919 20.0871 8.98992C20.9258 9.91774 21.4395 10.6411 21.4395 12.0774C21.4395 17.1359 18.352 17.5395 15.4218 17.8698C15.904 18.2839 16.3129 19.0702 16.3129 20.302C16.3129 22.0685 16.2972 24.2544 16.2972 24.6843C16.2972 25.025 16.5383 25.4391 17.204 25.3185C22.446 23.5782 26 18.6036 26 12.7903C26 5.51976 20.1028 0 12.8323 0ZM5.09516 18.0794C5.02702 18.1319 5.04274 18.2524 5.13185 18.352C5.21573 18.4359 5.33629 18.4726 5.40444 18.4044C5.47258 18.352 5.45685 18.2315 5.36774 18.1319C5.28387 18.048 5.16331 18.0113 5.09516 18.0794ZM4.52903 17.6548C4.49234 17.723 4.54476 17.8069 4.6496 17.8593C4.73347 17.9117 4.83831 17.896 4.875 17.8226C4.91169 17.7544 4.85927 17.6706 4.75444 17.6181C4.6496 17.5867 4.56573 17.6024 4.52903 17.6548ZM6.22742 19.521C6.14355 19.5891 6.175 19.7464 6.29556 19.846C6.41613 19.9665 6.56814 19.9823 6.63629 19.8984C6.70444 19.8302 6.67298 19.673 6.56815 19.5734C6.45282 19.4528 6.29556 19.4371 6.22742 19.521ZM5.62984 18.7504C5.54597 18.8028 5.54597 18.9391 5.62984 19.0597C5.71371 19.1802 5.85524 19.2327 5.92339 19.1802C6.00726 19.1121 6.00726 18.9758 5.92339 18.8552C5.85 18.7347 5.71371 18.6823 5.62984 18.7504Z" fill="url(#paint0_linear_1497_5660)"/>
<defs>
<linearGradient id="paint0_linear_1497_5660" x1="13" y1="0" x2="13" y2="25.3504" gradientUnits="userSpaceOnUse">
<stop stop-color="white"/>
<stop offset="1" stop-color="#5E5E5E"/>
</linearGradient>
</defs>
</svg>
