<svg width="40" height="39" viewBox="0 0 40 39" fill="none" xmlns="http://www.w3.org/2000/svg">
<g clip-path="url(#clip0_1791_46)">
<path d="M36.0199 0H3.97926C3.16248 0.000978383 2.37943 0.325879 1.80187 0.903434C1.22432 1.48099 0.899416 2.26404 0.898438 3.08083V35.1214C0.899416 35.9382 1.22432 36.7213 1.80187 37.2988C2.37943 37.8764 3.16248 38.2013 3.97926 38.2022H36.0199C36.8366 38.2013 37.6197 37.8764 38.1973 37.2988C38.7748 36.7213 39.0997 35.9382 39.1007 35.1214V3.08083C39.0997 2.26404 38.7748 1.48099 38.1973 0.903434C37.6197 0.325879 36.8366 0.000978383 36.0199 0ZM37.8684 35.1214C37.8684 35.6117 37.6736 36.0818 37.3269 36.4285C36.9803 36.7752 36.5101 36.9699 36.0199 36.9699H3.97926C3.48901 36.9699 3.01884 36.7752 2.67218 36.4285C2.32552 36.0818 2.13077 35.6117 2.13077 35.1214V3.08083C2.13077 2.59057 2.32552 2.1204 2.67218 1.77374C3.01884 1.42708 3.48901 1.23233 3.97926 1.23233H36.0199C36.5101 1.23233 36.9803 1.42708 37.3269 1.77374C37.6736 2.1204 37.8684 2.59057 37.8684 3.08083V35.1214Z" fill="url(#paint0_linear_1791_46)"/>
<path d="M23.0805 6.01704V5.54567C23.0805 4.72858 22.756 3.94496 22.1782 3.3672C21.6004 2.78943 20.8168 2.46484 19.9997 2.46484C19.1826 2.46484 18.399 2.78943 17.8212 3.3672C17.2435 3.94496 16.9189 4.72858 16.9189 5.54567V6.01704C16.3422 6.47758 15.8765 7.06206 15.5565 7.72713C15.2365 8.39219 15.0703 9.12078 15.0703 9.85883C15.0703 10.5969 15.2365 11.3255 15.5565 11.9905C15.8765 12.6556 16.3422 13.2401 16.9189 13.7006V32.6569C16.9189 33.474 17.2435 34.2576 17.8212 34.8354C18.399 35.4132 19.1826 35.7378 19.9997 35.7378C20.8168 35.7378 21.6004 35.4132 22.1782 34.8354C22.756 34.2576 23.0805 33.474 23.0805 32.6569V13.7006C23.6573 13.2401 24.1229 12.6556 24.4429 11.9905C24.7629 11.3255 24.9291 10.5969 24.9291 9.85883C24.9291 9.12078 24.7629 8.39219 24.4429 7.72713C24.1229 7.06206 23.6573 6.47758 23.0805 6.01704ZM19.9997 3.69717C20.4431 3.69902 20.871 3.86014 21.2054 4.15117C21.5399 4.44219 21.7586 4.84373 21.8217 5.28257C20.6527 4.81179 19.3468 4.81179 18.1777 5.28257C18.2408 4.84373 18.4595 4.44219 18.794 4.15117C19.1284 3.86014 19.5564 3.69902 19.9997 3.69717ZM21.8482 32.6569C21.8482 33.1472 21.6535 33.6174 21.3068 33.964C20.9601 34.3107 20.49 34.5054 19.9997 34.5054C19.5095 34.5054 19.0393 34.3107 18.6926 33.964C18.346 33.6174 18.1512 33.1472 18.1512 32.6569V14.4252C19.336 14.9091 20.6634 14.9091 21.8482 14.4252V32.6569ZM19.9997 13.5558C19.2685 13.5558 18.5537 13.339 17.9458 12.9328C17.3378 12.5265 16.864 11.9491 16.5841 11.2736C16.3043 10.5981 16.2311 9.85473 16.3738 9.13758C16.5164 8.42043 16.8685 7.76169 17.3855 7.24466C17.9026 6.72763 18.5613 6.37552 19.2785 6.23287C19.9956 6.09022 20.739 6.16344 21.4145 6.44325C22.09 6.72307 22.6674 7.19692 23.0736 7.80489C23.4799 8.41286 23.6967 9.12763 23.6967 9.85883C23.6957 10.839 23.3059 11.7788 22.6128 12.4719C21.9197 13.165 20.9799 13.5548 19.9997 13.5558Z" fill="url(#paint1_linear_1791_46)"/>
<path d="M34.7876 15.2595V5.54567C34.7876 4.72858 34.463 3.94496 33.8852 3.3672C33.3074 2.78943 32.5238 2.46484 31.7067 2.46484C30.8897 2.46484 30.106 2.78943 29.5283 3.3672C28.9505 3.94496 28.6259 4.72858 28.6259 5.54567V15.2595C28.0492 15.7201 27.5835 16.3045 27.2635 16.9696C26.9435 17.6347 26.7773 18.3633 26.7773 19.1013C26.7773 19.8394 26.9435 20.5679 27.2635 21.233C27.5835 21.8981 28.0492 22.4826 28.6259 22.9431V32.6569C28.6259 33.474 28.9505 34.2576 29.5283 34.8354C30.106 35.4132 30.8897 35.7378 31.7067 35.7378C32.5238 35.7378 33.3074 35.4132 33.8852 34.8354C34.463 34.2576 34.7876 33.474 34.7876 32.6569V22.9431C35.3643 22.4826 35.8299 21.8981 36.15 21.233C36.47 20.5679 36.6361 19.8394 36.6361 19.1013C36.6361 18.3633 36.47 17.6347 36.15 16.9696C35.8299 16.3045 35.3643 15.7201 34.7876 15.2595ZM29.8582 5.54567C29.8582 5.05542 30.053 4.58525 30.3997 4.23859C30.7463 3.89193 31.2165 3.69717 31.7067 3.69717C32.197 3.69717 32.6672 3.89193 33.0138 4.23859C33.3605 4.58525 33.5552 5.05542 33.5552 5.54567V14.5349C32.3704 14.051 31.0431 14.051 29.8582 14.5349V5.54567ZM33.5552 32.6569C33.5552 33.1472 33.3605 33.6174 33.0138 33.964C32.6672 34.3107 32.197 34.5054 31.7067 34.5054C31.2165 34.5054 30.7463 34.3107 30.3997 33.964C30.053 33.6174 29.8582 33.1472 29.8582 32.6569V23.6677C31.0431 24.1516 32.3704 24.1516 33.5552 23.6677V32.6569ZM31.7067 22.7983C30.9755 22.7983 30.2608 22.5815 29.6528 22.1752C29.0448 21.769 28.571 21.1916 28.2912 20.5161C28.0113 19.8405 27.9381 19.0972 28.0808 18.3801C28.2234 17.6629 28.5755 17.0042 29.0926 16.4871C29.6096 15.9701 30.2683 15.618 30.9855 15.4754C31.7026 15.3327 32.446 15.4059 33.1215 15.6857C33.7971 15.9655 34.3744 16.4394 34.7807 17.0474C35.1869 17.6553 35.4037 18.3701 35.4037 19.1013C35.4028 20.0815 35.0129 21.0213 34.3198 21.7144C33.6267 22.4075 32.6869 22.7973 31.7067 22.7983Z" fill="url(#paint2_linear_1791_46)"/>
<path d="M11.3735 24.502V5.54567C11.3735 4.72858 11.0489 3.94496 10.4712 3.3672C9.89339 2.78943 9.10977 2.46484 8.29268 2.46484C7.47559 2.46484 6.69197 2.78943 6.11421 3.3672C5.53644 3.94496 5.21185 4.72858 5.21185 5.54567V24.502C4.63512 24.9625 4.16948 25.547 3.84946 26.2121C3.52945 26.8772 3.36328 27.6057 3.36328 28.3438C3.36328 29.0818 3.52945 29.8104 3.84946 30.4755C4.16948 31.1406 4.63512 31.725 5.21185 32.1856V32.6569C5.21185 33.474 5.53644 34.2576 6.11421 34.8354C6.69197 35.4132 7.47559 35.7378 8.29268 35.7378C9.10977 35.7378 9.89339 35.4132 10.4712 34.8354C11.0489 34.2576 11.3735 33.474 11.3735 32.6569V32.1856C11.9502 31.725 12.4159 31.1406 12.7359 30.4755C13.0559 29.8104 13.2221 29.0818 13.2221 28.3438C13.2221 27.6057 13.0559 26.8772 12.7359 26.2121C12.4159 25.547 11.9502 24.9625 11.3735 24.502ZM6.44418 5.54567C6.44418 5.05542 6.63894 4.58525 6.9856 4.23859C7.33226 3.89193 7.80243 3.69717 8.29268 3.69717C8.78293 3.69717 9.2531 3.89193 9.59976 4.23859C9.94642 4.58525 10.1412 5.05542 10.1412 5.54567V23.7774C8.95634 23.2935 7.62902 23.2935 6.44418 23.7774V5.54567ZM8.29268 34.5054C7.84933 34.5036 7.42142 34.3425 7.08696 34.0514C6.7525 33.7604 6.53378 33.3589 6.47068 32.92C7.63973 33.3908 8.94563 33.3908 10.1147 32.92C10.0516 33.3589 9.83286 33.7604 9.4984 34.0514C9.16394 34.3425 8.73603 34.5036 8.29268 34.5054ZM8.29268 32.0408C7.56148 32.0408 6.84671 31.824 6.23874 31.4177C5.63077 31.0115 5.15692 30.4341 4.8771 29.7586C4.59729 29.083 4.52408 28.3397 4.66672 27.6225C4.80937 26.9054 5.16148 26.2467 5.67851 25.7296C6.19555 25.2126 6.85429 24.8605 7.57143 24.7178C8.28858 24.5752 9.03192 24.6484 9.70746 24.9282C10.383 25.208 10.9604 25.6819 11.3666 26.2898C11.7728 26.8978 11.9897 27.6126 11.9897 28.3438C11.9887 29.324 11.5989 30.2638 10.9058 30.9569C10.2127 31.65 9.27288 32.0398 8.29268 32.0408Z" fill="url(#paint3_linear_1791_46)"/>
</g>
<defs>
<linearGradient id="paint0_linear_1791_46" x1="19.9996" y1="0" x2="19.9996" y2="38.2022" gradientUnits="userSpaceOnUse">
<stop stop-color="white"/>
<stop offset="1" stop-color="#5E5E5E"/>
</linearGradient>
<linearGradient id="paint1_linear_1791_46" x1="19.9997" y1="2.46484" x2="19.9997" y2="35.7378" gradientUnits="userSpaceOnUse">
<stop stop-color="white"/>
<stop offset="1" stop-color="#5E5E5E"/>
</linearGradient>
<linearGradient id="paint2_linear_1791_46" x1="31.7067" y1="2.46484" x2="31.7067" y2="35.7378" gradientUnits="userSpaceOnUse">
<stop stop-color="white"/>
<stop offset="1" stop-color="#5E5E5E"/>
</linearGradient>
<linearGradient id="paint3_linear_1791_46" x1="8.29268" y1="2.46484" x2="8.29268" y2="35.7378" gradientUnits="userSpaceOnUse">
<stop stop-color="white"/>
<stop offset="1" stop-color="#5E5E5E"/>
</linearGradient>
<clipPath id="clip0_1791_46">
<rect width="38.2022" height="38.2022" fill="white" transform="translate(0.898438)"/>
</clipPath>
</defs>
</svg>
