<svg width="44" height="39" viewBox="0 0 44 39" fill="none" xmlns="http://www.w3.org/2000/svg">
<g clip-path="url(#clip0_1791_24)">
<path d="M36.99 6.41872C32.9872 2.66237 27.6638 0.591797 22.002 0.591797C16.3402 0.593427 11.0168 2.66233 7.014 6.41872C3.01115 10.1751 0.804688 15.1706 0.804688 20.4837C0.804688 24.377 2.00172 28.1462 4.26898 31.3859C6.47891 34.5455 9.57987 37.0366 13.23 38.5984C13.4698 38.7028 13.7599 38.6147 13.892 38.3979L18.8261 30.3848C18.9026 30.2593 18.9148 30.1093 18.8609 29.9756C18.807 29.8419 18.6924 29.7343 18.5499 29.687C14.3959 28.3142 11.6076 24.6168 11.6076 20.4836C11.6076 15.1049 16.2687 10.7258 22.0021 10.7258C27.7356 10.7258 32.3967 15.0999 32.3967 20.4802C32.3967 24.6115 29.6082 28.3143 25.4544 29.6837C25.3084 29.7293 25.1973 29.8386 25.1434 29.9722C25.0895 30.1059 25.1034 30.2608 25.1781 30.3815L30.1052 38.3979C30.199 38.5528 30.3728 38.6392 30.5552 38.6392C30.6264 38.6392 30.7011 38.6262 30.7689 38.5968C34.4243 37.0366 37.5252 34.5438 39.7299 31.3842C41.9989 28.1447 43.1942 24.372 43.1942 20.4821C43.1942 15.1719 40.9928 10.1751 36.99 6.41872ZM30.7634 37.5258L26.3731 30.3929C30.6209 28.7446 33.4319 24.8335 33.4319 20.4804C33.4319 14.5654 28.3033 9.75434 22.002 9.75434C15.6988 9.75434 10.572 14.5671 10.572 20.4804C10.572 24.8302 13.3831 28.7397 17.6255 30.3929L13.2404 37.5258C6.30127 34.3792 1.84165 27.7389 1.84165 20.4804C1.84165 10.0494 10.8881 1.56511 22.0018 1.56511C33.1155 1.56511 42.1619 10.0494 42.1619 20.4837C42.1619 27.7389 37.7025 34.3792 30.7634 37.5258ZM26.757 23.0138L29.4569 20.4802L26.757 17.9467C26.5572 17.7592 26.5572 17.4494 26.757 17.2619C26.9568 17.0744 27.2869 17.0744 27.4867 17.2619L30.5514 20.1379C30.6487 20.2292 30.7025 20.3514 30.7025 20.4802C30.7025 20.609 30.6487 20.7313 30.5514 20.8226L27.4867 23.6986C27.3842 23.7947 27.2556 23.8404 27.1219 23.8404C26.9881 23.8404 26.8595 23.7947 26.757 23.6986C26.5555 23.5094 26.5555 23.2062 26.757 23.0138ZM17.2467 17.9465L14.5469 20.4801L17.2467 23.0136C17.4465 23.2011 17.4465 23.5109 17.2467 23.6984C17.1442 23.7946 17.0156 23.8402 16.8819 23.8402C16.7481 23.8402 16.6195 23.7946 16.517 23.6984L13.4524 20.8224C13.3551 20.7311 13.3012 20.6089 13.3012 20.4801C13.3012 20.3513 13.3551 20.229 13.4524 20.1377L16.517 17.2618C16.7168 17.0743 17.0469 17.0743 17.2467 17.2618C17.4482 17.4492 17.4482 17.759 17.2467 17.9465ZM24.4567 17.4623L20.44 23.9904C20.3427 24.1453 20.169 24.2317 19.99 24.2317C19.9014 24.2317 19.8128 24.2105 19.7329 24.1648C19.4845 24.0311 19.3993 23.7344 19.5418 23.5013L23.5585 16.9732C23.701 16.74 24.0172 16.6602 24.2656 16.7938C24.5141 16.9324 24.5992 17.2291 24.4567 17.4623Z" fill="url(#paint0_linear_1791_24)"/>
</g>
<defs>
<linearGradient id="paint0_linear_1791_24" x1="21.9994" y1="0.591797" x2="21.9994" y2="38.6423" gradientUnits="userSpaceOnUse">
<stop stop-color="white"/>
<stop offset="1" stop-color="#5E5E5E"/>
</linearGradient>
<clipPath id="clip0_1791_24">
<rect width="42.6971" height="38.8155" fill="white" transform="translate(0.652344)"/>
</clipPath>
</defs>
</svg>
