<svg width="44" height="42" viewBox="0 0 44 42" fill="none" xmlns="http://www.w3.org/2000/svg">
<g clip-path="url(#clip0_1791_55)">
<path d="M21.0332 22.1523C21.0332 22.8657 20.0215 22.8657 20.0215 22.1523V21.7955C19.963 21.7955 19.963 21.7371 19.963 21.6786C19.963 21.6201 19.963 21.5616 20.0215 21.4388V20.7838C20.0215 19.4154 17.9396 19.4154 17.9396 20.7838V25.6552C17.8811 26.7839 17.8811 27.971 17.1676 28.9828C16.8109 29.4564 16.3372 29.7547 15.6823 29.936C15.5653 29.936 15.4425 29.9945 15.3255 29.9945C15.8577 31.2401 16.694 32.012 17.4659 32.667C19.0098 34.0355 19.1326 34.3922 19.1911 35.8191H26.0274C26.1444 34.632 26.6239 33.8015 27.3959 32.7898C28.1093 31.9009 28.5245 30.2927 28.5245 29.2225V26.0704V23.3979C28.5245 22.4447 27.0976 22.4447 26.8578 23.1581V23.2166V23.8131C26.8578 24.5266 25.8461 24.5266 25.8461 23.8131V22.2692C25.8461 21.2575 24.0625 21.2575 24.0625 22.2692V22.3862C24.0625 23.0996 22.9923 23.0996 22.9923 22.3862V22.2692V21.6727C22.9923 21.0762 22.5771 20.7195 21.9806 20.7195C21.5069 20.7195 21.0917 21.0177 21.0273 21.4914V22.1523H21.0332ZM21.9864 14.3685L24.2438 15.4972C25.197 15.9709 26.3257 15.2574 26.0859 14.1288L25.7292 11.6901L27.5128 9.90649C28.2847 9.13455 27.928 7.88892 26.7994 7.70763L24.3607 7.3509L23.2321 5.09356C22.6999 4.08185 21.273 4.08185 20.7349 5.09356L19.6063 7.3509L17.1676 7.70763C16.039 7.88307 15.6822 9.13455 16.4542 9.90649L18.2378 11.6901L17.8226 14.1288C17.6472 15.2574 18.7759 15.9709 19.7232 15.4972L21.9864 14.3685ZM21.7467 13.2983L19.2495 14.544C19.0098 14.6609 18.8343 14.544 18.8928 14.3042L19.308 11.6317C19.3665 11.3334 19.1911 11.158 19.1911 11.158L17.1735 9.19888C16.9981 9.02344 17.115 8.78367 17.3489 8.72519L20.0215 8.30998C20.1969 8.30998 20.3197 8.19302 20.3782 8.07021L21.6882 5.5731C21.8051 5.33333 22.1619 5.33333 22.2847 5.5731L23.5303 8.07021C23.6473 8.18717 23.7701 8.30998 23.9455 8.30998L26.6181 8.72519C26.8578 8.78367 26.9748 9.02344 26.735 9.19888L24.7759 11.158C24.7759 11.158 24.6005 11.3334 24.659 11.6317L25.0742 14.3042C25.1327 14.544 24.9572 14.6609 24.7175 14.544L22.2203 13.2983C22.0449 13.234 21.8636 13.234 21.7467 13.2983ZM10.0389 18.6434C10.3956 19.1756 9.50673 19.7721 9.15 19.2399C7.84004 17.3393 7.00962 15.1405 6.65289 12.8831C6.53593 12.2282 7.60612 12.0527 7.72308 12.7662C8.02133 14.8422 8.79327 16.8598 10.0389 18.6434ZM7.54179 10.503C7.54179 11.2164 6.47161 11.2164 6.47161 10.503C6.47161 7.9474 7.0681 5.45029 8.31373 3.25143C8.61198 2.59645 9.50088 3.13447 9.20263 3.72512C8.07981 5.80702 7.54179 8.12869 7.54179 10.503ZM4.33708 3.25143C4.57684 2.65493 5.52422 3.01166 5.2903 3.66664C4.39556 5.8655 3.92187 8.18717 3.92187 10.503C3.92187 13.0001 4.45404 15.4972 5.46574 17.813C5.76399 18.4095 4.81077 18.8247 4.51252 18.2282C3.44233 15.7896 2.91016 13.1755 2.91016 10.503C2.91016 8.00588 3.38385 5.5731 4.33708 3.25143ZM5.64119 20.3101C5.28446 19.778 6.17336 19.1815 6.53009 19.778C7.00378 20.6084 7.54179 21.3218 8.13245 22.0353C8.54766 22.5675 7.71724 23.2225 7.30203 22.6903C6.71137 21.971 6.12072 21.1406 5.64119 20.3101ZM11.881 15.5557C12.1793 16.1522 11.2261 16.6259 10.9278 16.0294C9.50088 13.1171 9.26111 9.73105 10.2728 6.63744C10.4483 5.98246 11.46 6.33919 11.2261 6.99417C10.3372 9.78953 10.5769 12.8831 11.881 15.5557ZM12.0038 5.15789C11.7056 5.75439 10.7582 5.27485 11.1149 4.6842C11.4132 4.15203 11.7114 3.67249 12.0682 3.14032C12.4834 2.60815 13.3138 3.25728 12.8986 3.7953C12.5945 4.20466 12.2962 4.67835 12.0038 5.15789ZM34.8228 19.2399C34.4076 19.7721 33.5772 19.1815 33.9339 18.6434C34.7644 17.4563 35.3609 16.1463 35.8346 14.7779C36.2498 13.4095 36.4311 11.9825 36.4311 10.4971C36.4311 9.78368 37.5012 9.78368 37.5012 10.4971C37.5012 12.0995 37.2615 13.5849 36.7878 15.0703C36.3667 16.5674 35.6533 17.93 34.8228 19.2399ZM37.3141 8.36261C37.4311 9.07607 36.4252 9.19303 36.3024 8.53805C36.0626 6.81288 35.5305 5.21052 34.7585 3.72512C34.4018 3.12862 35.355 2.59645 35.6474 3.25143C36.5422 4.85964 37.0802 6.57896 37.3141 8.36261ZM38.6825 3.66664C38.4428 3.01166 39.396 2.65493 39.6358 3.25143C41.4194 7.53219 41.5364 12.3451 40.051 16.7428C39.8112 17.3978 38.8054 17.0411 39.0393 16.3861C40.4662 12.2866 40.3492 7.70763 38.6825 3.66664ZM38.2673 18.2867C38.5656 17.6902 39.513 18.1698 39.2206 18.7604C38.5071 20.1873 37.6767 21.4914 36.665 22.6844C36.1913 23.2166 35.4193 22.5675 35.8346 22.0295C36.7819 20.9008 37.6124 19.6552 38.2673 18.2867ZM33.0392 16.0294C32.7409 16.6259 31.7936 16.1463 32.086 15.5557C32.2614 15.199 32.4427 14.7837 32.5597 14.427C32.7994 13.772 33.8053 14.1288 33.5714 14.7837C33.3959 15.199 33.2146 15.6142 33.0392 16.0294ZM34.1094 12.8831C33.9924 13.5381 32.9222 13.3568 33.0977 12.7077C33.6942 9.55561 32.9807 6.35089 31.0801 3.7953C30.6649 3.26313 31.4953 2.60815 31.9105 3.14032C33.9866 5.98831 34.7585 9.49128 34.1094 12.8831ZM21.9864 3.4912C18.1209 3.4912 14.9746 6.64329 14.9746 10.503C14.9746 14.3627 18.1267 17.5148 21.9864 17.5148C25.852 17.5148 28.9982 14.3627 28.9982 10.503C28.9982 6.64329 25.8461 3.4912 21.9864 3.4912ZM21.9864 2.47949C26.4426 2.47949 30.0099 6.04679 30.0099 10.503C30.0099 11.6317 29.7701 12.7018 29.4134 13.6551L34.2263 22.0938C36.4837 25.9593 33.6942 29.6436 29.5304 29.8775C29.4134 31.1231 28.9339 32.5501 28.2204 33.4448C27.5654 34.2752 27.2087 34.8717 27.0333 35.8191H27.39C27.6883 35.8191 27.9222 36.0589 27.9222 36.3513V40.749C27.9222 41.0472 27.6824 41.2812 27.39 41.2812H17.7057C17.4074 41.2812 17.1735 41.0414 17.1735 40.749V36.3513C17.1735 36.053 17.4133 35.8191 17.7057 35.8191H18.1209C18.0624 34.632 17.8811 34.4507 16.7524 33.4448C15.8635 32.6144 14.7933 31.6612 14.1384 29.936C10.1559 29.8775 7.72308 25.5383 9.68217 22.0938L14.5536 13.6551C14.1384 12.7018 13.9571 11.6375 13.9571 10.503C13.9629 6.04679 17.5302 2.47949 21.9864 2.47949ZM28.8169 14.7837C28.4602 15.3159 28.045 15.8539 27.507 16.3276L31.7234 23.5792C32.5538 25.1231 31.6649 26.9652 29.7643 26.9652H29.5889V28.8658C32.8579 28.5675 35.1737 25.778 33.3316 22.626L28.8169 14.7837ZM26.7409 17.0411C25.3724 17.9943 23.7701 18.5265 21.9864 18.5265C20.2028 18.5265 18.6004 17.9943 17.232 17.0411L13.191 24.1114C13.074 24.2868 13.0155 24.5266 13.0155 24.7078C13.0155 24.9476 13.074 25.1231 13.1325 25.3043C13.2495 25.4798 13.4308 25.6611 13.6062 25.778C13.7232 25.8365 13.846 25.895 13.9629 25.895C13.7875 23.0996 15.5068 22.3277 16.9337 21.7371V20.7838C16.9337 18.3452 20.2028 18.1113 20.9162 20.0119C21.2145 19.7721 21.6297 19.7136 21.9864 19.7136C22.8168 19.7136 23.5303 20.1288 23.8286 20.7838C24.8403 20.1873 26.5011 20.4856 26.7994 21.7955C27.928 21.2634 29.5947 21.854 29.5947 23.3979V25.4155V25.4739V25.8892H29.7701C31.0801 25.8892 31.0801 24.6435 30.7819 24.1055L26.7409 17.0411ZM16.46 16.3276C15.9279 15.8539 15.5068 15.3159 15.1501 14.7837L10.6354 22.626C9.03304 25.4213 10.9921 28.8658 14.2027 28.8658H15.5127C15.8694 28.7488 16.1676 28.5675 16.3431 28.3336C16.5828 27.9769 16.7583 27.5032 16.8168 26.9652H14.2027C13.7875 26.9652 13.4308 26.8482 13.074 26.6669C12.7173 26.4915 12.4191 26.1932 12.2436 25.8365C12.0682 25.4798 11.9454 25.1231 11.9454 24.7078C11.9454 24.3511 12.0623 23.9359 12.2436 23.5792L16.46 16.3276ZM15.0331 25.895H16.9337C16.9337 25.8365 16.9337 25.7196 16.9337 25.6552V22.8599C15.922 23.3394 14.8518 24.0529 15.0331 25.895ZM18.2378 38.018H26.852V36.8308H18.2378V38.018ZM26.8578 39.0882H18.2378V40.2753H26.852V39.0882H26.8578Z" fill="url(#paint0_linear_1791_55)"/>
<circle cx="21.7018" cy="10.4801" r="6.72523" fill="#242424"/>
<path d="M23.2903 9.98892C22.4198 8.67618 22.1001 7.39789 21.9706 6.67847C21.4492 6.99568 20.9272 7.31289 20.4052 7.63066C20.5547 8.2562 20.8371 9.18617 21.3891 10.2022H19.7643C19.7148 10.1328 19.6659 10.0623 19.6175 9.98892C18.747 8.67618 18.4273 7.39789 18.2978 6.67847C17.7758 6.99568 17.2544 7.31289 16.7324 7.63066C16.9248 8.4373 17.3378 9.75004 18.2661 11.1017C19.1856 12.44 20.2162 13.2422 20.8716 13.6755C21.3019 13.2649 21.7316 12.8544 22.1618 12.4433C21.8628 12.2633 21.4492 11.9855 20.9978 11.5833H22.2925C23.1135 12.6366 23.9724 13.2966 24.5444 13.6749C24.9747 13.2644 25.4044 12.8538 25.8346 12.4427C25.5355 12.2627 25.122 11.985 24.6706 11.5828H25.8346V10.2011H23.4371C23.3876 10.1317 23.3387 10.0611 23.2903 9.98781V9.98892Z" fill="url(#paint1_linear_1791_55)"/>
<path d="M25.862 6.68433H24.0938V8.45149H25.862V6.68433Z" fill="url(#paint2_linear_1791_55)"/>
</g>
<defs>
<linearGradient id="paint0_linear_1791_55" x1="21.9938" y1="2.47949" x2="21.9938" y2="41.2812" gradientUnits="userSpaceOnUse">
<stop stop-color="white"/>
<stop offset="1" stop-color="#5E5E5E"/>
</linearGradient>
<linearGradient id="paint1_linear_1791_55" x1="21.2835" y1="6.67847" x2="21.2835" y2="13.6755" gradientUnits="userSpaceOnUse">
<stop stop-color="white"/>
<stop offset="1" stop-color="#5E5E5E"/>
</linearGradient>
<linearGradient id="paint2_linear_1791_55" x1="24.9779" y1="6.68433" x2="24.9779" y2="8.45149" gradientUnits="userSpaceOnUse">
<stop stop-color="white"/>
<stop offset="1" stop-color="#5E5E5E"/>
</linearGradient>
<clipPath id="clip0_1791_55">
<rect width="42.1058" height="40.3514" fill="white" transform="translate(0.941406 0.831055)"/>
</clipPath>
</defs>
</svg>
