<svg width="48" height="47" viewBox="0 0 48 47" fill="none" xmlns="http://www.w3.org/2000/svg">
<g clip-path="url(#clip0_1854_283)">
<path d="M20 0.5C30.7696 0.5 39.5 9.23045 39.5 20C39.5 30.7696 30.7696 39.5 20 39.5C9.23045 39.5 0.5 30.7696 0.5 20C0.5 9.23045 9.23045 0.5 20 0.5Z" stroke="url(#paint0_linear_1854_283)"/>
<path d="M28.0344 15.1835C27.7355 12.5512 25.4426 11.7071 22.5648 11.505L22.5008 7.84695L20.2753 7.88682L20.3367 11.4485C19.7517 11.4578 19.1547 11.4805 18.559 11.503L18.4978 7.91793L16.2719 7.95659L16.3356 11.6135C15.8538 11.6313 15.3799 11.6496 14.9185 11.6567L14.918 11.6452L11.847 11.6981L11.8889 14.0758C11.8889 14.0758 13.5331 14.0157 13.5063 14.0461C14.4081 14.031 14.71 14.5492 14.8037 15.0004L14.8772 19.1671C14.939 19.166 15.0197 19.1677 15.1129 19.1777L14.8774 19.1825L14.9793 25.0201C14.944 25.3039 14.7852 25.7592 14.1544 25.7717C14.1842 25.796 12.5367 25.8001 12.5367 25.8001L12.1406 28.4659L15.0388 28.4154C15.5775 28.4069 16.1081 28.4071 16.628 28.4011L16.6939 32.1001L18.9182 32.0605L18.8542 28.4024C19.4652 28.4031 20.0564 28.3974 20.6335 28.3877L20.696 32.0306L22.9215 31.9907L22.8576 28.299C26.5976 28.019 29.2004 27.0304 29.4644 23.5096C29.6781 20.6752 28.3246 19.4345 26.1908 18.9619C27.4711 18.2824 28.257 17.1103 28.0344 15.1835ZM25.0569 23.148C25.1079 25.9128 20.3675 25.6805 18.8583 25.7083L18.7743 20.8068C20.2842 20.7814 25.0078 20.265 25.0569 23.148ZM23.9011 16.2509C23.945 18.7665 19.9918 18.5407 18.736 18.5627L18.6582 14.119C19.914 14.0969 23.8555 13.627 23.9011 16.2509Z" fill="url(#paint1_linear_1854_283)"/>
</g>
<circle cx="36.5" cy="35.5" r="11.5" fill="#242424"/>
<g clip-path="url(#clip1_1854_283)">
<path d="M43.8918 43.9361L30.6626 26.458C30.5513 26.3097 30.3388 26.2793 30.1905 26.394C30.0421 26.5053 30.0117 26.7177 30.1264 26.8661L43.3556 44.3409C43.423 44.4286 43.5242 44.4758 43.6254 44.4758C43.6962 44.4758 43.767 44.4522 43.8277 44.4083C43.9761 44.2971 44.0064 44.0845 43.8918 43.9361Z" fill="url(#paint2_linear_1854_283)"/>
<path d="M32.7482 32.0733H30.8395C30.1718 32.0733 29.6289 32.6162 29.6289 33.2839V37.5194C29.6289 38.1871 30.1718 38.73 30.8395 38.73H32.7482C32.9337 38.73 33.0854 38.5783 33.0854 38.3928V32.4105C33.0854 32.225 32.9337 32.0733 32.7482 32.0733Z" fill="url(#paint3_linear_1854_283)"/>
<path d="M33.6758 32.4751V38.3359C33.6758 38.8317 33.949 39.2802 34.3739 39.4791L40.6698 42.4197C40.7777 42.4703 40.8957 42.4972 41.0104 42.4972C41.1014 42.4972 41.1959 42.4804 41.2835 42.4467L33.6825 32.4043C33.6758 32.4279 33.6758 32.4515 33.6758 32.4751Z" fill="url(#paint4_linear_1854_283)"/>
<path d="M41.8585 29.2136C41.8585 28.8933 41.7034 28.6066 41.4438 28.4414C41.2077 28.293 40.9177 28.2728 40.6648 28.3908L34.8242 31.119L41.8587 40.4127L41.8585 29.2136Z" fill="url(#paint5_linear_1854_283)"/>
</g>
<defs>
<linearGradient id="paint0_linear_1854_283" x1="20" y1="0" x2="20" y2="40" gradientUnits="userSpaceOnUse">
<stop stop-color="#FFFFFF"/>
<stop offset="1" stop-color="#5E5E5E"/>
</linearGradient>
<linearGradient id="paint1_linear_1854_283" x1="16.3887" y1="7.92529" x2="22.8427" y2="32.0119" gradientUnits="userSpaceOnUse">
<stop stop-color="#FFFFFF"/>
<stop offset="1" stop-color="#5E5E5E"/>
</linearGradient>
<linearGradient id="paint2_linear_1854_283" x1="37.0091" y1="26.3242" x2="37.0091" y2="44.4758" gradientUnits="userSpaceOnUse">
<stop stop-color="#FFFFFF"/>
<stop offset="1" stop-color="#5E5E5E"/>
</linearGradient>
<linearGradient id="paint3_linear_1854_283" x1="31.3572" y1="32.0732" x2="31.3572" y2="38.73" gradientUnits="userSpaceOnUse">
<stop stop-color="#FFFFFF"/>
<stop offset="1" stop-color="#5E5E5E"/>
</linearGradient>
<linearGradient id="paint4_linear_1854_283" x1="37.4797" y1="32.4043" x2="37.4797" y2="42.4972" gradientUnits="userSpaceOnUse">
<stop stop-color="#FFFFFF"/>
<stop offset="1" stop-color="#5E5E5E"/>
</linearGradient>
<linearGradient id="paint5_linear_1854_283" x1="38.3415" y1="28.3145" x2="38.3415" y2="40.4127" gradientUnits="userSpaceOnUse">
<stop stop-color="#FFFFFF"/>
<stop offset="1" stop-color="#5E5E5E"/>
</linearGradient>
<clipPath id="clip0_1854_283">
<rect width="40" height="40" fill="white"/>
</clipPath>
<clipPath id="clip1_1854_283">
<rect width="14.8917" height="18.5606" fill="white" transform="translate(29.2422 26.1211)"/>
</clipPath>
</defs>
</svg>
