<svg width="48" height="47" viewBox="0 0 48 47" fill="none" xmlns="http://www.w3.org/2000/svg">
<g opacity="0.9">
<g clip-path="url(#clip0_1791_135)">
<path d="M20 0.5C30.7696 0.5 39.5 9.23045 39.5 20C39.5 30.7696 30.7696 39.5 20 39.5C9.23045 39.5 0.5 30.7696 0.5 20C0.5 9.23045 9.23045 0.5 20 0.5Z" stroke="url(#paint0_linear_1791_135)"/>
<path d="M28.0335 15.183C27.7345 12.5507 25.4416 11.7066 22.5638 11.5046L22.4998 7.84646L20.2743 7.88633L20.3358 11.448C19.7507 11.4573 19.1538 11.4801 18.558 11.5025L18.4968 7.91744L16.271 7.9561L16.3346 11.613C15.8528 11.6308 15.3789 11.6491 14.9175 11.6562L14.917 11.6447L11.8461 11.6976L11.8879 14.0753C11.8879 14.0753 13.5321 14.0152 13.5053 14.0456C14.4071 14.0305 14.709 14.5487 14.8027 14.9999L14.8762 19.1666C14.938 19.1655 15.0187 19.1672 15.112 19.1772L14.8764 19.182L14.9783 25.0196C14.943 25.3034 14.7842 25.7588 14.1534 25.7712C14.1833 25.7955 12.5357 25.7996 12.5357 25.7996L12.1397 28.4654L15.0378 28.4149C15.5765 28.4064 16.1071 28.4066 16.627 28.4006L16.6929 32.0996L18.9172 32.06L18.8532 28.4019C19.4642 28.4026 20.0554 28.3969 20.6325 28.3872L20.695 32.0301L22.9205 31.9903L22.8566 28.2985C26.5966 28.0185 29.1994 27.0299 29.4634 23.5091C29.6771 20.6747 28.3236 19.434 26.1898 18.9614C27.4701 18.2819 28.256 17.1098 28.0335 15.183ZM25.0559 23.1475C25.1069 25.9123 20.3666 25.68 18.8573 25.7078L18.7734 20.8063C20.2832 20.7809 25.0068 20.2645 25.0559 23.1475ZM23.9001 16.2504C23.944 18.766 19.9908 18.5402 18.735 18.5623L18.6572 14.1185C19.9131 14.0964 23.8545 13.6266 23.9001 16.2504Z" fill="url(#paint1_linear_1791_135)"/>
</g>
<circle cx="36.5" cy="35.5" r="11.5" fill="#242424"/>
<g clip-path="url(#clip1_1791_135)">
<path d="M43.8918 43.9361L30.6626 26.458C30.5513 26.3097 30.3388 26.2793 30.1905 26.394C30.0421 26.5053 30.0117 26.7177 30.1264 26.8661L43.3556 44.3409C43.423 44.4286 43.5242 44.4758 43.6254 44.4758C43.6962 44.4758 43.767 44.4522 43.8277 44.4083C43.9761 44.2971 44.0064 44.0845 43.8918 43.9361Z" fill="url(#paint2_linear_1791_135)"/>
<path d="M32.7482 32.0733H30.8395C30.1718 32.0733 29.6289 32.6162 29.6289 33.2839V37.5194C29.6289 38.1871 30.1718 38.73 30.8395 38.73H32.7482C32.9337 38.73 33.0854 38.5783 33.0854 38.3928V32.4105C33.0854 32.225 32.9337 32.0733 32.7482 32.0733Z" fill="url(#paint3_linear_1791_135)"/>
<path d="M33.6758 32.4746V38.3355C33.6758 38.8312 33.949 39.2797 34.3739 39.4786L40.6698 42.4192C40.7777 42.4698 40.8957 42.4968 41.0104 42.4968C41.1014 42.4968 41.1959 42.4799 41.2835 42.4462L33.6825 32.4038C33.6758 32.4274 33.6758 32.451 33.6758 32.4746Z" fill="url(#paint4_linear_1791_135)"/>
<path d="M41.8585 29.2131C41.8585 28.8928 41.7034 28.6062 41.4438 28.4409C41.2077 28.2925 40.9177 28.2723 40.6648 28.3903L34.8242 31.1185L41.8587 40.4122L41.8585 29.2131Z" fill="url(#paint5_linear_1791_135)"/>
</g>
</g>
<defs>
<linearGradient id="paint0_linear_1791_135" x1="20" y1="0" x2="20" y2="40" gradientUnits="userSpaceOnUse">
<stop stop-color="#A2FF00"/>
<stop offset="1" stop-color="#639B01"/>
</linearGradient>
<linearGradient id="paint1_linear_1791_135" x1="16.3878" y1="7.9248" x2="22.8417" y2="32.0114" gradientUnits="userSpaceOnUse">
<stop stop-color="#A2FF00"/>
<stop offset="1" stop-color="#639B01"/>
</linearGradient>
<linearGradient id="paint2_linear_1791_135" x1="37.0091" y1="26.3242" x2="37.0091" y2="44.4758" gradientUnits="userSpaceOnUse">
<stop stop-color="#A2FF00"/>
<stop offset="1" stop-color="#639B01"/>
</linearGradient>
<linearGradient id="paint3_linear_1791_135" x1="31.3572" y1="32.0732" x2="31.3572" y2="38.73" gradientUnits="userSpaceOnUse">
<stop stop-color="#A2FF00"/>
<stop offset="1" stop-color="#639B01"/>
</linearGradient>
<linearGradient id="paint4_linear_1791_135" x1="37.4797" y1="32.4038" x2="37.4797" y2="42.4968" gradientUnits="userSpaceOnUse">
<stop stop-color="#A2FF00"/>
<stop offset="1" stop-color="#639B01"/>
</linearGradient>
<linearGradient id="paint5_linear_1791_135" x1="38.3415" y1="28.314" x2="38.3415" y2="40.4122" gradientUnits="userSpaceOnUse">
<stop stop-color="#A2FF00"/>
<stop offset="1" stop-color="#639B01"/>
</linearGradient>
<clipPath id="clip0_1791_135">
<rect width="40" height="40" fill="white"/>
</clipPath>
<clipPath id="clip1_1791_135">
<rect width="14.8917" height="18.5606" fill="white" transform="translate(29.2422 26.1211)"/>
</clipPath>
</defs>
</svg>
