<svg width="28" height="38" viewBox="0 0 28 38" fill="none" xmlns="http://www.w3.org/2000/svg">
<path d="M23.9747 15.0262V10.0175C23.9747 4.49938 19.5178 0 13.9997 0C8.60893 0 4.2369 4.28714 4.02466 9.59301V15.0262C1.90231 17.4032 0.628906 20.5019 0.628906 23.9401C0.628906 31.3258 6.61393 37.3533 13.9997 37.3533C21.3855 37.3533 27.3705 31.3683 27.3705 23.9825C27.3705 20.5019 26.0971 17.4032 23.9747 15.0262ZM13.9997 2.63171C18.0746 2.63171 21.3855 5.94257 21.3855 10.0175V12.7765C19.2631 11.3758 16.7163 10.5693 13.9997 10.5693C11.2831 10.5693 8.73627 11.3758 6.61392 12.7765V10.0175C6.61392 5.94257 9.92479 2.63171 13.9997 2.63171ZM13.9997 35.231C13.2356 35.231 12.4716 35.1461 11.75 35.0187L10.8162 32.8115L9.79745 29.7129L6.86861 29.4582L5.5952 28.1848L3.81243 28.7366C3.13328 27.2934 2.75125 25.6804 2.75125 23.9825C2.75125 23.176 2.83615 22.3695 3.00594 21.6055L5.08584 21.181L5.76499 19.3983L7.54776 20.3745L9.41542 17.6155L7.92978 14.432C9.67011 13.3283 11.75 12.6492 13.9997 12.6492C14.5515 12.6492 15.0609 12.6916 15.5702 12.7765L16.8012 15.196L14.4666 17.573L11.6227 19.9501L11.3255 24.3645L15.1033 27.4207L15.8249 31.2834L19.3905 31.623L20.0272 26.5718L23.6776 23.2609L23.1682 20.3745L24.5265 19.7803C25.0359 21.0537 25.333 22.4544 25.333 23.9401C25.2906 30.1798 20.2394 35.231 13.9997 35.231Z" fill="url(#paint0_linear_1791_40)"/>
<defs>
<linearGradient id="paint0_linear_1791_40" x1="13.9997" y1="0" x2="13.9997" y2="37.3533" gradientUnits="userSpaceOnUse">
<stop stop-color="white"/>
<stop offset="1" stop-color="#5E5E5E"/>
</linearGradient>
</defs>
</svg>
