<svg width="36" height="39" viewBox="0 0 36 39" fill="none" xmlns="http://www.w3.org/2000/svg">
<path d="M26.9557 17.8119H26.6939V12.3674C26.6939 11.3104 25.9215 10.449 24.9651 10.449H24.0398V7.94962C24.0398 6.89264 23.2675 6.03125 22.3111 6.03125H3.63663C2.26295 6.03125 1.14844 7.268 1.14844 8.79235V29.4085C1.14844 30.9329 2.26295 32.1696 3.63663 32.1696H24.9651C25.9176 32.1696 26.6939 31.3082 26.6939 30.2513V24.8067H26.9557C27.9082 24.8067 28.6844 23.9454 28.6844 22.8884V19.7261C28.6844 18.6734 27.9121 17.8119 26.9557 17.8119ZM3.63662 7.13565H22.311C22.7154 7.13565 23.0445 7.49948 23.0445 7.94959V10.449H3.63659C2.81366 10.449 2.14367 9.7055 2.14367 8.79231C2.14367 7.87912 2.81369 7.13565 3.63662 7.13565ZM2.1437 29.4085V11.0012C2.15407 11.0084 2.16703 11.0156 2.1774 11.0228C2.2707 11.0961 2.3666 11.1666 2.46898 11.2284C2.47935 11.2356 2.48842 11.2399 2.50268 11.2471C2.59858 11.3017 2.70225 11.3506 2.80463 11.3909C2.82407 11.3981 2.8448 11.4053 2.86425 11.4125C2.9731 11.4527 3.08715 11.4829 3.20247 11.5088C3.2258 11.5131 3.24913 11.516 3.27505 11.5203C3.39427 11.539 3.51739 11.5534 3.6431 11.5534H5.79954V31.0652H3.63663C2.8137 31.0652 2.1437 30.3217 2.1437 29.4085ZM25.6986 30.2512C25.6986 30.6999 25.3708 31.0652 24.9652 31.0652H6.78837V11.5534H24.9652C25.3695 11.5534 25.6986 11.9172 25.6986 12.3673V17.8119H20.2246C18.4867 17.8119 17.0729 19.3808 17.0729 21.3092C17.0729 23.2377 18.4867 24.8066 20.2246 24.8066H25.6986V30.2512ZM27.6892 22.8883C27.6892 23.337 27.3613 23.7022 26.9557 23.7022H20.2246C19.0376 23.7022 18.0682 22.6265 18.0682 21.3093C18.0682 19.992 19.0376 18.9163 20.2246 18.9163H26.9557C27.3601 18.9163 27.6892 19.2802 27.6892 19.7303V22.8883ZM20.7289 21.3093C20.7289 21.6141 20.506 21.8615 20.2312 21.8615C19.9565 21.8615 19.7336 21.6141 19.7336 21.3093C19.7336 21.0044 19.9565 20.7571 20.2312 20.7571H20.2351C20.5073 20.7571 20.7289 21.0044 20.7289 21.3093Z" fill="url(#paint0_linear_1791_65)"/>
<path d="M13.4922 1.89844H30.1087C32.7308 1.89844 34.8563 4.024 34.8563 6.64602V29.4344C34.8563 32.0565 32.7308 34.182 30.1087 34.182H21.5631" stroke="url(#paint1_linear_1791_65)" stroke-width="0.949517"/>
<circle cx="13.4908" cy="1.89903" r="1.89903" fill="url(#paint2_linear_1791_65)"/>
<circle cx="22.0358" cy="34.1822" r="1.89903" fill="url(#paint3_linear_1791_65)"/>
<defs>
<linearGradient id="paint0_linear_1791_65" x1="14.9164" y1="6.03125" x2="14.9164" y2="32.1696" gradientUnits="userSpaceOnUse">
<stop stop-color="white"/>
<stop offset="1" stop-color="#5E5E5E"/>
</linearGradient>
<linearGradient id="paint1_linear_1791_65" x1="20.6136" y1="1.89844" x2="20.6136" y2="34.182" gradientUnits="userSpaceOnUse">
<stop stop-color="white"/>
<stop offset="1" stop-color="#5E5E5E"/>
</linearGradient>
<linearGradient id="paint2_linear_1791_65" x1="13.4908" y1="0" x2="13.4908" y2="3.79807" gradientUnits="userSpaceOnUse">
<stop stop-color="white"/>
<stop offset="1" stop-color="#5E5E5E"/>
</linearGradient>
<linearGradient id="paint3_linear_1791_65" x1="22.0358" y1="32.2832" x2="22.0358" y2="36.0813" gradientUnits="userSpaceOnUse">
<stop stop-color="white"/>
<stop offset="1" stop-color="#5E5E5E"/>
</linearGradient>
</defs>
</svg>
