<svg width="25" height="26" viewBox="0 0 25 26" fill="none" xmlns="http://www.w3.org/2000/svg">
<path d="M20.8848 7.38466C20.8398 6.94466 20.6948 6.54716 20.4148 6.19966C20.1673 5.89216 19.8498 5.67216 19.5498 5.42466C19.3998 5.30216 19.0023 4.96966 18.9523 4.78216C18.8923 4.55466 18.9848 4.32216 19.1923 4.24716C19.5048 4.14216 20.0273 4.14466 20.3298 4.16466C20.5873 4.18466 20.8523 4.09466 20.8623 3.98966C20.8723 3.88466 20.7198 3.72966 20.5173 3.68216C20.3573 3.64466 20.1123 3.58716 19.9648 3.48966C19.7023 3.31216 19.4348 2.98716 19.0698 2.91466C18.5498 2.81216 18.1873 3.00716 18.0173 3.45466C17.7473 4.09466 17.9223 4.91466 18.4898 5.51466C18.7448 5.78466 19.0423 6.01716 19.3273 6.25966C19.5373 6.43966 19.7223 6.63716 19.8998 6.85716C20.3748 7.44966 19.8723 8.53716 19.7523 8.66216C19.3323 9.09716 18.9673 9.17716 18.2423 9.14716C17.5298 9.11716 15.6823 8.16216 14.7048 8.13216C12.2848 8.05716 10.6048 9.17466 10.0373 9.46466C9.18735 9.89966 7.97735 9.92716 7.93985 9.93966C7.39235 9.98216 6.25735 10.0247 5.69485 10.2197C4.90235 10.4397 4.47485 10.8022 4.18485 11.6122C4.09485 11.9622 4.07735 12.2797 4.20485 12.4722C4.48235 12.8922 5.22985 13.2422 5.56985 13.4347C5.74485 13.5347 6.08985 13.4097 6.15735 13.3622C6.53735 13.1047 6.87235 12.9022 7.32235 12.8372C7.41735 12.8222 8.05235 12.7097 8.37235 12.9447C8.60485 13.1147 8.80485 13.2172 9.06735 13.3372C9.54735 13.5547 10.6048 13.8297 10.6248 13.8347C10.7673 13.8722 10.9498 13.9447 10.9498 14.0722C10.9498 14.2522 9.26985 15.6572 9.17735 15.6922C8.75485 15.8647 8.50985 16.1422 8.43235 16.5422C8.40735 16.6722 8.34985 16.8072 8.27735 16.9147C8.00485 17.3097 6.79735 19.0247 6.47735 19.4947C6.32485 19.7147 6.16735 19.8247 5.94985 19.8597C5.63735 19.9097 5.40235 19.9172 5.26985 20.1397C5.18735 20.2822 5.23985 20.5597 5.29485 20.7397C5.35735 20.9447 5.18735 21.1997 5.17485 21.2297C5.02485 21.5222 4.96235 21.8022 4.98485 22.0847C4.99235 22.1997 4.99985 22.4672 5.18985 22.4747C5.37985 22.4847 5.42985 22.3622 5.45235 22.3172C5.47985 22.2622 5.58485 22.0347 5.61485 21.9797C5.73735 21.7522 6.20485 21.2622 6.25735 21.2047C6.42485 21.0197 8.92485 17.5772 8.92485 17.5772C9.06235 17.3972 9.20485 17.2122 9.43735 17.1222C9.75985 16.9972 9.97485 16.7397 10.0373 16.3997C10.0523 16.3247 11.0498 15.5597 11.4748 15.2372C11.6298 15.1197 12.5698 14.7422 12.5848 14.7472C12.5848 14.7547 11.7248 16.0497 11.4573 16.7372C11.4148 16.8472 11.3448 17.2222 11.4223 17.4122C11.5423 17.7047 11.7998 17.8322 12.0923 17.7447C12.1823 17.7172 12.2623 17.6722 12.3398 17.6297C12.3748 17.6097 12.4098 17.5922 12.4448 17.5747C12.4798 17.5572 12.5123 17.5397 12.5473 17.5222C12.6273 17.4797 12.7048 17.4397 12.7823 17.4147C13.0698 17.3197 13.3598 17.2297 13.6498 17.1397L14.2373 16.9572C14.6473 16.8297 15.0573 16.7022 15.4673 16.5772C15.5573 16.5497 15.6448 16.5172 15.7573 16.5197C15.8198 16.5197 15.8873 16.5447 15.9098 16.6372C15.9098 16.6422 15.9573 16.9222 16.1298 17.0347C16.2173 17.0922 16.4048 17.1372 16.5448 17.1322C16.6673 17.1272 16.8223 17.1622 16.9023 17.2322L17.0048 17.3197C17.0798 17.3822 17.1723 17.4172 17.2348 17.4347C17.2998 17.4522 17.4198 17.4522 17.4898 17.3797C17.5648 17.2997 17.5373 17.1697 17.5273 17.1297C17.5123 17.0747 17.4823 17.0322 17.4598 16.9947L17.3973 16.8972C17.3373 16.8022 17.2798 16.7072 17.2173 16.6122C17.0448 16.3497 16.8748 16.0897 16.6998 15.8297C16.5173 15.5597 16.2348 15.4522 15.8648 15.5097C15.7223 15.5322 12.5948 16.5022 12.5723 16.5072C12.7398 16.1997 13.7423 14.8147 14.0223 14.6397C14.2298 14.5172 14.3173 14.3997 14.6948 14.3347C15.4323 14.2097 17.0323 13.8397 17.4298 13.5522C18.2023 12.9922 18.2648 11.7197 18.2523 11.4647C18.2373 11.2097 18.3198 11.0347 18.5423 10.9172C18.6523 10.8597 19.8423 10.2022 20.4248 9.23216C20.7748 8.66466 20.9548 8.05716 20.8848 7.38466Z" fill="#111010"/>
</svg>
