<svg width="44" height="43" viewBox="0 0 44 43" fill="none" xmlns="http://www.w3.org/2000/svg">
<path d="M4.69148 26.1025C7.16318 27.662 10.0278 28.4914 12.9506 28.4914C15.8732 28.4914 18.7359 27.662 21.2076 26.1025C21.3793 25.9929 21.4827 25.8067 21.4827 25.604V24.3382C21.4807 22.5098 20.8912 20.7289 19.8011 19.2583C18.7111 17.7898 17.1785 16.708 15.4286 16.1744C16.9034 15.1009 17.5218 13.2001 16.9571 11.4647C16.3925 9.7294 14.775 8.55454 12.9507 8.55454C11.1244 8.55454 9.50692 9.7294 8.94433 11.4647C8.37967 13.2001 8.99604 15.1009 10.4728 16.1744C8.72093 16.708 7.1883 17.7898 6.10033 19.2583C5.0103 20.7289 4.42081 22.5097 4.41875 24.3382V25.604C4.41875 25.8067 4.52187 25.9929 4.69148 26.1025ZM9.9141 12.7697C9.9141 11.5411 10.6525 10.4345 11.7881 9.96498C12.9236 9.4934 14.2287 9.754 15.0974 10.6227C15.9661 11.4914 16.2267 12.7966 15.7552 13.9321C15.2857 15.0655 14.1791 15.8061 12.9505 15.8061C11.273 15.804 9.91616 14.4471 9.9141 12.7697ZM5.59539 24.3382C5.57677 22.3774 6.34622 20.4911 7.72578 19.097C9.10745 17.705 10.9876 16.9211 12.9505 16.9211C14.9113 16.9211 16.7914 17.705 18.1731 19.097C19.5548 20.4911 20.3221 22.3774 20.3055 24.3382V25.2772C18.0821 26.603 15.54 27.3042 12.9502 27.3042C10.3607 27.3042 7.81865 26.603 5.59496 25.2772L5.59539 24.3382ZM3.81452 3.10049C3.81452 2.94536 3.8745 2.79644 3.98619 2.68474C4.09581 2.57512 4.24681 2.51307 4.40193 2.51307H5.51473C5.83946 2.51307 6.10216 2.77575 6.10216 3.1005C6.10216 3.4273 5.83948 3.68999 5.51473 3.68999H4.40193C4.24681 3.68999 4.09582 3.62794 3.98619 3.51832C3.87657 3.40662 3.81452 3.25768 3.81452 3.10049ZM7.90369 3.10049C7.90369 2.77576 8.16637 2.51306 8.49112 2.51306H9.60391C9.92865 2.51306 10.1913 2.77574 10.1913 3.10049C10.1913 3.42729 9.92866 3.68998 9.60391 3.68998H8.49112C8.16845 3.68791 7.90575 3.42523 7.90575 3.10049H7.90369ZM11.9929 3.10049C11.9929 2.77576 12.2576 2.51306 12.5824 2.51306H18.9941C19.3188 2.51306 19.5836 2.77574 19.5836 3.10049C19.5836 3.42729 19.3188 3.68998 18.9941 3.68998H12.5824C12.2576 3.68998 11.9929 3.42523 11.9929 3.10049ZM42.4227 0H1.23977C0.915039 0 0.652344 0.26268 0.652344 0.587427V31.435C0.652344 31.7598 0.915023 32.0225 1.23977 32.0225H42.4248C42.5799 32.0225 42.7289 31.9604 42.8406 31.8508C42.9502 31.7391 43.0122 31.5902 43.0122 31.4351V0.587437C43.0122 0.43231 42.9502 0.283388 42.8406 0.171695C42.7289 0.0620727 42.5799 2.12088e-05 42.4248 2.12088e-05L42.4227 0ZM41.8353 1.17692V5.02612H1.82889V1.17692H41.8353ZM41.8353 30.8453H1.82889V6.20293H41.8353V30.8453ZM30.8873 9.91579C30.8873 9.59106 31.15 9.32836 31.4748 9.32836H38.0829C38.4076 9.32836 38.6703 9.59104 38.6703 9.91579C38.6703 10.2405 38.4077 10.5032 38.0829 10.5032H31.4748C31.3176 10.5032 31.1686 10.4412 31.059 10.3315C30.9473 10.2219 30.8873 10.0709 30.8873 9.91579ZM30.8873 12.5385C30.8873 12.3813 30.9473 12.2323 31.059 12.1227C31.1686 12.011 31.3196 11.949 31.4747 11.949H38.0829C38.4014 11.9593 38.6538 12.2199 38.6538 12.5385C38.6538 12.857 38.4014 13.1176 38.0829 13.1259H31.4747C31.15 13.1259 30.8873 12.8632 30.8873 12.5385ZM23.3049 14.1352H27.9442C28.2689 14.1352 28.5337 13.8705 28.5337 13.5457V8.9064C28.5337 8.58167 28.2689 8.31897 27.9442 8.31897H23.3049C22.9802 8.31897 22.7175 8.58166 22.7175 8.9064V13.5457C22.7175 13.7029 22.7795 13.8518 22.8891 13.9635C22.9988 14.0732 23.1498 14.1352 23.3049 14.1352ZM23.8944 9.49796H27.3568V12.9604H23.8944V9.49796ZM30.8875 17.2128C30.8875 16.888 31.1502 16.6233 31.4749 16.6233H38.0831C38.4016 16.6336 38.6539 16.8942 38.6539 17.2128C38.6539 17.5313 38.4016 17.7919 38.0831 17.8023H31.4749C31.3177 17.8002 31.1688 17.7381 31.0592 17.6285C30.9475 17.5189 30.8875 17.3679 30.8875 17.2128ZM30.8875 19.8354C30.8875 19.6782 30.9475 19.5293 31.0592 19.4197C31.1688 19.308 31.3198 19.246 31.4749 19.246H38.0831C38.4078 19.246 38.6705 19.5107 38.6705 19.8355C38.6705 20.1602 38.4078 20.4229 38.0831 20.4229H31.4749C31.1502 20.4229 30.8875 20.1602 30.8875 19.8354ZM23.305 21.4322H27.9444C28.2691 21.4322 28.5339 21.1695 28.5339 20.8448V16.2034C28.5339 15.8787 28.2691 15.616 27.9444 15.616H23.305C23.1499 15.616 22.9989 15.678 22.8893 15.7876C22.7797 15.8993 22.7176 16.0483 22.7176 16.2034V20.8448C22.7176 21.1695 22.9803 21.4322 23.305 21.4322ZM23.8925 16.7929H27.3549V20.2553H23.8945L23.8925 16.7929ZM30.8877 24.5098C30.8877 24.3547 30.9477 24.2037 31.0594 24.0941C31.169 23.9845 31.3179 23.9224 31.4751 23.9224H38.0833C38.408 23.9224 38.6707 24.1851 38.6707 24.5098C38.6707 24.8346 38.408 25.0973 38.0833 25.0973H31.4751C31.1504 25.0973 30.8877 24.8346 30.8877 24.5098ZM30.8877 27.1304C30.8877 26.9753 30.9477 26.8243 31.0594 26.7147C31.169 26.603 31.32 26.543 31.4751 26.543H38.0833C38.408 26.543 38.6707 26.8057 38.6707 27.1304C38.6707 27.4552 38.408 27.7179 38.0833 27.7179H31.4751C31.3179 27.7179 31.169 27.6558 31.0594 27.5462C30.9477 27.4366 30.8877 27.2855 30.8877 27.1304ZM23.3053 28.7292H27.9446C28.2693 28.7292 28.5341 28.4645 28.5341 28.1398V23.5004C28.5341 23.1757 28.2693 22.913 27.9446 22.913H23.3053C23.1501 22.913 22.9991 22.9751 22.8895 23.0847C22.7799 23.1964 22.7178 23.3453 22.7178 23.5004V28.1397C22.7178 28.2969 22.7799 28.4459 22.8895 28.5575C22.9991 28.6672 23.1501 28.7292 23.3053 28.7292ZM23.8927 24.0899H27.3551L27.3572 27.5544H23.8948L23.8927 24.0899Z" fill="url(#paint0_linear_1791_29)"/>
<circle cx="31.0741" cy="30.4218" r="12.2753" fill="#242424"/>
<path d="M38.375 36.2491V37.0004H26.8814C26.7054 37.8155 25.9807 38.4278 25.1156 38.4278C24.1194 38.4278 23.3086 37.6145 23.3086 36.6154C23.3086 35.6162 24.1194 34.803 25.1156 34.803C25.9863 34.803 26.7166 35.4246 26.8851 36.2491H38.375Z" fill="url(#paint1_linear_1791_29)"/>
<path d="M38.375 30.332V31.0833H35.7179C35.5456 31.9021 34.8172 32.52 33.9502 32.52C33.0833 32.52 32.3548 31.904 32.1826 31.0833H23.582V30.332H32.1826C32.3548 29.5132 33.0833 28.8953 33.9502 28.8953C34.8172 28.8953 35.5456 29.5113 35.7179 30.332H38.375Z" fill="url(#paint2_linear_1791_29)"/>
<path d="M38.375 24.4166V25.1679H30.0984C29.9299 25.9924 29.1996 26.614 28.3289 26.614C27.4582 26.614 26.7298 25.9924 26.5594 25.1679H23.582V24.4166H26.5631C26.7391 23.6015 27.4638 22.9893 28.3289 22.9893C29.194 22.9893 29.9187 23.6015 30.0947 24.4166H38.375Z" fill="url(#paint3_linear_1791_29)"/>
<defs>
<linearGradient id="paint0_linear_1791_29" x1="21.8323" y1="0" x2="21.8323" y2="32.0225" gradientUnits="userSpaceOnUse">
<stop stop-color="white"/>
<stop offset="1" stop-color="#5E5E5E"/>
</linearGradient>
<linearGradient id="paint1_linear_1791_29" x1="30.8418" y1="34.803" x2="30.8418" y2="38.4278" gradientUnits="userSpaceOnUse">
<stop stop-color="white"/>
<stop offset="1" stop-color="#5E5E5E"/>
</linearGradient>
<linearGradient id="paint2_linear_1791_29" x1="30.9785" y1="28.8953" x2="30.9785" y2="32.52" gradientUnits="userSpaceOnUse">
<stop stop-color="white"/>
<stop offset="1" stop-color="#5E5E5E"/>
</linearGradient>
<linearGradient id="paint3_linear_1791_29" x1="30.9785" y1="22.9893" x2="30.9785" y2="26.614" gradientUnits="userSpaceOnUse">
<stop stop-color="white"/>
<stop offset="1" stop-color="#5E5E5E"/>
</linearGradient>
</defs>
</svg>
