<svg width="1440" height="1024" viewBox="0 0 1440 1024" fill="none" xmlns="http://www.w3.org/2000/svg">
<g opacity="0.3">
<path d="M2179.56 -1099.15L1322.52 -669.9C1278.5 -647.853 1171.7 -594.361 1118.36 -537.196C1117.28 -536.037 1116.28 -534.822 1115.25 -533.636C1060.81 -470.625 1041.95 -390.99 1000.17 -321.786C943.48 -227.882 841.107 -160.899 733.972 -131.74C669.85 -114.285 603.65 -115.202 540.059 -123.439C476.764 -131.641 414.839 -154.884 349.866 -150.291C348.301 -150.179 346.727 -150.062 345.157 -149.936C237.494 -141.258 135.854 -75.5585 39.781 -27.44C-46.6449 15.8466 -133.08 59.1376 -219.506 102.424C-311.099 148.299 -402.693 194.174 -494.287 240.049L-694.133 340.142C-709.78 347.979 -725.427 355.816 -741.074 363.652" stroke="black" stroke-miterlimit="10"/>
<path d="M2188.33 -1081.54L1351.08 -662.199C1350.86 -662.087 1327.93 -650.617 1327.71 -650.513C1292.02 -633.838 1219.52 -596.936 1163.47 -555.641C1147.89 -544.173 1133.61 -532.298 1121.8 -520.3C1120.7 -519.182 1119.68 -518.008 1118.64 -516.855C1067.14 -460.164 1045.96 -390.096 1009.39 -327.618C1006.67 -322.979 1003.87 -318.378 1000.96 -313.828C982.954 -285.684 960.429 -260.229 934.813 -237.459C907.105 -212.817 875.016 -191.852 841.185 -173.473C840.952 -173.356 840.746 -173.232 840.509 -173.103C806.595 -154.754 771.307 -139.217 735.726 -128.64C698.247 -117.499 660.294 -112.551 622.544 -111.866C597.402 -111.421 572.306 -112.781 547.521 -115.262C485.815 -121.452 424.936 -142.249 360.556 -136.161C358.998 -136.012 357.44 -135.862 355.89 -135.697C277.102 -127.582 200.835 -89.6481 127.47 -51.0107C101.541 -37.3527 75.9934 -23.5805 50.815 -10.9698C45.8079 -8.46198 40.8008 -5.95418 35.7937 -3.44637C-13.383 21.1839 -62.5598 45.8141 -111.736 70.4444C-144.22 86.7138 -176.712 102.988 -209.196 119.257C-235.233 132.298 -261.27 145.338 -287.306 158.379C-346.122 187.837 -404.946 217.299 -463.761 246.757C-470.753 250.259 -477.754 253.765 -484.746 257.267C-527.816 278.839 -570.886 300.41 -613.965 321.986L-685.146 357.637C-693.685 361.914 -702.215 366.186 -710.754 370.463L-732.222 381.215" stroke="#030500" stroke-width="1.02" stroke-miterlimit="10"/>
<path d="M2197.1 -1063.93L1356.38 -642.858C1355.93 -642.634 1333.35 -631.355 1332.9 -631.14C1296.41 -614.144 1223.89 -577.751 1167.42 -537.625C1151.69 -526.483 1137.23 -515.015 1125.24 -503.417C1124.13 -502.339 1123.1 -501.203 1122.03 -500.09C1069.73 -445.366 1047.21 -378.281 1010.28 -318.967C1007.53 -314.559 1004.71 -310.202 1001.77 -305.882C983.626 -279.183 960.985 -255.208 935.404 -233.554C907.747 -210.148 875.14 -190.531 841.239 -172.157C841.006 -172.041 840.827 -171.93 840.598 -171.806C806.606 -153.458 772.062 -136.747 737.506 -125.554C701.036 -113.738 664.388 -107.704 627.852 -105.979C603.525 -104.844 579.153 -105.426 555.013 -107.111C494.897 -111.289 435.073 -129.644 371.289 -122.054C369.747 -121.872 368.209 -121.682 366.663 -121.487C288.63 -111.665 212.351 -73.3285 138.769 -34.6333C112.778 -20.9647 87.1514 -7.17294 61.8835 5.48253C56.8585 7.99929 51.8424 10.5116 46.8175 13.0284C-2.50231 37.7302 -51.8131 62.4277 -101.133 87.1295C-133.715 103.448 -166.288 119.762 -198.869 136.081C-224.978 149.157 -251.086 162.234 -277.195 175.31C-336.18 204.853 -395.165 234.396 -454.15 263.939C-461.169 267.454 -468.179 270.965 -475.198 274.481C-518.393 296.115 -561.579 317.745 -604.774 339.379L-676.17 375.138C-684.727 379.423 -693.292 383.713 -701.849 387.999C-709.029 391.595 -716.2 395.187 -723.38 398.783" stroke="#050A00" stroke-width="1.05" stroke-miterlimit="10"/>
<path d="M2205.86 -1046.32L1361.68 -623.504C1361.02 -623.173 1338.77 -612.073 1338.09 -611.753C1300.79 -594.433 1228.25 -558.557 1171.37 -519.601C1155.51 -508.79 1140.88 -497.705 1128.68 -486.521C1127.55 -485.484 1126.5 -484.389 1125.42 -483.321C1072.31 -430.56 1048.44 -366.465 1011.16 -310.311C1008.38 -306.143 1005.53 -302.017 1002.58 -297.933C984.289 -272.678 961.543 -250.186 935.987 -229.643C908.395 -207.471 875.261 -189.217 841.285 -170.837C841.061 -170.725 840.909 -170.628 840.689 -170.508C806.631 -152.158 772.814 -134.285 739.282 -122.476C703.808 -109.989 668.474 -102.873 633.161 -100.091C609.649 -98.2656 586.007 -98.0841 562.497 -98.9559C503.971 -101.122 445.198 -117.021 382.005 -107.938C380.48 -107.723 378.95 -107.496 377.414 -107.256C300.136 -95.726 223.846 -56.9873 150.06 -18.2306C123.999 -4.54688 98.292 9.26443 72.9437 21.9602C67.9098 24.4814 62.8759 27.0027 57.833 29.5284L-90.5287 103.836C-123.2 120.199 -155.862 136.558 -188.533 152.921C-214.713 166.034 -240.902 179.15 -267.082 192.263C-326.228 221.886 -385.383 251.514 -444.53 281.138L-465.631 291.706C-508.942 313.399 -552.254 335.091 -595.574 356.788L-667.175 392.65C-675.759 396.949 -684.342 401.248 -692.926 405.547L-714.519 416.362" stroke="#080E00" stroke-width="1.07" stroke-miterlimit="10"/>
<path d="M2214.63 -1028.71L1366.97 -604.159C1366.09 -603.716 1344.18 -592.794 1343.28 -592.375C1305.18 -574.727 1232.6 -539.363 1175.31 -501.581C1159.31 -491.087 1144.51 -480.407 1132.12 -469.634C1130.98 -468.634 1129.91 -467.579 1128.81 -466.552C1074.89 -415.757 1049.67 -354.649 1012.03 -301.66C1009.22 -297.73 1006.34 -293.835 1003.36 -289.982C984.945 -266.169 962.089 -245.168 936.549 -225.733C909.031 -204.798 875.356 -187.891 841.301 -169.512C841.087 -169.404 840.952 -169.317 840.741 -169.201C806.608 -150.844 773.518 -131.788 741.016 -119.375C706.533 -106.205 672.508 -98.0148 638.426 -94.1815C615.721 -91.661 592.808 -90.7155 569.943 -90.7703C513.006 -90.9241 455.288 -104.382 392.682 -93.7908C391.168 -93.5311 389.654 -93.2714 388.136 -92.999C311.628 -79.617 235.311 -40.6204 161.308 -1.80583C135.18 11.9011 109.389 25.7238 83.9516 38.4644C78.8998 40.9946 73.848 43.5248 68.8051 46.0505C19.2171 70.8867 -30.3799 95.7275 -79.9679 120.564C-112.729 136.972 -145.489 153.38 -178.25 169.788C-204.51 182.941 -230.762 196.089 -257.022 209.242C-316.338 238.95 -375.654 268.659 -434.961 298.363C-442.016 301.896 -449.071 305.429 -456.125 308.963C-499.562 330.718 -542.998 352.473 -586.426 374.224C-610.352 386.208 -634.288 398.196 -658.215 410.18C-666.825 414.492 -675.436 418.805 -684.037 423.113C-691.253 426.727 -698.468 430.341 -705.684 433.954" stroke="#0B1300" stroke-width="1.1" stroke-miterlimit="10"/>
<path d="M2223.4 -1011.1L1372.28 -584.81C1371.17 -584.255 1349.61 -573.516 1348.49 -573.006C1309.58 -555.033 1236.97 -520.186 1179.26 -483.569C1163.14 -473.406 1148.16 -463.117 1135.57 -452.751C1134.4 -451.792 1133.32 -450.769 1132.2 -449.782C1077.46 -400.95 1050.92 -342.837 1012.91 -293.004C1010.07 -289.306 1007.17 -285.654 1004.17 -282.032C985.609 -259.664 962.67 -240.148 937.132 -221.822C909.696 -202.129 875.432 -186.647 841.348 -168.192C841.133 -168.084 841.034 -168.014 840.824 -167.899C806.657 -149.474 774.248 -129.304 742.784 -116.292C709.274 -102.429 676.59 -93.1708 643.722 -88.2974C621.832 -85.0866 599.644 -83.3645 577.424 -82.6231C522.076 -80.7648 465.405 -91.7755 403.404 -79.6869C401.906 -79.3946 400.404 -79.0898 398.897 -78.793C323.16 -63.6707 246.816 -24.3044 172.605 14.5636C146.406 28.2856 120.545 42.1234 95.0178 54.9088C89.957 57.4434 84.8874 59.9826 79.8266 62.5173C30.0955 87.4251 -19.6356 112.333 -69.3667 137.241L-167.917 186.6C-194.249 199.788 -220.572 212.972 -246.904 226.161C-306.381 255.95 -365.867 285.743 -425.344 315.533C-432.416 319.075 -439.489 322.617 -446.57 326.164C-490.123 347.977 -533.684 369.795 -577.237 391.609C-601.235 403.628 -625.234 415.648 -649.223 427.663C-657.851 431.984 -666.488 436.31 -675.117 440.632C-682.35 444.255 -689.593 447.882 -696.826 451.505" stroke="#0E1800" stroke-width="1.12" stroke-miterlimit="10"/>
<path d="M2232.17 -993.49L1377.57 -565.465C1376.24 -564.798 1355.02 -554.241 1353.68 -553.628C1313.95 -535.33 1241.4 -500.883 1183.21 -465.553C1166.97 -455.688 1151.8 -445.814 1139.01 -435.868C1137.83 -434.949 1136.73 -433.972 1135.6 -433.018C1080.05 -386.153 1052.16 -331.018 1013.79 -284.349C1010.93 -280.894 1008 -277.469 1004.97 -274.091C986.277 -253.172 963.25 -235.148 937.711 -217.921C910.367 -199.474 875.536 -185.346 841.39 -166.88C841.184 -166.777 841.112 -166.72 840.91 -166.609C806.686 -148.166 774.969 -126.817 744.56 -113.214C712.024 -98.6584 680.676 -88.3397 649.031 -82.4101C627.957 -78.5089 606.498 -76.0228 584.908 -74.4681C531.15 -70.5977 475.534 -79.1662 414.116 -65.5788C412.635 -65.254 411.148 -64.9166 409.653 -64.5747C334.675 -47.7158 258.312 -7.98415 183.888 30.9498C157.618 44.6869 131.677 58.5442 106.07 71.3699C100.991 73.9135 95.9124 76.4572 90.8337 79.0008C40.9685 103.976 -8.90563 128.955 -58.7708 153.93C-91.7103 170.428 -124.659 186.931 -157.598 203.428C-184.002 216.652 -210.405 229.877 -236.808 243.101C-296.455 272.975 -356.102 302.849 -415.74 332.719L-437.02 343.377C-480.698 365.253 -524.376 387.13 -568.045 409.001C-592.106 421.052 -616.167 433.103 -640.236 445.158C-648.892 449.493 -657.547 453.828 -666.202 458.163L-687.965 469.063" stroke="#101D00" stroke-width="1.15" stroke-miterlimit="10"/>
<path d="M2240.93 -975.882L1382.87 -546.12C1381.32 -545.345 1360.44 -534.967 1358.86 -534.249C1318.34 -515.624 1245.76 -481.681 1187.14 -447.532C1170.76 -437.986 1155.44 -428.52 1142.44 -418.976C1141.24 -418.103 1140.12 -417.153 1138.98 -416.244C1082.62 -371.341 1053.38 -319.198 1014.65 -275.697C1011.77 -272.481 1008.8 -269.288 1005.76 -266.145C986.926 -246.671 963.838 -230.152 938.279 -214.014C911.036 -196.818 875.629 -184.04 841.413 -165.559C841.216 -165.461 841.162 -165.413 840.965 -165.315C806.67 -146.856 775.661 -124.315 746.305 -110.131C714.724 -94.8731 684.73 -83.5032 654.307 -76.5172C634.04 -71.9212 613.315 -68.6629 592.361 -66.3075C540.192 -60.4251 485.622 -66.5468 424.8 -51.4571C423.326 -51.0953 421.86 -50.7172 420.377 -50.3509C346.17 -31.7517 269.771 8.35415 195.147 47.337C168.811 61.0973 142.795 74.9616 117.089 87.8365C111.993 90.3891 106.905 92.9372 101.809 95.4898C51.8006 120.537 1.79235 145.583 -48.207 170.625L-147.312 220.262C-173.786 233.522 -200.261 246.782 -226.736 260.042C-286.544 289.997 -346.352 319.952 -406.169 349.911C-413.286 353.476 -420.394 357.036 -427.512 360.601C-471.306 382.535 -515.109 404.474 -558.903 426.408C-583.035 438.495 -607.159 450.577 -631.291 462.664C-639.973 467.012 -648.655 471.361 -657.328 475.705C-664.606 479.35 -671.884 482.995 -679.153 486.636" stroke="#132100" stroke-width="1.17" stroke-miterlimit="10"/>
<path d="M2249.7 -958.27L1388.17 -526.771C1386.4 -525.884 1365.86 -515.689 1364.06 -514.867C1322.73 -495.917 1250.13 -462.475 1191.1 -429.512C1174.59 -420.297 1159.1 -411.214 1145.9 -402.089C1144.68 -401.248 1143.55 -400.352 1142.38 -399.484C1085.22 -356.548 1054.73 -307.315 1015.55 -267.05C1012.64 -264.058 1009.65 -261.116 1006.58 -258.204C987.606 -240.175 964.462 -225.154 938.875 -210.121C911.745 -194.172 875.755 -182.76 841.472 -164.256C841.275 -164.158 841.256 -164.128 841.06 -164.029C806.707 -145.552 776.376 -121.814 748.077 -107.061C717.437 -91.0842 688.802 -78.6755 659.607 -70.6459C640.155 -65.3595 620.159 -61.3371 599.849 -58.1648C549.269 -50.2703 495.756 -53.9498 435.53 -37.3578C434.076 -36.9553 432.613 -36.5483 431.151 -36.1413C357.71 -15.81 281.288 24.6738 206.456 63.71C180.049 77.4854 153.954 91.3693 128.167 104.284C123.062 106.842 117.956 109.399 112.851 111.956C62.7087 137.07 12.5663 162.183 -37.5851 187.302L-136.958 237.073C-163.504 250.369 -190.051 263.665 -216.606 276.965C-276.584 307.005 -336.553 337.04 -396.53 367.08C-403.666 370.654 -410.801 374.227 -417.927 377.797C-461.846 399.794 -505.765 421.791 -549.685 443.788C-573.88 455.906 -598.075 468.024 -622.27 480.142C-630.969 484.499 -639.678 488.861 -648.378 493.218C-655.674 496.873 -662.97 500.527 -670.266 504.181" stroke="#162600" stroke-width="1.2" stroke-miterlimit="10"/>
<path d="M2258.47 -940.663L1393.47 -507.426C1391.47 -506.427 1371.28 -496.415 1369.26 -495.494C1327.12 -476.219 1254.5 -443.278 1195.05 -411.497C1178.4 -402.599 1162.75 -393.925 1149.33 -385.202C1148.1 -384.402 1146.95 -383.538 1145.76 -382.711C1087.78 -341.737 1055.97 -295.483 1016.41 -258.386C1013.47 -255.633 1010.46 -252.922 1007.36 -250.241C988.253 -233.661 965.061 -220.143 939.432 -206.198C912.424 -191.501 875.837 -181.438 841.492 -162.923C841.304 -162.829 841.312 -162.813 841.116 -162.714C806.692 -144.222 777.056 -119.276 749.823 -103.957C720.129 -87.2535 692.877 -73.7572 664.885 -64.7327C646.252 -58.7271 626.973 -53.9651 607.303 -49.984C558.304 -40.073 505.846 -41.3102 446.215 -23.2157C444.778 -22.7807 443.336 -22.3331 441.88 -21.8891C369.202 0.166242 292.761 41.0361 217.712 80.1301C191.239 93.9287 165.069 107.82 139.193 120.78L123.832 128.473C73.5462 153.659 23.2697 178.84 -27.0157 204.025C-60.2324 220.662 -93.449 237.298 -126.666 253.935C-153.284 267.267 -179.911 280.603 -206.529 293.935C-266.667 324.055 -326.806 354.176 -386.954 384.301C-394.107 387.883 -401.26 391.466 -408.413 395.048L-540.528 461.219C-564.795 473.373 -589.052 485.522 -613.319 497.676C-622.045 502.047 -630.772 506.417 -639.499 510.788C-646.812 514.451 -654.135 518.119 -661.449 521.782" stroke="#192B00" stroke-width="1.22" stroke-miterlimit="10"/>
<path d="M2267.24 -923.051L1398.77 -488.077C1396.56 -486.966 1376.71 -477.137 1374.46 -476.112C1331.51 -456.504 1258.87 -424.072 1199.01 -393.477C1182.23 -384.901 1166.4 -376.619 1152.79 -368.315C1151.55 -367.56 1150.37 -366.737 1149.17 -365.942C1090.31 -327.04 1057.23 -283.652 1017.31 -249.74C1014.34 -247.217 1011.3 -244.746 1008.18 -242.309C988.933 -227.165 965.712 -215.158 940.037 -202.309C913.178 -188.856 875.967 -180.149 841.551 -161.62C841.373 -161.531 841.399 -161.523 841.22 -161.434C806.739 -142.922 777.77 -116.754 751.617 -100.888C722.855 -83.4401 696.985 -68.9266 670.211 -58.8539C652.397 -52.1498 633.848 -46.6238 614.805 -41.8375C567.395 -29.9145 515.992 -28.7094 456.945 -9.11625C455.515 -8.6442 454.089 -8.16404 452.65 -7.68751C380.748 16.0955 304.27 57.3396 229.022 96.5033C202.477 110.317 176.227 124.227 150.262 137.232C145.13 139.803 139.997 142.373 134.856 144.948C84.4367 170.201 34.0172 195.454 -16.4024 220.706L-116.321 270.75C-143.019 284.122 -169.709 297.49 -196.407 310.862C-256.716 341.067 -317.015 371.269 -377.324 401.474C-384.495 405.066 -391.666 408.657 -398.836 412.249L-531.319 478.603C-555.648 490.788 -579.977 502.973 -604.306 515.159C-613.059 519.543 -621.813 523.927 -630.566 528.311L-652.57 539.332" stroke="#1B3000" stroke-width="1.24" stroke-miterlimit="10"/>
<path d="M2276.01 -905.444L1404.07 -468.732C1401.64 -467.514 1382.12 -457.862 1379.65 -456.734C1335.9 -436.806 1263.23 -404.865 1202.95 -375.456C1186.03 -367.199 1170.05 -359.317 1156.23 -351.436C1154.97 -350.714 1153.77 -349.931 1152.56 -349.181C1092.88 -312.25 1058.47 -271.828 1018.18 -241.092C1015.19 -238.809 1012.13 -236.573 1008.98 -234.367C989.594 -220.668 966.355 -210.169 940.617 -198.407C913.906 -186.199 876.068 -178.856 841.594 -160.308C841.416 -160.219 841.477 -160.229 841.299 -160.14C806.747 -141.614 778.455 -114.207 753.381 -97.8131C725.547 -79.609 701.06 -64.0991 675.504 -52.9783C658.506 -45.5838 640.677 -39.2893 622.283 -33.6987C576.462 -19.7635 526.106 -16.1118 467.663 4.97926C466.253 5.49198 464.835 6.00916 463.412 6.51822C392.286 32.0289 315.776 73.6553 240.31 112.877C213.695 126.706 187.366 140.636 161.32 153.681C156.17 156.26 151.02 158.84 145.878 161.415C95.3158 186.739 44.7622 212.059 -5.80047 237.383C-39.1959 254.109 -72.6004 270.84 -105.996 287.566C-132.766 300.974 -159.527 314.377 -186.297 327.785L-367.705 418.644C-374.894 422.244 -382.092 425.849 -389.281 429.45L-522.12 495.983C-546.521 508.204 -570.913 520.42 -595.313 532.642C-604.094 537.039 -612.865 541.432 -621.645 545.83C-629.004 549.515 -636.362 553.201 -643.712 556.882" stroke="#1E3400" stroke-width="1.27" stroke-miterlimit="10"/>
<path d="M2284.77 -887.828L1409.37 -449.378C1406.71 -448.048 1387.54 -438.58 1384.84 -437.347C1340.28 -417.095 1267.59 -385.655 1206.89 -357.432C1189.84 -349.501 1173.71 -342.011 1159.67 -334.54C1158.38 -333.859 1157.18 -333.121 1155.94 -332.412C1095.45 -297.456 1059.7 -259.991 1019.05 -232.433C1016.03 -230.38 1012.94 -228.383 1009.78 -226.413C990.256 -214.163 967.014 -205.168 941.19 -194.493C914.649 -183.53 876.175 -177.547 841.635 -158.976C841.465 -158.891 841.544 -158.91 841.374 -158.825C806.761 -140.288 779.144 -111.622 755.138 -94.7053C728.213 -75.7356 705.13 -59.2301 680.793 -47.0611C664.601 -38.9718 647.506 -31.9051 629.752 -25.5057C585.52 -9.55848 536.219 -3.4645 478.364 19.1334C476.97 19.6787 475.568 20.2284 474.157 20.7826C403.793 48.0172 327.265 90.0297 251.591 129.305C224.909 143.157 198.504 157.094 172.369 170.183C167.21 172.767 162.042 175.356 156.883 177.94C106.186 203.331 55.4896 228.723 4.79286 254.114C-28.701 270.89 -62.1858 287.661 -95.6797 304.436L-176.204 344.767C-236.844 375.138 -297.474 405.505 -358.114 435.876C-365.329 439.49 -372.536 443.1 -379.751 446.714C-424.153 468.953 -468.556 491.192 -512.958 513.43C-537.421 525.683 -561.884 537.935 -586.347 550.188C-595.145 554.594 -603.944 559.001 -612.751 563.412C-620.127 567.106 -627.504 570.801 -634.88 574.496" stroke="#213900" stroke-width="1.29" stroke-miterlimit="10"/>
<path d="M2293.55 -870.225L1414.67 -430.038C1411.79 -428.596 1392.97 -419.31 1390.03 -417.974C1344.67 -397.389 1271.96 -366.466 1210.84 -339.416C1193.66 -331.808 1177.36 -324.713 1163.11 -317.658C1161.82 -317.013 1160.59 -316.312 1159.33 -315.643C1098.03 -282.662 1060.92 -248.163 1019.93 -223.777C1016.88 -221.964 1013.76 -220.198 1010.58 -218.463C990.92 -207.659 967.691 -200.155 941.774 -190.583C915.412 -180.849 876.284 -176.238 841.673 -157.651C841.512 -157.571 841.614 -157.612 841.457 -157.523C806.786 -138.968 779.836 -109.038 756.911 -91.6147C730.907 -71.855 709.217 -54.3782 686.098 -41.1611C670.726 -32.3733 654.355 -24.5507 637.232 -17.338C594.59 0.621241 546.336 9.16194 489.076 33.2622C487.69 33.8445 486.308 34.4349 484.909 35.0135C415.317 63.9677 338.761 106.371 262.87 145.703C236.117 159.571 209.633 173.527 183.408 186.662C178.231 189.254 173.054 191.847 167.877 194.44C117.047 219.899 66.2068 245.362 15.3759 270.821L-85.3649 321.277C-112.278 334.757 -139.191 348.236 -166.104 361.715C-226.904 392.167 -287.705 422.619 -348.505 453.071C-355.739 456.694 -362.963 460.313 -370.197 463.935C-414.715 486.233 -459.242 508.534 -503.761 530.831L-577.338 567.683C-586.163 572.103 -594.988 576.523 -603.813 580.943C-611.207 584.646 -618.611 588.354 -626.005 592.057" stroke="#243E00" stroke-width="1.32" stroke-miterlimit="10"/>
<path d="M2302.31 -852.609L1419.96 -410.684C1416.86 -409.13 1398.38 -400.027 1395.23 -398.6C1349.05 -377.69 1276.31 -347.272 1214.8 -321.396C1197.47 -314.114 1181.01 -307.407 1166.56 -300.766C1165.25 -300.162 1164 -299.506 1162.73 -298.87C1100.62 -267.864 1062.16 -236.322 1020.82 -215.126C1017.74 -213.544 1014.6 -212.022 1011.39 -210.514C991.581 -201.154 968.383 -195.151 942.354 -186.672C916.325 -178.194 876.389 -174.928 841.716 -156.331C841.555 -156.251 841.693 -156.31 841.536 -156.221C806.794 -137.65 780.522 -106.433 758.676 -88.5318C733.588 -67.9695 713.304 -49.5387 691.39 -35.277C676.834 -25.7988 661.188 -17.1997 644.71 -9.19076C603.657 10.7806 556.458 21.7635 499.79 47.3581C498.421 47.9729 497.046 48.6003 495.667 49.2196C426.843 79.8852 350.262 122.687 274.163 162.073C247.34 175.955 220.785 189.927 194.471 203.106L178.896 210.907C127.922 236.437 76.9478 261.968 25.9738 287.498C-7.6988 304.363 -41.3714 321.228 -75.0441 338.093L-156.007 378.644C-216.977 409.181 -277.938 439.713 -338.909 470.25C-346.16 473.882 -353.411 477.514 -360.663 481.146C-405.306 503.505 -449.95 525.865 -494.593 548.225C-519.19 560.545 -543.788 572.864 -568.385 585.184C-577.237 589.617 -586.08 594.046 -594.932 598.48C-602.353 602.197 -609.765 605.909 -617.186 609.626" stroke="#264300" stroke-width="1.34" stroke-miterlimit="10"/>
<path d="M2311.08 -835.006L1425.27 -391.344C1421.94 -389.678 1403.81 -380.749 1400.42 -379.226C1353.45 -357.997 1280.68 -328.075 1218.74 -303.38C1201.29 -296.421 1184.67 -290.101 1170.01 -283.883C1168.68 -283.32 1167.41 -282.697 1166.13 -282.106C1103.21 -253.066 1063.4 -224.499 1021.7 -206.471C1018.59 -205.128 1015.42 -203.845 1012.19 -202.572C992.25 -194.661 969.087 -190.131 942.93 -182.779C916.773 -175.426 876.495 -173.648 841.755 -155.028C841.603 -154.952 841.759 -155.02 841.612 -154.935C806.812 -136.346 781.214 -103.828 760.441 -85.4575C736.265 -64.08 717.379 -44.7114 696.688 -29.3934C682.956 -19.2293 668.031 -9.86165 652.183 -1.03946C612.72 20.9439 566.576 34.3692 510.495 61.4706C509.146 62.126 507.788 62.786 506.416 63.4423C438.364 95.8274 361.751 139.011 285.439 178.464C258.549 192.369 231.91 206.352 205.516 219.572L189.904 227.391C138.796 252.988 87.6795 278.59 36.5714 304.188C2.80936 321.097 -30.9527 338.007 -64.7148 354.917L-145.892 395.575C-207.023 426.192 -268.154 456.81 -329.286 487.428L-351.093 498.35C-395.862 520.773 -440.622 543.191 -485.39 565.613C-510.05 577.964 -534.719 590.319 -559.379 602.67C-568.249 607.113 -577.118 611.555 -585.997 616.002C-593.436 619.728 -600.875 623.454 -608.305 627.175" stroke="#294700" stroke-width="1.37" stroke-miterlimit="10"/>
<path d="M2319.85 -817.398L1430.57 -372.003C1427.03 -370.229 1409.23 -361.479 1405.62 -359.852C1357.84 -338.29 1285.04 -308.88 1222.7 -285.369C1205.11 -278.735 1188.34 -272.807 1173.45 -267C1172.11 -266.482 1170.83 -265.899 1169.53 -265.341C1105.8 -238.276 1064.64 -212.674 1022.59 -197.82C1019.45 -196.716 1016.26 -195.669 1013 -194.627C992.927 -188.153 969.811 -185.111 943.522 -178.873C917.803 -172.768 876.612 -172.343 841.801 -153.708C841.649 -153.631 841.841 -153.717 841.693 -153.633C806.823 -135.029 781.907 -101.194 762.2 -82.3702C738.947 -60.1531 721.46 -39.8674 701.979 -23.4968C689.062 -12.6423 674.857 -2.50612 659.654 7.13301C621.78 31.1285 576.683 47.0004 521.198 75.6042C519.856 76.2967 518.518 76.9973 517.159 77.678C449.883 111.77 373.237 155.357 296.717 194.863C269.765 208.779 243.047 222.781 216.554 236.05C211.332 238.665 206.119 241.276 200.898 243.891C149.647 269.561 98.3956 295.23 47.1534 320.895C13.302 337.849 -20.5584 354.808 -54.4099 371.763C-81.5465 385.354 -108.674 398.941 -135.811 412.532C-197.103 443.231 -258.404 473.933 -319.696 504.632C-326.983 508.281 -334.279 511.936 -341.566 515.585C-386.451 538.066 -431.336 560.547 -476.221 583.027C-500.953 595.414 -525.684 607.801 -550.406 620.183C-559.303 624.639 -568.199 629.095 -577.096 633.551L-599.458 644.751" stroke="#2C4C00" stroke-width="1.39" stroke-miterlimit="10"/>
<path d="M2328.61 -799.782L1435.87 -352.649C1432.11 -350.764 1414.65 -342.197 1410.81 -340.466C1362.22 -318.58 1289.4 -289.679 1226.64 -267.34C1208.91 -261.033 1191.99 -255.489 1176.89 -250.105C1175.54 -249.619 1174.23 -249.077 1172.91 -248.568C1108.37 -223.47 1065.85 -200.837 1023.45 -189.164C1020.28 -188.291 1017.06 -187.483 1013.79 -186.676C993.568 -181.647 970.517 -180.063 944.083 -174.962C917.648 -169.862 876.698 -171.033 841.826 -152.387C841.683 -152.315 841.901 -152.414 841.762 -152.335C806.834 -133.712 782.604 -98.5517 763.959 -79.2832C741.625 -56.2139 725.529 -35.0273 707.265 -17.6085C695.164 -6.06371 681.693 4.84466 667.117 15.2889C630.836 41.3046 586.79 59.6106 531.901 89.7168C530.575 90.4418 529.245 91.1794 527.906 91.9008C461.394 127.696 384.728 171.69 308 211.249C280.977 225.18 254.175 239.194 227.602 252.503C222.371 255.123 217.141 257.743 211.901 260.367C160.516 286.103 109.131 311.84 57.7366 337.58C23.7868 354.584 -10.1541 371.584 -44.1039 388.587C-71.312 402.215 -98.5202 415.842 -125.719 429.465L-310.105 521.815C-317.419 525.478 -324.724 529.137 -332.038 532.8C-377.048 555.343 -422.049 577.882 -467.06 600.425C-491.854 612.844 -516.648 625.262 -541.451 637.684C-550.374 642.154 -559.288 646.618 -568.212 651.088C-575.687 654.831 -583.17 658.58 -590.645 662.323" stroke="#2E5100" stroke-width="1.41" stroke-miterlimit="10"/>
<path d="M2337.39 -782.179L1441.17 -333.309C1437.18 -331.311 1420.08 -322.927 1416.01 -321.092C1366.6 -298.881 1293.75 -270.493 1230.59 -249.329C1212.73 -243.344 1195.65 -238.188 1180.34 -233.222C1178.96 -232.777 1177.64 -232.28 1176.3 -231.803C1110.97 -208.676 1067.08 -189.021 1024.33 -180.513C1021.14 -179.879 1017.89 -179.302 1014.6 -178.731C994.249 -175.151 971.271 -175.007 944.674 -171.056C918.077 -167.106 876.81 -169.736 841.88 -151.071C841.746 -151.004 841.982 -151.112 841.852 -151.037C806.853 -132.399 783.335 -95.886 765.739 -76.197C744.345 -52.2555 729.618 -30.188 712.578 -11.7129C701.292 0.522234 688.541 12.1991 674.614 23.4477C639.922 51.4754 596.923 72.2282 542.63 103.837C541.32 104.594 540.006 105.364 538.679 106.131C472.934 143.638 396.244 188.03 319.303 227.655C292.214 241.609 265.337 255.63 238.674 268.984L222.938 276.866C171.41 302.674 119.89 328.477 68.362 354.286C34.3227 371.334 0.29241 388.378 -33.7468 405.427C-61.0265 419.09 -88.3062 432.753 -115.586 446.416C-177.209 477.28 -238.841 508.148 -300.464 539.012C-307.795 542.684 -315.118 546.352 -322.45 550.024C-367.576 572.626 -412.703 595.227 -457.829 617.829C-482.695 630.283 -507.551 642.733 -532.417 655.186C-541.358 659.665 -550.308 664.147 -559.249 668.626C-566.751 672.383 -574.244 676.136 -581.745 679.893" stroke="#315600" stroke-width="1.44" stroke-miterlimit="10"/>
<path d="M2346.15 -764.563L1446.47 -313.955C1442.26 -311.846 1425.5 -303.636 1421.21 -301.71C1371.01 -279.171 1298.12 -251.295 1234.54 -231.304C1216.54 -225.646 1199.31 -220.882 1183.79 -216.331C1182.4 -215.923 1181.06 -215.462 1179.71 -215.03C1113.57 -193.871 1068.31 -177.193 1025.23 -171.854C1022 -171.451 1018.74 -171.118 1015.41 -170.782C994.912 -168.646 972.01 -169.935 945.256 -167.146C920.255 -164.544 876.926 -168.431 841.917 -149.747C841.783 -149.68 842.055 -149.806 841.925 -149.731C806.868 -131.074 784.052 -93.2032 767.497 -73.1098C747.048 -48.2881 733.695 -25.3523 717.868 -5.81653C707.398 7.10901 695.372 19.5625 682.08 31.6118C648.978 61.6516 607.034 84.8466 553.324 117.954C552.026 118.757 550.728 119.559 549.413 120.35C484.432 159.56 407.718 204.351 330.573 244.038C303.413 258.007 276.456 272.047 249.704 285.446C244.447 288.08 239.18 290.717 233.923 293.35L78.9357 370.976C44.8071 388.069 10.6785 405.163 -23.4502 422.256C-50.8014 435.955 -78.1526 449.654 -105.504 463.353C-167.297 494.302 -229.089 525.251 -290.882 556.2C-298.232 559.881 -305.582 563.562 -312.931 567.243L-448.677 635.232C-473.605 647.717 -498.533 660.202 -523.461 672.687C-532.429 677.179 -541.397 681.671 -550.365 686.162C-557.885 689.929 -565.405 693.695 -572.915 697.457" stroke="#345A00" stroke-width="1.46" stroke-miterlimit="10"/>
<path d="M2354.92 -746.956L1451.76 -294.61C1447.34 -292.393 1430.92 -284.362 1426.4 -282.332C1375.38 -259.469 1302.47 -232.105 1238.49 -213.288C1220.35 -207.956 1202.97 -203.568 1187.23 -199.448C1185.83 -199.08 1184.47 -198.657 1183.1 -198.266C1116.16 -179.073 1069.54 -165.377 1026.1 -163.207C1022.85 -163.043 1019.56 -162.941 1016.21 -162.84C995.572 -162.15 972.76 -164.846 945.836 -163.244C921.084 -161.774 877.031 -167.13 841.96 -148.435C841.835 -148.372 842.134 -148.512 842.013 -148.441C806.894 -129.774 784.801 -90.5258 769.266 -70.0272C749.782 -44.3053 737.774 -20.5166 723.165 0.0673484C713.506 13.6751 702.213 26.9008 689.557 39.7715C658.044 71.8234 617.147 97.4651 564.041 132.07C562.76 132.905 561.478 133.741 560.174 134.577C495.966 175.485 419.223 220.688 341.861 260.432C314.63 274.417 287.594 288.477 260.761 301.916C255.486 304.558 250.211 307.2 244.936 309.842C193.13 335.789 141.334 361.731 89.5281 387.678C55.3101 404.816 21.092 421.955 -13.1261 439.093C-40.5488 452.827 -67.9805 466.567 -95.4032 480.301C-157.357 511.331 -219.32 542.365 -281.273 573.395C-288.641 577.085 -296.009 580.775 -303.376 584.465L-439.488 652.637C-464.488 665.158 -489.479 677.675 -514.478 690.196C-523.473 694.701 -532.459 699.202 -541.454 703.707C-548.992 707.482 -556.529 711.257 -564.066 715.032" stroke="#375F00" stroke-width="1.49" stroke-miterlimit="10"/>
<path d="M2363.69 -729.344L1457.07 -275.261C1452.42 -272.933 1436.34 -265.079 1431.6 -262.95C1379.77 -239.762 1306.84 -212.908 1242.44 -195.264C1224.17 -190.254 1206.63 -186.254 1190.67 -182.552C1189.25 -182.225 1187.87 -181.842 1186.5 -181.488C1118.75 -164.262 1070.76 -153.556 1026.98 -154.543C1023.7 -154.619 1020.38 -154.747 1017.02 -154.882C996.249 -155.641 973.511 -159.728 946.432 -159.331C921.937 -158.977 877.152 -165.817 842.019 -147.112C841.903 -147.053 842.22 -147.202 842.103 -147.144C806.914 -128.461 785.558 -87.8321 771.047 -66.941C752.545 -40.3071 741.864 -15.6773 728.478 5.96292C719.634 20.2611 709.062 34.2552 697.055 47.9303C667.131 81.9942 627.293 110.086 574.77 146.19C573.505 147.058 572.235 147.938 570.947 148.807C507.503 191.419 430.74 237.028 353.169 276.826C325.872 290.833 298.761 304.9 271.839 318.384C266.546 321.035 261.262 323.682 255.969 326.333C204.029 352.347 152.089 378.361 100.15 404.375C65.8423 421.558 31.5259 438.746 -2.7816 455.928C-30.2759 469.699 -57.7791 483.474 -85.2733 497.245L-271.644 590.589C-279.03 594.288 -286.424 597.991 -293.81 601.69C-339.302 624.475 -384.786 647.256 -430.279 670.041C-455.342 682.594 -480.404 695.146 -505.466 707.699C-514.479 712.213 -523.501 716.731 -532.513 721.245C-540.069 725.03 -547.633 728.818 -555.188 732.602" stroke="#396400" stroke-width="1.51" stroke-miterlimit="10"/>
<path d="M2372.45 -711.737L1462.36 -255.916C1457.49 -253.475 1441.75 -245.797 1436.78 -243.58C1384.15 -220.059 1311.18 -193.726 1246.38 -177.256C1227.97 -172.573 1210.29 -168.956 1194.11 -165.686C1192.68 -165.396 1191.28 -165.054 1189.87 -164.744C1121.32 -149.476 1071.96 -141.777 1027.85 -145.912C1024.54 -146.227 1021.2 -146.591 1017.81 -146.957C996.902 -149.153 974.244 -154.622 946.997 -155.453C922.75 -156.19 877.238 -164.548 842.038 -145.82C841.922 -145.762 842.275 -145.928 842.159 -145.87C806.912 -127.168 786.305 -85.1547 772.788 -63.8865C755.282 -36.337 745.915 -10.8698 733.751 11.8267C725.723 26.8152 715.884 41.5816 704.504 56.0618C676.169 92.1378 637.378 122.677 585.451 160.283C584.193 161.188 582.939 162.101 581.668 163.002C518.983 207.309 442.205 253.333 364.417 293.188C337.049 307.211 309.858 321.298 282.847 334.826C277.545 337.482 272.242 340.137 266.94 342.793C214.867 368.874 162.784 394.96 110.71 421.041L7.50167 472.733C-20.0731 486.544 -47.6388 500.35 -75.2136 514.161C-137.498 545.357 -199.792 576.556 -262.076 607.752C-269.488 611.464 -276.892 615.172 -284.304 618.885C-329.913 641.728 -375.522 664.571 -421.141 687.419C-446.265 700.003 -471.399 712.592 -496.524 725.175C-505.564 729.703 -514.603 734.23 -523.643 738.758C-531.225 742.555 -538.798 746.348 -546.38 750.146" stroke="#3C6900" stroke-width="1.54" stroke-miterlimit="10"/>
<path d="M2381.23 -694.125L1467.67 -236.567C1462.57 -234.014 1447.18 -226.519 1441.98 -224.198C1388.54 -200.353 1315.54 -174.536 1250.33 -159.232C1231.79 -154.879 1213.95 -151.642 1197.55 -148.79C1196.1 -148.541 1194.68 -148.239 1193.26 -147.967C1123.91 -134.666 1073.19 -129.956 1028.72 -137.252C1025.38 -137.798 1022.02 -138.401 1018.61 -139.003C997.566 -142.648 974.985 -149.458 947.571 -151.539C923.576 -153.358 877.346 -163.239 842.076 -144.495C841.968 -144.441 842.339 -144.617 842.241 -144.568C806.923 -125.851 787.082 -82.4409 774.56 -60.7957C758.07 -32.3106 749.996 -6.02592 739.051 17.7188C731.834 33.3895 722.72 48.9324 711.98 64.2215C685.235 102.309 647.499 135.291 596.164 174.391C594.926 175.337 593.688 176.282 592.425 177.22C530.499 223.222 453.705 269.661 375.709 309.57C348.274 323.616 321.009 337.71 293.908 351.283L277.957 359.272C225.74 385.425 173.523 411.578 121.306 437.731C86.8111 455.008 52.3247 472.28 17.8295 489.557C-9.81676 503.404 -37.463 517.251 -65.1093 531.097C-127.564 562.378 -190.018 593.658 -252.464 624.934C-259.894 628.655 -267.315 632.372 -274.745 636.094L-411.939 704.808C-437.136 717.427 -462.332 730.047 -487.528 742.667C-496.595 747.208 -505.652 751.744 -514.719 756.285C-522.319 760.091 -529.919 763.898 -537.51 767.7" stroke="#3F6D00" stroke-width="1.56" stroke-miterlimit="10"/>
<path d="M2389.99 -676.518L1472.96 -217.222C1467.65 -214.562 1452.6 -207.236 1447.18 -204.824C1392.93 -180.655 1319.9 -155.363 1254.29 -141.221C1235.6 -137.194 1217.61 -134.328 1201 -131.911C1199.54 -131.695 1198.11 -131.438 1196.67 -131.206C1126.51 -119.864 1074.43 -118.166 1029.62 -128.606C1026.25 -129.391 1022.86 -130.225 1019.42 -131.066C998.235 -136.156 975.723 -144.303 948.159 -147.641C924.406 -150.517 877.46 -161.942 842.127 -143.188C842.029 -143.139 842.422 -143.336 842.328 -143.278C806.953 -124.543 787.888 -79.7407 776.324 -57.7212C760.882 -28.3058 754.066 -1.20658 744.347 23.6026C737.937 39.9681 729.565 56.2788 719.465 72.3767C694.309 112.477 657.62 147.905 606.881 188.507C605.659 189.485 604.429 190.468 603.182 191.439C542.015 239.136 465.201 285.982 387.001 325.952C359.496 340.013 332.151 354.126 304.969 367.74L288.973 375.751C236.623 401.971 184.263 428.196 131.912 454.416C97.3272 471.738 62.7426 489.059 28.1579 506.381C0.440142 520.264 -27.2777 534.146 -54.9954 548.029L-242.851 642.116C-250.299 645.847 -257.747 649.577 -265.195 653.307C-311.045 676.272 -356.905 699.241 -402.755 722.205C-428.014 734.856 -453.282 747.511 -478.541 760.162C-487.626 764.712 -496.719 769.267 -505.803 773.816C-513.421 777.632 -521.039 781.447 -528.657 785.263" stroke="#427200" stroke-width="1.59" stroke-miterlimit="10"/>
<path d="M2398.76 -658.91L1478.26 -197.877C1472.72 -195.105 1458.01 -187.962 1452.36 -185.447C1397.31 -160.957 1324.25 -136.177 1258.22 -123.2C1239.4 -119.499 1221.26 -117.009 1204.43 -115.02C1202.95 -114.848 1201.49 -114.628 1200.05 -114.433C1129.07 -105.053 1075.65 -106.354 1030.49 -119.946C1027.09 -120.971 1023.68 -122.04 1020.21 -123.112C998.888 -129.646 976.435 -139.105 948.732 -143.727C925.203 -147.651 877.557 -160.628 842.158 -141.851C842.06 -141.802 842.489 -142.017 842.395 -141.959C806.949 -123.209 788.694 -77.0117 778.081 -54.6135C763.699 -24.2642 758.132 3.65424 749.636 29.5197C744.037 46.5675 736.39 63.6548 726.929 80.5614C703.363 122.674 667.729 160.544 617.586 202.649C616.372 203.664 615.162 204.687 613.931 205.69C553.52 255.074 476.694 302.343 398.281 342.38C370.705 356.456 343.289 370.584 316.009 384.247C310.663 386.925 305.316 389.603 299.978 392.276L142.505 471.147C107.831 488.513 73.1568 505.88 38.4828 523.247L-44.8941 565.006C-107.679 596.452 -170.456 627.894 -233.241 659.34C-240.707 663.079 -248.173 666.819 -255.639 670.558C-301.615 693.585 -347.59 716.612 -393.557 739.635C-418.888 752.321 -444.218 765.008 -469.54 777.69C-478.651 782.254 -487.762 786.817 -496.873 791.38C-504.509 795.205 -512.154 799.034 -519.789 802.858" stroke="#447700" stroke-width="1.61" stroke-miterlimit="10"/>
<path d="M2407.53 -641.299L1483.56 -178.528C1477.81 -175.644 1463.45 -168.676 1457.56 -166.064C1401.71 -141.242 1328.62 -116.988 1262.18 -105.18C1243.22 -101.81 1224.92 -99.6951 1207.89 -98.133C1206.39 -97.9941 1204.93 -97.8189 1203.45 -97.6682C1131.67 -90.2474 1076.89 -94.5629 1031.36 -111.299C1027.93 -112.562 1024.5 -113.863 1021.01 -115.17C999.557 -123.154 977.14 -133.903 949.311 -139.825C926.002 -144.785 877.666 -159.34 842.201 -140.539C842.111 -140.494 842.558 -140.718 842.473 -140.665C806.969 -121.896 789.516 -74.2995 779.849 -51.5308C766.554 -20.2403 762.21 8.48998 754.932 35.4036C750.149 53.1418 743.235 71.0012 734.402 88.713C712.424 132.837 677.837 173.154 628.29 216.762C627.092 217.809 625.898 218.865 624.679 219.913C565.019 270.997 488.186 318.676 409.564 358.766C381.922 372.865 354.422 387.005 327.062 400.708C321.706 403.391 316.341 406.078 310.986 408.76C258.357 435.119 205.729 461.478 153.092 487.841C118.329 505.253 83.5566 522.668 48.7931 540.08C20.9322 554.034 -6.93756 567.992 -34.7984 581.947L-223.646 676.531C-231.13 680.28 -238.623 684.032 -246.106 687.781C-292.198 710.866 -338.299 733.956 -384.391 757.041C-409.784 769.759 -435.186 782.482 -460.579 795.2L-487.984 808.926C-495.647 812.763 -503.301 816.597 -510.963 820.435" stroke="#477C00" stroke-width="1.63" stroke-miterlimit="10"/>
<path d="M2416.3 -623.691L1488.86 -159.182C1482.88 -156.186 1468.86 -149.401 1462.75 -146.686C1406.08 -121.539 1332.96 -97.8055 1266.12 -87.1598C1247.02 -84.1157 1228.58 -82.3764 1211.32 -81.2409C1209.8 -81.1426 1208.32 -81 1206.83 -80.8944C1134.25 -75.4323 1078.11 -82.7505 1032.23 -102.639C1028.77 -104.141 1025.31 -105.673 1021.81 -107.216C1000.21 -116.644 977.834 -128.675 949.885 -135.91C926.79 -141.893 877.765 -158.026 842.237 -139.214C842.157 -139.174 842.631 -139.411 842.554 -139.363C806.98 -120.579 790.359 -71.5882 781.616 -48.448C769.435 -16.2297 766.274 13.3222 760.231 41.2958C756.251 59.7207 750.07 78.3522 741.886 96.8683C721.498 143.005 687.966 185.764 639.006 230.878C637.828 231.966 636.642 233.059 635.435 234.132C576.53 286.903 499.685 335.005 420.847 375.153C393.133 389.267 365.554 403.426 338.113 417.17C332.74 419.861 327.366 422.553 321.992 425.244C269.221 451.675 216.459 478.101 163.688 504.531L59.1115 556.908C31.1702 570.903 3.23778 584.893 -24.7035 598.887C-87.8196 630.499 -150.927 662.106 -214.043 693.718C-221.545 697.475 -229.055 701.237 -236.557 704.994C-282.774 728.142 -328.991 751.29 -375.208 774.438C-400.673 787.192 -426.129 799.942 -451.593 812.696C-460.749 817.281 -469.914 821.872 -479.07 826.457C-486.75 830.304 -494.431 834.151 -502.102 837.993" stroke="#4A8000" stroke-width="1.66" stroke-miterlimit="10"/>
<path d="M2425.07 -606.079L1494.16 -139.834C1487.97 -136.73 1474.29 -130.115 1467.95 -127.304C1410.47 -101.833 1337.32 -78.6161 1270.08 -69.14C1250.84 -66.4266 1232.24 -65.0542 1214.77 -64.3542C1213.25 -64.2929 1211.74 -64.1992 1210.24 -64.1261C1136.85 -60.6182 1079.36 -70.9481 1033.12 -93.9796C1029.64 -95.7135 1026.15 -97.4888 1022.62 -99.2706C1000.89 -110.136 978.523 -123.435 950.475 -132.004C927.573 -139.01 877.88 -156.721 842.282 -137.894C842.202 -137.854 842.712 -138.109 842.631 -138.069C806.999 -119.266 791.22 -68.8859 783.374 -45.3609C772.319 -12.2111 770.341 18.1624 765.521 47.1922C762.356 66.3075 756.896 85.7076 749.355 105.041C730.557 153.189 698.072 198.395 649.712 244.999C648.542 246.124 647.372 247.249 646.185 248.363C588.027 302.825 511.179 351.346 432.133 391.547C404.348 405.677 376.698 419.851 349.159 433.644L332.994 441.74C280.088 468.238 227.183 494.736 174.278 521.233C139.327 538.739 104.384 556.24 69.4332 573.745C41.4204 587.775 13.4165 601.801 -14.5964 615.831C-77.8734 647.524 -141.15 679.216 -204.428 710.909L-227.004 722.216C-273.338 745.422 -319.68 768.633 -366.013 791.839C-391.541 804.624 -417.068 817.41 -442.604 830.2C-451.786 834.799 -460.969 839.398 -470.152 843.997C-477.85 847.853 -485.549 851.708 -493.247 855.564" stroke="#4C8500" stroke-width="1.68" stroke-miterlimit="10"/>
<path d="M2433.83 -588.472L1499.46 -120.488C1493.04 -117.273 1479.71 -110.84 1473.15 -107.93C1414.86 -82.1261 1341.69 -59.4474 1274.02 -51.1241C1254.66 -48.7413 1235.89 -47.7357 1218.22 -47.4713C1216.68 -47.4507 1215.15 -47.3895 1213.63 -47.3616C1139.43 -45.6753 1080.62 -59.1619 1034.01 -85.3369C1030.49 -87.3099 1026.98 -89.3163 1023.43 -91.3292C1001.55 -103.644 979.178 -118.197 951.055 -128.103C928.331 -136.113 877.981 -155.428 842.325 -136.583C842.254 -136.547 842.781 -136.811 842.71 -136.775C807.007 -117.957 792.087 -66.1964 785.142 -42.2784C775.244 -8.20244 774.41 23.0024 770.818 53.076C768.455 72.8779 763.741 93.0539 756.828 113.192C739.619 163.353 708.189 211 660.416 259.112C659.262 260.269 658.113 261.435 656.933 262.586C599.521 318.739 522.667 367.671 443.407 407.938C415.556 422.091 387.823 436.276 360.203 450.109C354.803 452.814 349.402 455.519 344.002 458.224C290.953 484.793 237.914 511.358 184.866 537.927L79.7437 590.578C51.6593 604.644 23.575 618.71 -4.50943 632.776C-67.9564 664.554 -131.394 696.327 -194.841 728.104C-202.388 731.884 -209.934 735.663 -217.48 739.443C-263.939 762.712 -310.398 785.981 -356.856 809.25C-382.455 822.071 -408.045 834.887 -433.643 847.709C-442.853 852.321 -452.062 856.934 -461.263 861.542C-468.979 865.407 -476.704 869.276 -484.421 873.14" stroke="#4F8A00" stroke-width="1.71" stroke-miterlimit="10"/>
<path d="M2442.6 -570.856L1504.76 -101.135C1498.11 -97.8077 1485.13 -91.5498 1478.34 -88.5441C1419.24 -62.4153 1346.04 -40.2617 1277.97 -33.0999C1258.47 -31.0433 1239.55 -30.409 1221.66 -30.5757C1220.1 -30.5877 1218.56 -30.5715 1217.02 -30.5798C1142 -30.8559 1081.85 -47.346 1034.88 -76.6689C1031.34 -78.8811 1027.8 -81.1185 1024.23 -83.3668C1002.21 -97.1262 979.818 -112.922 951.629 -124.188C929.075 -133.2 878.089 -154.118 842.362 -135.258C842.3 -135.227 842.854 -135.504 842.791 -135.473C807.026 -116.645 792.97 -63.4949 786.91 -39.1957C778.183 -4.2107 778.418 27.8324 776.126 58.9635C774.535 79.4574 770.586 100.4 764.321 121.343C748.701 173.515 718.318 223.61 671.141 273.223C670.008 274.422 668.861 275.617 667.698 276.8C611.029 334.637 534.175 383.995 454.708 424.315C426.795 438.478 398.982 452.684 371.273 466.562C365.855 469.275 360.445 471.985 355.027 474.698L195.48 554.608C160.349 572.203 125.219 589.798 90.0894 607.393C61.9334 621.495 33.7775 635.597 5.62158 649.699C-57.9863 681.557 -121.594 713.415 -185.202 745.273C-192.766 749.061 -200.331 752.85 -207.895 756.639C-254.47 779.966 -301.053 803.297 -347.628 826.624C-373.29 839.477 -398.951 852.329 -424.612 865.182C-433.84 869.803 -443.076 874.429 -452.303 879.051C-460.037 882.925 -467.78 886.803 -475.515 890.676" stroke="#528F00" stroke-width="1.73" stroke-miterlimit="10"/>
<path d="M2451.37 -553.253L1510.06 -81.7943C1503.19 -78.3551 1490.56 -72.2799 1483.53 -69.1786C1423.62 -42.7252 1350.4 -21.0968 1281.92 -15.0921C1262.28 -13.3661 1243.21 -13.1032 1225.1 -13.7009C1223.52 -13.7536 1221.97 -13.7781 1220.41 -13.8316C1144.58 -16.0744 1083.09 -35.5555 1035.76 -68.0298C1032.18 -70.4731 1028.62 -72.9623 1025.02 -75.4336C1002.87 -90.6378 980.447 -107.672 952.213 -120.299C929.807 -130.31 878.198 -152.83 842.401 -133.955C842.338 -133.923 842.92 -134.214 842.866 -134.188C807.043 -115.34 793.86 -60.827 788.675 -36.1214C781.141 -0.228124 782.496 32.668 781.423 64.8472C780.647 86.0315 777.431 107.746 771.794 129.494C757.763 183.679 728.435 236.216 681.854 287.332C680.728 288.567 679.598 289.794 678.455 291.018C622.532 350.547 545.676 400.323 466.001 440.697C438.017 454.875 410.124 469.1 382.326 483.023C376.898 485.741 371.471 488.459 366.035 491.182C312.718 517.886 259.393 544.594 206.076 571.298C170.857 588.937 135.628 606.582 100.409 624.221C72.1815 638.359 43.945 652.501 15.7176 666.639L-175.607 762.464C-183.189 766.262 -190.78 770.064 -198.362 773.861L-338.462 844.03C-364.195 856.919 -389.919 869.803 -415.652 882.691L-443.414 896.596C-451.175 900.483 -458.927 904.366 -466.688 908.253" stroke="#559300" stroke-width="1.76" stroke-miterlimit="10"/>
<path d="M2460.14 -535.645L1515.35 -62.4492C1508.26 -58.8979 1495.97 -52.9975 1488.72 -49.8005C1428 -23.0144 1354.75 -1.92365 1285.86 2.92396C1266.08 4.31559 1246.85 4.21981 1228.54 3.18646C1226.95 3.09682 1225.37 3.03156 1223.79 2.93744C1147.16 -1.26777 1084.4 -23.8422 1036.63 -59.3826C1033.03 -62.0776 1029.44 -64.7853 1025.82 -67.4921C1003.54 -84.1455 981.056 -102.412 952.791 -116.397C930.533 -127.408 878.301 -151.529 842.442 -132.643C842.389 -132.616 842.997 -132.92 842.943 -132.894C807.05 -114.031 794.757 -58.1633 790.428 -33.0424C784.101 3.742 786.559 37.5001 786.705 70.7274C786.736 92.6066 784.249 115.086 779.255 137.65C766.814 193.847 738.533 248.83 692.544 301.441C691.434 302.709 690.324 303.976 689.189 305.237C634.008 366.449 557.153 416.653 477.265 457.092C449.215 471.294 421.247 485.525 393.359 499.493L377.032 507.67C323.573 534.445 270.113 561.221 216.654 587.996C181.336 605.685 146.027 623.37 110.709 641.059C82.41 655.232 54.1021 669.41 25.8031 683.584C-38.1356 715.608 -102.074 747.631 -166.013 779.655C-173.613 783.462 -181.222 787.273 -188.822 791.079C-235.638 814.527 -282.463 837.98 -329.28 861.428C-355.075 874.347 -380.871 887.267 -406.666 900.187C-415.947 904.835 -425.228 909.483 -434.5 914.127C-442.279 918.023 -450.058 921.919 -457.837 925.816" stroke="#579800" stroke-width="1.78" stroke-miterlimit="10"/>
<path d="M2468.9 -518.029L1520.65 -43.0955C1513.35 -39.4368 1501.39 -33.7147 1493.91 -30.4138C1432.4 -3.30774 1359.11 17.2624 1289.81 20.961C1269.89 22.022 1250.5 21.5594 1231.98 20.0823C1230.37 19.952 1228.78 19.8461 1227.19 19.715C1149.75 13.5429 1085.65 -12.0224 1037.52 -50.7188C1033.9 -53.6493 1030.27 -56.5917 1026.63 -59.5422C1004.2 -77.6405 981.655 -97.1347 953.376 -112.486C931.244 -124.497 878.416 -150.232 842.49 -131.323C842.446 -131.3 843.08 -131.618 843.027 -131.591C807.076 -112.71 795.665 -55.4832 792.202 -29.9514C787.091 7.71971 790.634 42.3485 792.01 76.6277C792.857 99.1972 791.1 122.44 786.746 145.814C775.894 204.022 748.668 261.448 703.266 315.565C702.173 316.866 701.07 318.171 699.951 319.464C645.508 382.372 568.655 432.981 488.563 473.482C460.442 487.699 432.39 501.942 404.422 515.95C398.968 518.682 393.505 521.418 388.051 524.15C334.457 550.992 280.854 577.839 227.26 604.681C191.853 622.415 156.446 640.149 121.048 657.878C92.6682 672.092 64.2977 686.302 35.9183 700.516C-28.1814 732.62 -92.2899 764.729 -156.39 796.833C-164.016 800.653 -171.634 804.469 -179.261 808.289L-320.086 878.821C-345.944 891.772 -371.811 904.727 -397.669 917.678C-406.967 922.335 -416.275 926.997 -425.574 931.655C-433.371 935.56 -441.168 939.465 -448.973 943.374" stroke="#5A9D00" stroke-width="1.8" stroke-miterlimit="10"/>
<path d="M2477.67 -500.426L1525.95 -23.7548C1518.42 -19.9842 1506.81 -14.4322 1499.11 -11.0446C1436.79 16.386 1363.48 36.4182 1293.77 38.9679C1273.72 39.6982 1254.17 38.8688 1235.43 36.9606C1233.81 36.7978 1232.2 36.6467 1230.58 36.4794C1152.33 28.345 1086.89 -0.211106 1038.39 -42.0636C1034.75 -45.2333 1031.1 -48.4111 1027.43 -51.5881C1004.85 -71.1312 982.231 -91.8491 953.947 -108.572C931.928 -121.585 878.513 -148.918 842.516 -129.994C842.472 -129.971 843.133 -130.303 843.097 -130.285C807.076 -111.389 796.57 -52.8243 793.963 -26.8563C790.081 11.6843 794.708 47.2048 797.303 82.5321C798.956 105.797 797.933 129.812 794.215 153.986C784.952 214.207 758.782 274.075 713.975 329.694C712.893 331.04 711.807 332.377 710.704 333.703C656.995 398.299 580.152 449.33 499.842 489.889C471.651 504.121 443.528 518.379 415.462 532.436C409.99 535.177 404.518 537.918 399.046 540.658L237.844 621.396C202.348 639.175 166.851 656.953 131.354 674.732L46.0105 717.477C-18.259 749.666 -82.5285 781.856 -146.798 814.045L-169.732 825.532C-216.799 849.105 -263.857 872.674 -310.923 896.247L-388.712 935.208C-398.038 939.879 -407.363 944.55 -416.698 949.225C-424.512 953.139 -432.336 957.057 -440.151 960.971" stroke="#5DA200" stroke-width="1.83" stroke-miterlimit="10"/>
<path d="M2486.44 -482.81L1531.25 -4.4014C1523.5 -0.518775 1512.23 4.8586 1504.3 8.34184C1441.17 36.1052 1367.84 55.4878 1297.71 56.9967C1277.53 57.3594 1257.82 56.2001 1238.87 53.8563C1237.23 53.6528 1235.6 53.4611 1233.97 53.2487C1154.9 43.1519 1088.13 11.613 1039.27 -33.4162C1035.6 -36.817 1031.92 -40.234 1028.23 -43.6465C1005.53 -64.6308 982.798 -86.5876 954.527 -104.67C932.621 -118.686 878.617 -147.617 842.559 -128.682C842.523 -128.664 843.211 -129.009 843.176 -128.991C807.096 -110.076 797.491 -50.1821 795.727 -23.7817C793.093 15.6196 798.782 52.0325 802.595 88.4079C805.06 112.355 804.761 137.146 801.683 162.129C794.014 224.37 768.885 286.677 724.675 343.799C723.609 345.177 722.531 346.551 721.448 347.918C668.472 414.201 591.631 465.66 511.122 506.268C482.863 520.523 454.657 534.792 426.51 548.89C421.02 551.639 415.539 554.384 410.049 557.134L248.428 638.082C212.842 655.906 177.256 673.729 141.67 691.552L56.1021 734.409C-8.32833 766.679 -72.7677 798.954 -137.198 831.224C-144.861 835.062 -152.523 838.899 -160.186 842.737C-207.369 866.369 -254.552 890 -301.735 913.632L-379.738 952.7C-389.09 957.384 -398.443 962.069 -407.795 966.753C-415.637 970.68 -423.469 974.603 -431.311 978.531" stroke="#60A600" stroke-width="1.85" stroke-miterlimit="10"/>
<path d="M2495.22 -465.207L1536.56 14.9394C1528.58 18.9339 1517.67 24.1447 1509.5 27.7155C1445.6 55.9136 1372.2 74.6691 1301.66 75.0128C1281.34 75.0529 1261.46 73.5231 1242.31 70.7438C1240.66 70.5033 1239.01 70.2709 1237.36 70.0178C1157.48 57.9542 1089.37 23.4245 1040.15 -24.7608C1036.45 -28.4007 1032.74 -32.0487 1029.03 -35.6968C1006.19 -58.1258 983.36 -81.3135 955.111 -100.76C933.295 -115.778 878.731 -146.32 842.606 -127.362C842.579 -127.348 843.294 -127.707 843.259 -127.689C807.108 -108.759 798.422 -47.5445 797.491 -20.6864C796.105 19.5547 802.855 56.8808 807.891 94.3126C811.171 118.95 811.606 144.514 809.159 170.31C803.079 234.563 779.006 299.312 735.383 357.94C734.333 359.351 733.271 360.758 732.196 362.162C679.821 430.047 603.122 482.013 522.396 522.679C494.067 536.949 465.781 551.238 437.554 565.376C432.055 568.13 426.556 570.884 421.057 573.638C367.043 600.691 313.038 627.74 259.024 654.793C223.349 672.661 187.664 690.533 151.989 708.402C123.395 722.723 94.8008 737.044 66.2068 751.366C1.60641 783.721 -62.994 816.076 -127.594 848.431C-135.275 852.278 -142.964 856.129 -150.645 859.976C-197.953 883.67 -245.252 907.36 -292.56 931.055C-318.624 944.109 -344.687 957.163 -370.742 970.212C-380.121 974.91 -389.492 979.603 -398.871 984.301C-406.73 988.237 -414.59 992.173 -422.449 996.11" stroke="#62AB00" stroke-width="1.88" stroke-miterlimit="10"/>
<path d="M2503.98 -447.591L1541.85 34.2926C1533.66 38.3946 1523.08 43.4271 1514.69 47.1018C1449.98 75.6081 1376.57 93.8665 1305.61 93.0368C1285.15 92.7507 1265.12 90.8496 1245.76 87.6348C1244.09 87.3536 1242.42 87.0805 1240.76 86.7904C1160.07 72.7644 1090.61 35.2438 1041.03 -16.0974C1037.3 -19.9765 1033.57 -23.8601 1029.84 -27.7391C1006.86 -51.613 983.911 -76.0352 955.691 -96.85C933.963 -112.878 878.837 -145.011 842.645 -126.029C842.618 -126.016 843.36 -126.388 843.343 -126.379C807.135 -107.43 799.349 -44.9072 799.265 -17.5878C799.136 23.4888 806.93 61.737 813.197 100.221C817.284 125.552 818.447 151.88 816.649 178.481C812.159 244.746 789.133 311.942 746.11 372.06C745.068 373.508 744.026 374.956 742.967 376.392C691.347 445.984 614.637 498.353 533.703 539.073C505.307 553.366 476.947 567.662 448.621 581.849C443.104 584.612 437.596 587.371 432.079 590.134C377.931 617.254 323.783 644.374 269.635 671.494L162.323 725.242C133.657 739.599 104.983 753.961 76.3171 768.318C11.5558 800.754 -53.2145 833.194 -117.976 865.63C-125.674 869.485 -133.381 873.346 -141.08 877.201C-188.504 900.954 -235.928 924.706 -283.353 948.459C-309.479 961.544 -335.614 974.634 -361.74 987.72L-389.941 1001.84C-397.818 1005.79 -405.695 1009.73 -413.582 1013.68" stroke="#65B000" stroke-width="1.9" stroke-miterlimit="10"/>
<path d="M2512.74 -429.984L1547.14 53.638C1538.73 57.852 1528.5 62.7099 1519.88 66.4802C1454.35 95.2903 1380.92 113.052 1309.54 111.057C1288.96 110.441 1268.75 108.177 1249.2 104.522C1247.51 104.209 1245.83 103.89 1244.14 103.564C1162.64 87.5713 1091.84 47.0599 1041.9 -7.44552C1038.14 -11.5556 1034.38 -15.6784 1030.63 -19.8011C1007.51 -45.1242 984.433 -70.772 956.257 -92.9515C934.603 -109.993 878.927 -143.713 842.674 -124.721C842.656 -124.712 843.425 -125.097 843.407 -125.088C807.128 -106.125 800.267 -42.2939 801.015 -14.5168C802.144 27.3952 810.994 66.5692 818.476 106.093C823.378 132.115 825.275 159.215 824.104 186.621C821.203 254.898 799.232 324.536 756.796 386.161C755.774 387.65 754.736 389.126 753.697 390.603C702.831 461.903 626.107 514.667 544.959 555.452C516.493 569.76 488.053 584.076 459.646 598.303C454.121 601.071 448.586 603.843 443.061 606.61C388.769 633.802 334.487 660.989 280.196 688.181C244.333 706.143 208.47 724.105 172.615 742.063C143.878 756.456 115.132 770.854 86.3951 785.247C21.4639 817.767 -43.4673 850.288 -108.398 882.809L-131.565 894.412C-179.115 918.227 -226.655 942.038 -274.205 965.853C-300.402 978.975 -326.591 992.091 -352.789 1005.21C-362.213 1009.93 -371.637 1014.65 -381.061 1019.37C-388.956 1023.33 -396.86 1027.29 -404.755 1031.24" stroke="#68B500" stroke-width="1.93" stroke-miterlimit="10"/>
<path d="M2521.52 -412.372L1552.45 72.9866C1543.82 77.3126 1533.93 81.9878 1525.09 85.8574C1458.74 114.968 1385.3 132.245 1313.51 129.072C1292.78 128.13 1272.42 125.528 1252.66 121.409C1250.95 121.063 1249.25 120.704 1247.55 120.332C1165.24 102.377 1093.1 58.8829 1042.8 1.20883C1039.01 -3.14046 1035.24 -7.49869 1031.45 -11.848C1008.19 -38.6159 984.978 -65.51 956.854 -89.038C935.273 -107.093 879.058 -142.405 842.734 -123.398C842.725 -123.393 843.512 -123.787 843.503 -123.783C807.162 -104.808 801.211 -39.6736 802.801 -11.4225C805.196 31.2996 815.089 71.4165 823.793 111.996C829.511 138.709 832.128 166.578 831.597 194.792C830.286 265.081 809.365 337.174 767.521 400.294C766.516 401.815 765.498 403.332 764.462 404.837C714.351 477.846 637.615 531.011 556.26 571.85C527.723 586.173 499.212 600.504 470.716 614.776C465.173 617.552 459.629 620.329 454.094 623.101C399.669 650.36 345.244 677.619 290.819 704.878L182.961 758.899C154.143 773.332 125.335 787.761 96.5171 802.194C31.4249 834.796 -33.6761 867.402 -98.7683 900.003C-106.511 903.881 -114.254 907.759 -121.998 911.637C-169.663 935.511 -217.329 959.384 -264.995 983.258C-291.255 996.41 -317.515 1009.56 -343.776 1022.72C-353.227 1027.45 -362.668 1032.18 -372.119 1036.91C-380.041 1040.88 -387.954 1044.84 -395.876 1048.81" stroke="#6BB900" stroke-width="1.95" stroke-miterlimit="10"/>
<path d="M2530.28 -394.765L1557.75 92.332C1548.89 96.77 1539.35 101.262 1530.27 105.228C1463.11 134.646 1389.65 151.423 1317.44 147.085C1296.59 145.82 1276.06 142.827 1256.09 138.288C1254.36 137.901 1252.65 137.497 1250.93 137.085C1167.81 117.163 1094.33 70.6826 1043.66 9.85254C1039.84 5.26408 1036.04 0.674791 1032.24 -3.91002C1008.85 -32.1272 985.484 -60.2586 957.42 -85.1396C935.906 -104.225 879.146 -141.115 842.755 -122.085C842.755 -122.085 843.569 -122.493 843.56 -122.488C807.153 -103.49 802.121 -37.0766 804.535 -8.34268C808.193 35.1815 819.123 76.254 829.059 117.886C835.583 145.293 838.939 173.921 839.052 202.953C839.33 275.254 819.465 349.789 778.217 414.411C777.219 415.969 776.217 417.519 775.202 419.065C725.845 493.781 649.099 547.349 567.539 588.249C538.935 602.595 510.341 616.937 481.755 631.254C476.203 634.035 470.642 636.821 465.089 639.602L301.402 721.585C265.36 739.636 229.318 757.688 193.267 775.744L106.6 819.152C41.3376 851.838 -23.9244 884.525 -89.1774 917.207C-96.9384 921.094 -104.699 924.981 -112.46 928.868L-255.824 1000.67C-282.156 1013.86 -308.479 1027.04 -334.811 1040.23C-344.28 1044.98 -353.757 1049.72 -363.226 1054.46C-371.166 1058.44 -379.106 1062.42 -387.045 1066.39" stroke="#6DBE00" stroke-width="1.98" stroke-miterlimit="10"/>
<path d="M2539.04 -377.157L1563.04 111.677C1487.59 149.465 1403.94 171.367 1321.39 165.101C1210.9 156.716 1108.83 99.1293 1044.53 18.4999C1017.03 -15.9893 990.533 -50.7527 958.005 -81.242C936.551 -101.345 879.578 -139.196 842.803 -120.778L843.652 -121.203C806.877 -102.784 803.067 -34.4895 806.317 -5.26892C811.247 39.0528 823.215 81.0807 834.369 123.761C860.432 223.539 845.409 339.764 785.959 433.271C737.358 509.694 660.6 563.665 578.824 604.623L-354.318 1071.99C-362.276 1075.97 -370.234 1079.96 -378.2 1083.95" stroke="#70C300" stroke-width="2" stroke-miterlimit="10"/>
</g>
</svg>
