<svg width="42" height="45" viewBox="0 0 42 45" fill="none" xmlns="http://www.w3.org/2000/svg">
<g opacity="0.7">
<path d="M40.545 34.1014L33.014 16.543C32.5129 15.3916 31.3332 14.5418 29.8948 14.3362L27.3897 13.9661C27.0342 13.3904 26.517 12.8832 25.8221 12.5543L20.5858 10.0185V6.11206C20.5858 3.85045 18.4039 2 15.7373 2H14.1211C11.4545 2 9.27269 3.85045 9.27269 6.11206V10.0185L4.03635 12.5543C2.77575 13.1574 2 14.2951 2 15.5286V39.694C2 41.5855 3.81009 43.1207 6.04038 43.1207H23.8181C24.9978 43.1207 26.0645 42.6821 26.8079 41.983L38.137 38.4877C39.1552 38.1725 39.9633 37.542 40.4158 36.7196C40.8683 35.8971 40.9167 34.9649 40.545 34.1014ZM12.5046 6.11213C12.5046 5.35823 13.2318 4.74144 14.1207 4.74144H15.7369C16.6258 4.74144 17.353 5.35823 17.353 6.11213V8.4423L16.9328 8.2367C15.6884 7.63359 14.1692 7.64728 12.9248 8.2367L12.5046 8.4423V6.0984V6.11213ZM5.63606 14.9394L9.27238 13.1849V14.3499C9.27238 16.6116 11.4542 18.462 14.1208 18.462H15.737C16.6259 18.462 17.3531 17.8452 17.3531 17.0913C17.3531 16.3374 16.6259 15.7206 15.737 15.7206H14.1208C13.2319 15.7206 12.5047 15.1038 12.5047 14.3499V11.6223L14.5248 10.649C14.6541 10.5942 14.7834 10.5531 14.9289 10.5531C15.0743 10.5531 15.2036 10.5805 15.3329 10.649L24.222 14.953C24.4806 15.0764 24.6261 15.2957 24.6261 15.5424V34.9101H5.23223V15.5284C5.23223 15.2817 5.39364 15.0627 5.63606 14.9394ZM23.8177 40.3793H6.03997C5.58745 40.3793 5.23189 40.0778 5.23189 39.694V37.638H24.6257V39.694C24.6257 40.0778 24.2702 40.3793 23.8177 40.3793ZM37.474 35.5545C37.4255 35.6505 37.2962 35.8287 37.0215 35.9109L27.8578 38.7345V33.5535L32.5284 32.0184C33.3688 31.7442 33.7728 30.9492 33.4496 30.2502C33.1264 29.5512 32.189 29.1948 31.3648 29.4689L27.8578 30.6203V16.8174L29.3446 17.0367C29.6355 17.0778 29.8618 17.2423 29.9588 17.4753L37.4898 35.0337C37.5868 35.2667 37.5221 35.4586 37.4575 35.5546L37.474 35.5545Z" fill="url(#paint0_linear_1791_82)"/>
<path d="M9.65154 31.7336H20.9662C21.8552 31.7336 22.5826 31.1086 22.5826 30.3447C22.5826 29.5808 21.8552 28.9558 20.9662 28.9558H9.65154C8.7625 28.9558 8.03516 29.5808 8.03516 30.3447C8.03516 31.1086 8.7625 31.7336 9.65154 31.7336Z" fill="url(#paint1_linear_1791_82)"/>
<path d="M9.65154 26.1782H17.7334C18.6225 26.1782 19.3498 25.5532 19.3498 24.7893C19.3498 24.0254 18.6225 23.4004 17.7334 23.4004H9.65154C8.7625 23.4004 8.03516 24.0254 8.03516 24.7893C8.03516 25.5532 8.7625 26.1782 9.65154 26.1782Z" fill="url(#paint2_linear_1791_82)"/>
</g>
<defs>
<linearGradient id="paint0_linear_1791_82" x1="21.3966" y1="2" x2="21.3966" y2="43.1207" gradientUnits="userSpaceOnUse">
<stop stop-color="#A2FF00"/>
<stop offset="0.985577" stop-color="#639B01"/>
</linearGradient>
<linearGradient id="paint1_linear_1791_82" x1="15.3089" y1="28.9558" x2="15.3089" y2="31.7336" gradientUnits="userSpaceOnUse">
<stop stop-color="#A2FF00"/>
<stop offset="1" stop-color="#639B01"/>
</linearGradient>
<linearGradient id="paint2_linear_1791_82" x1="13.6925" y1="23.4004" x2="13.6925" y2="26.1782" gradientUnits="userSpaceOnUse">
<stop stop-color="#A2FF00"/>
<stop offset="1" stop-color="#639B01"/>
</linearGradient>
</defs>
</svg>
