<svg width="18" height="18" viewBox="0 0 18 18" fill="none" xmlns="http://www.w3.org/2000/svg">
<rect x="0.293116" y="0.315577" width="16.8722" height="16.8722" rx="8.43609" stroke="url(#paint0_linear_1791_166)" stroke-width="0.992481"/>
<path d="M9.03168 1.80432C8.93832 1.80432 8.84194 1.80895 8.74316 1.81648C6.19706 2.00925 6.87229 4.59928 6.83374 5.46243C6.78736 6.09517 6.65303 6.59361 6.20068 7.2113C5.6676 7.81973 4.9195 8.80329 4.56472 9.82854C4.39727 10.3102 4.31776 10.8034 4.39185 11.2694C4.36835 11.2891 4.34607 11.3088 4.32499 11.3476C4.16838 11.5027 4.05453 11.6955 3.92624 11.8333C3.80637 11.9485 3.6341 11.9879 3.44617 12.0649C3.25764 12.1436 3.04983 12.2206 2.92575 12.4591C2.87154 12.5679 2.84383 12.6866 2.84624 12.807C2.84624 12.9222 2.8625 13.0392 2.87937 13.1173C2.9143 13.3483 2.94924 13.5393 2.90286 13.6788C2.75348 14.0725 2.73481 14.3423 2.83961 14.5385C2.94442 14.7319 3.16187 14.81 3.40521 14.8864C3.89371 15.0022 4.55568 14.9646 5.07671 15.2332C5.63448 15.5036 6.20068 15.6216 6.65243 15.5053C6.96926 15.4387 7.2367 15.2373 7.38006 14.9582C7.73363 14.9565 8.12094 14.8025 8.74135 14.7649C9.16239 14.7313 9.68944 14.9194 10.2942 14.8801C10.3092 14.9582 10.3321 14.9953 10.3629 15.0734L10.3647 15.0752C10.6002 15.5255 11.0351 15.7305 11.4995 15.6952C11.9639 15.6604 12.4584 15.3849 12.859 14.9391C13.239 14.4963 13.8727 14.3116 14.2913 14.069C14.5009 13.9538 14.6702 13.7975 14.6822 13.5752C14.6961 13.3437 14.5624 13.1051 14.2522 12.7781V12.7219L14.2504 12.7202C14.148 12.6044 14.0998 12.4105 14.0468 12.1841C13.9956 11.952 13.9371 11.7291 13.7504 11.5786H13.7486C13.7131 11.5473 13.6745 11.5398 13.6354 11.5004C13.6016 11.4784 13.5625 11.4645 13.5209 11.4634C13.7805 10.7235 13.68 9.98714 13.4167 9.32488C13.0957 8.50863 12.5343 7.79773 12.1066 7.30856C11.6272 6.72676 11.1573 6.17564 11.1664 5.35822C11.1826 4.11242 11.3091 1.80779 9.03168 1.80432ZM9.35032 3.7755H9.35815C9.48645 3.7755 9.59667 3.81139 9.70991 3.89012C9.82496 3.96827 9.90869 4.08231 9.97434 4.19867C10.0376 4.34861 10.0695 4.46439 10.0743 4.6178C10.0743 4.60622 10.0779 4.59464 10.0779 4.58364V4.64385C10.0767 4.6398 10.0755 4.63517 10.0755 4.63169L10.0743 4.6178C10.0731 4.75847 10.0412 4.89741 9.98278 5.02651C9.95447 5.09886 9.9111 5.16544 9.85448 5.22044C9.83701 5.21118 9.82014 5.20307 9.80147 5.19613C9.73822 5.17007 9.6816 5.15907 9.6298 5.11914C9.58704 5.10293 9.54246 5.08961 9.49789 5.08093C9.5274 5.04677 9.58523 5.00393 9.60752 4.96631C9.63944 4.8922 9.65691 4.81348 9.66052 4.73359V4.72259C9.66173 4.64443 9.64968 4.5657 9.62378 4.49103C9.59667 4.41287 9.56294 4.37467 9.51355 4.29767C9.46295 4.25946 9.41296 4.22125 9.35273 4.22125H9.34309C9.28707 4.22125 9.23707 4.23862 9.18527 4.29767C9.12805 4.35209 9.08529 4.4175 9.06179 4.49103C9.02987 4.56454 9.0112 4.64386 9.00758 4.72259V4.73359C9.00879 4.78511 9.0124 4.83721 9.01963 4.88815C8.90338 4.84936 8.75581 4.81001 8.65401 4.77122C8.64799 4.73358 8.64437 4.69479 8.64317 4.65602V4.64444C8.63835 4.49161 8.66907 4.33993 8.73352 4.19926C8.78291 4.07248 8.87326 3.96422 8.99252 3.8907C9.09553 3.81602 9.22081 3.7755 9.35032 3.7755ZM7.56618 3.80965H7.58787C7.6734 3.80965 7.7505 3.83744 7.8282 3.88781C7.91614 3.96248 7.98722 4.05454 8.03541 4.157C8.08962 4.2722 8.12034 4.38914 8.12756 4.54313V4.54545C8.13178 4.62303 8.13118 4.66181 8.12636 4.69944V4.74575C8.10829 4.74981 8.09263 4.75618 8.07637 4.75965C7.98481 4.79149 7.91132 4.8378 7.83965 4.87543C7.84687 4.8239 7.84748 4.77181 7.84145 4.72086V4.71217C7.83422 4.63519 7.81796 4.59698 7.79206 4.5194C7.77339 4.46035 7.73905 4.40767 7.69207 4.36483C7.66256 4.33878 7.6228 4.32546 7.58184 4.32778H7.56919C7.52643 4.33125 7.49089 4.35152 7.45716 4.40419C7.41861 4.44877 7.39391 4.50318 7.38488 4.56049C7.36862 4.62302 7.3638 4.68727 7.37102 4.75211V4.76022C7.37825 4.83836 7.39331 4.87658 7.41981 4.95357C7.44692 5.03114 7.47824 5.06935 7.5192 5.10872C7.52583 5.11393 7.53185 5.11914 7.53968 5.12261C7.49752 5.15561 7.46921 5.16314 7.43367 5.20134C7.41138 5.21755 7.38548 5.23607 7.35476 5.24071C7.29212 5.16834 7.2367 5.09019 7.18912 5.00799C7.13129 4.88642 7.10118 4.75442 7.09576 4.62186C7.08552 4.49102 7.10238 4.36019 7.14394 4.23515C7.17707 4.12111 7.2355 4.01574 7.3144 3.92543C7.3915 3.84844 7.47101 3.80965 7.56618 3.80965ZM8.39199 4.79727C8.59137 4.79727 8.83291 4.8349 9.12384 5.02825C9.30032 5.14403 9.43886 5.18398 9.7581 5.29918H9.75991C9.91351 5.3779 10.0039 5.45317 10.0478 5.53016V5.45432C10.0918 5.53941 10.0948 5.63841 10.0575 5.7264C9.98338 5.90644 9.74666 6.09922 9.41658 6.21442C9.25515 6.29257 9.1148 6.40835 8.94976 6.48477C8.78351 6.56293 8.59558 6.65381 8.34019 6.63934C8.24864 6.64397 8.15648 6.63065 8.07034 6.60055C8.00409 6.56581 7.93903 6.52761 7.87639 6.48593C7.75893 6.40778 7.65774 6.29373 7.50776 6.21674V6.21384H7.50475C7.26381 6.07144 7.1337 5.91745 7.09154 5.80224C7.04998 5.6471 7.08853 5.53074 7.20779 5.4549C7.34271 5.37674 7.43668 5.29802 7.49872 5.26039C7.56136 5.21755 7.58486 5.20134 7.60473 5.18455L7.60594 5.18281C7.70773 5.06587 7.86856 4.9113 8.1113 4.83489C8.19503 4.81404 8.28839 4.79727 8.39199 4.79727ZM10.0779 6.03786C10.2942 6.85817 10.7989 8.04956 11.1236 8.62731C11.2959 8.93644 11.6386 9.58771 11.7874 10.3779C11.8814 10.375 11.9856 10.3883 12.0964 10.415C12.4855 9.44762 11.7675 8.4079 11.4404 8.11903C11.3073 8.00267 11.3007 7.9251 11.3664 7.9251C11.7211 8.23423 12.1885 8.83514 12.3578 9.52114C12.4355 9.83085 12.4536 10.1603 12.3705 10.4879C12.4108 10.5041 12.4518 10.5232 12.4939 10.5267C13.1156 10.8358 13.345 11.0697 13.2348 11.4165V11.3916C13.1981 11.3898 13.1625 11.3916 13.1258 11.3916H13.1168C13.2077 11.1212 13.0071 10.914 12.4753 10.683C11.9241 10.4514 11.4838 10.4885 11.4085 10.9522C11.4043 10.9771 11.4013 10.9904 11.3983 11.0304C11.3573 11.0437 11.3146 11.061 11.2724 11.0674C11.0134 11.2226 10.8736 11.4547 10.7947 11.7546C10.7164 12.0631 10.6923 12.4238 10.6713 12.8365V12.8383C10.6586 13.0316 10.5683 13.3234 10.4791 13.6204C9.5756 14.241 8.32273 14.5107 7.25719 13.8137C7.19033 13.702 7.10901 13.5972 7.01504 13.5052C6.97047 13.4328 6.91385 13.368 6.8494 13.3118C6.95903 13.3118 7.05299 13.295 7.12949 13.273C7.21683 13.2342 7.28429 13.1642 7.31862 13.0797C7.38368 12.9251 7.31862 12.6762 7.11082 12.4064C6.90301 12.1361 6.55003 11.8304 6.03383 11.5259C5.65435 11.2949 5.43992 11.0222 5.34114 10.7177C5.24175 10.4086 5.255 10.0896 5.3321 9.76543C5.47967 9.146 5.85794 8.54394 6.09948 8.16592C6.16393 8.12828 6.12177 8.24407 5.85373 8.72977C5.6152 9.16453 5.16646 10.1753 5.78024 10.9609C5.80313 10.3883 5.93564 9.82332 6.16996 9.29594C6.50968 8.5561 7.21984 7.26746 7.27585 6.24626C7.30477 6.26711 7.40656 6.32441 7.44993 6.3632C7.58124 6.4402 7.67882 6.55598 7.80531 6.63239C7.9324 6.74875 8.09263 6.82633 8.33296 6.82633C8.35645 6.82806 8.37814 6.8298 8.39982 6.8298C8.64738 6.8298 8.83893 6.75223 8.99975 6.67465C9.17443 6.59708 9.31357 6.4813 9.44549 6.44309H9.4485C9.72979 6.36495 9.95206 6.21037 10.0779 6.03786ZM11.3947 11.2237C11.417 11.5716 11.6013 11.9444 11.9259 12.0209C12.2801 12.0984 12.7897 11.8281 13.0047 11.578L13.1318 11.5728C13.3216 11.5681 13.4794 11.5786 13.642 11.7273L13.6438 11.7291C13.7691 11.8443 13.8275 12.0365 13.8793 12.2362C13.9305 12.4683 13.9721 12.6878 14.1257 12.8533C14.4184 13.1584 14.5142 13.3778 14.5088 13.5133L14.5106 13.5098V13.5202L14.5088 13.5133C14.4997 13.6649 14.3973 13.7425 14.2088 13.8577C13.8293 14.0899 13.1571 14.2699 12.7288 14.7666C12.3566 15.1933 11.903 15.426 11.5025 15.4561C11.1025 15.4868 10.7574 15.3403 10.5544 14.9362L10.5514 14.9345C10.4249 14.7023 10.4791 14.3411 10.5851 13.9561C10.6911 13.5694 10.8429 13.1775 10.864 12.8574C10.8863 12.444 10.9098 12.0845 10.9815 11.8072C11.0537 11.538 11.167 11.3458 11.3676 11.2376L11.3947 11.2249L11.3947 11.2237ZM4.88034 11.2521H4.88637C4.91829 11.2521 4.94961 11.255 4.98094 11.2602C5.20742 11.292 5.40619 11.4529 5.59713 11.6955L6.14526 12.6588L6.14707 12.6605C6.29344 12.9691 6.60123 13.2765 6.86325 13.6088C7.12467 13.955 7.32705 14.2635 7.30236 14.5177V14.5211C7.26802 14.9519 7.01384 15.1857 6.62472 15.2703C6.23621 15.3484 5.70917 15.2714 5.18212 15.0016C4.59905 14.6913 3.90636 14.7301 3.46123 14.6531C3.23897 14.6149 3.0932 14.5368 3.02574 14.421C2.95888 14.3058 2.95767 14.0731 3.09982 13.7089V13.7072L3.10103 13.7055C3.1715 13.5121 3.1191 13.2696 3.08477 13.0577C3.05164 12.8255 3.03477 12.6472 3.11067 12.5135C3.20704 12.3202 3.34919 12.2825 3.52568 12.2049C3.70337 12.1268 3.91178 12.088 4.07742 11.9334H4.07863V11.9317C4.23283 11.7766 4.34667 11.5838 4.48099 11.4466C4.59544 11.3302 4.70988 11.2521 4.88034 11.2521ZM9.1925 5.99908C8.93049 6.11544 8.62329 6.30879 8.29622 6.30879C7.96975 6.30879 7.71195 6.15422 7.52583 6.03902C7.43246 5.96145 7.35717 5.88387 7.30055 5.84509C7.20177 5.76751 7.21381 5.65173 7.25598 5.65173C7.32163 5.661 7.33368 5.72988 7.37584 5.76809C7.43367 5.8063 7.50535 5.88329 7.59329 5.96087C7.76857 6.07665 8.00288 6.23122 8.29562 6.23122C8.58775 6.23122 8.92988 6.07665 9.13769 5.96145C9.25515 5.88329 9.40573 5.76809 9.52801 5.6911C9.62197 5.61178 9.61776 5.53595 9.69606 5.53595C9.77376 5.54522 9.71654 5.61353 9.60752 5.72873C9.49849 5.80687 9.33044 5.92208 9.1925 5.99908ZM8.54077 5.08209V5.06935C8.53716 5.05835 8.5486 5.04504 8.55824 5.04041C8.60281 5.01551 8.66666 5.02477 8.71485 5.04272C8.75279 5.04272 8.81122 5.08151 8.8052 5.12088C8.80158 5.14925 8.754 5.15909 8.72388 5.15909C8.69075 5.15909 8.66847 5.1342 8.63895 5.11972C8.60763 5.1093 8.55101 5.11509 8.54077 5.08209ZM8.20888 5.08209C8.19683 5.11567 8.14082 5.11046 8.10889 5.1203C8.08058 5.13477 8.05709 5.15967 8.02517 5.15967C7.99445 5.15967 7.94626 5.14867 7.94265 5.1203C7.93722 5.08209 7.99565 5.04331 8.033 5.04331C8.08179 5.02537 8.14383 5.0161 8.189 5.04042C8.20045 5.04563 8.21069 5.05779 8.20707 5.06936V5.08152L8.20888 5.08209Z" fill="url(#paint1_linear_1791_166)"/>
<defs>
<linearGradient id="paint0_linear_1791_166" x1="8.72921" y1="-0.180664" x2="8.72921" y2="17.684" gradientUnits="userSpaceOnUse">
<stop stop-color="#A2FF00"/>
<stop offset="1" stop-color="#639B01"/>
</linearGradient>
<linearGradient id="paint1_linear_1791_166" x1="8.72833" y1="1.80432" x2="8.72833" y2="15.6991" gradientUnits="userSpaceOnUse">
<stop stop-color="#A2FF00"/>
<stop offset="1" stop-color="#639B01"/>
</linearGradient>
</defs>
</svg>
