<svg width="75" height="57" viewBox="0 0 75 57" fill="none" xmlns="http://www.w3.org/2000/svg">
<path d="M53.4227 26.9681C46.331 16.2741 43.7272 5.86066 42.672 0C38.4243 2.58412 34.172 5.16824 29.9198 7.75689C31.1379 12.8527 33.4384 20.4286 37.9352 28.7059H24.6984C24.2954 28.1402 23.8969 27.5655 23.5029 26.9681C16.4113 16.2741 13.8074 5.86066 12.7522 0C8.49999 2.58412 4.25226 5.16824 0 7.75689C1.56686 14.3281 4.93153 25.0221 12.4941 36.0329C19.9843 46.9351 28.3801 53.47 33.7192 57C37.2242 53.6556 40.7248 50.3112 44.2298 46.9622C41.7935 45.4959 38.4243 43.2331 34.7472 39.9566H45.294C51.9826 48.5371 58.9791 53.9135 63.639 56.9955C67.144 53.6511 70.6445 50.3066 74.1496 46.9577C71.7133 45.4914 68.3441 43.2286 64.6669 39.952H74.1496V28.6969H54.6182C54.2152 28.1312 53.8167 27.5564 53.4227 26.959V26.9681Z" fill="black"/>
<path d="M74.3622 0.0454102H59.957V14.4414H74.3622V0.0454102Z" fill="black"/>
</svg>
