<svg width="17" height="20" viewBox="0 0 17 20" fill="none" xmlns="http://www.w3.org/2000/svg">
<path d="M16.9231 14.6738C16.4615 15.7149 16.2391 16.1802 15.6453 17.099C14.8142 18.383 13.6418 19.9863 12.1935 19.9964C10.904 20.0083 10.5712 19.1422 8.82022 19.1575C7.07087 19.1659 6.70628 20.0134 5.41517 19.9998C3.96519 19.9863 2.85638 18.5427 2.02518 17.2604C-0.299476 13.665 -0.545321 9.44965 0.891285 7.20782C1.90811 5.61816 3.51531 4.68407 5.0255 4.68407C6.56412 4.68407 7.53078 5.54174 8.80182 5.54174C10.0361 5.54174 10.787 4.68237 12.5664 4.68237C13.9111 4.68237 15.3326 5.42625 16.3494 6.7102C13.0247 8.56141 13.5649 13.383 16.9231 14.6738ZM11.2151 3.24726C11.8623 2.40317 12.354 1.21263 12.1751 0C11.1198 0.0730294 9.88554 0.757467 9.16473 1.64401C8.51082 2.45243 7.96896 3.65147 8.17968 4.81144C9.33197 4.84881 10.5244 4.15078 11.2151 3.24726Z" fill="url(#paint0_linear_1791_150)"/>
<defs>
<linearGradient id="paint0_linear_1791_150" x1="8.46154" y1="0" x2="8.46154" y2="20" gradientUnits="userSpaceOnUse">
<stop stop-color="#A2FF00"/>
<stop offset="1" stop-color="#639B01"/>
</linearGradient>
</defs>
</svg>
