<svg width="45" height="45" viewBox="0 0 45 45" fill="none" xmlns="http://www.w3.org/2000/svg">
<g opacity="0.7">
<path d="M24.6797 31.0942C24.6109 30.7178 24.2498 30.4714 23.8734 30.5402C23.3384 30.6395 22.7901 30.6892 22.2398 30.6892C17.3387 30.6892 13.3513 26.7017 13.3513 21.7988C13.3475 20.1231 13.7908 18.5716 14.7423 16.917C15.7129 15.2318 16.9339 14.0185 18.1165 12.8454C18.4796 12.4862 18.8521 12.1155 19.2133 11.7353H25.2643C25.6254 12.1155 25.998 12.4862 26.361 12.8454C27.5418 14.0185 28.7646 15.2337 29.7352 16.917C30.0963 17.5456 30.3791 18.1455 30.5969 18.7531C30.6982 19.0359 30.9638 19.2117 31.2485 19.2117C31.3249 19.2117 31.4051 19.1983 31.4816 19.1716C31.8408 19.0436 32.028 18.6461 31.9 18.2869C31.6535 17.601 31.3383 16.9285 30.9351 16.2272C29.8727 14.3816 28.583 13.1014 27.3373 11.8633C27.257 11.783 27.1787 11.7047 27.0985 11.6263C28.0022 11.334 28.6595 10.4857 28.6595 9.4845C28.6595 8.24445 27.6506 7.23562 26.4106 7.23562H26.2711L28.625 3.16019C28.7932 2.86977 28.7282 2.50099 28.4722 2.28508C27.7748 1.69661 26.8596 1.44246 25.9597 1.58577C25.417 1.67175 24.9184 1.8953 24.5018 2.22776C23.9745 1.54376 23.151 1.11768 22.2415 1.11768C21.332 1.11768 20.5066 1.54184 19.9812 2.22776C19.5647 1.8953 19.066 1.67176 18.5233 1.58577C17.6234 1.44247 16.7063 1.69659 16.0108 2.28508C15.7548 2.50099 15.6917 2.86974 15.858 3.16019L18.2119 7.23562H18.0724C16.8324 7.23562 15.8235 8.24445 15.8235 9.4845C15.8235 10.4838 16.4789 11.334 17.3826 11.6244C17.3043 11.7028 17.2241 11.7811 17.1438 11.8614C16.4407 12.5607 15.7223 13.2714 15.0402 14.0911L13.6377 13.5103L13.4562 12.5874C13.3511 12.0563 12.883 11.6722 12.3423 11.6722H9.95972C9.41898 11.6722 8.95088 12.0563 8.84582 12.5874L8.66431 13.5103L7.11283 14.1523L6.33135 13.6287C5.88234 13.3269 5.27859 13.3861 4.89644 13.7682L3.21124 15.4534C2.8291 15.8356 2.76987 16.4393 3.07176 16.8883L3.59527 17.6698L2.95329 19.2213L2.03045 19.4028C1.4993 19.5079 1.11523 19.976 1.11523 20.5167V22.8993C1.11523 23.44 1.50119 23.9081 2.03045 24.0132L2.95329 24.1947L3.59527 25.7462L3.07176 26.5277C2.76987 26.9767 2.8291 27.5804 3.21124 27.9626L4.89644 29.6478C5.27857 30.0299 5.88233 30.0891 6.33135 29.7873L7.11283 29.2638L8.66431 29.9057L8.84582 30.8286C8.9509 31.3597 9.41903 31.7438 9.95972 31.7438H12.3423C12.8831 31.7438 13.3512 31.3597 13.4562 30.8286L13.6377 29.9057L15.193 29.2618C17.0349 31.0006 19.5149 32.0686 22.2414 32.0686C22.8738 32.0686 23.5081 32.0113 24.1272 31.8967C24.5036 31.8279 24.752 31.4648 24.6813 31.0904L24.6797 31.0942ZM17.3907 3.05337C17.6773 2.94064 17.9925 2.90434 18.3021 2.95593C18.8237 3.04 19.2746 3.34953 19.5382 3.80809C19.6796 4.05265 19.9548 4.18831 20.2356 4.14819C20.5165 4.10806 20.7439 3.90171 20.8108 3.62658C20.9712 2.96547 21.5597 2.505 22.2399 2.505C22.9201 2.505 23.5067 2.96547 23.6691 3.62658C23.736 3.90171 23.9634 4.10807 24.2443 4.14819C24.5251 4.18831 24.8002 4.05265 24.9417 3.80809C25.2053 3.34953 25.6562 3.04001 26.1778 2.95593C26.4893 2.90625 26.8026 2.94255 27.0892 3.05337L24.6722 7.23774H19.8058L17.3888 3.05337H17.3907ZM17.2053 9.48641C17.2053 9.00875 17.5932 8.6209 18.0708 8.6209H26.411C26.8887 8.6209 27.2765 9.00876 27.2765 9.48641C27.2765 9.96408 26.8886 10.3519 26.411 10.3519H18.0708C17.5932 10.3519 17.2053 9.96406 17.2053 9.48641ZM12.7649 28.7728C12.5509 28.8607 12.3962 29.0518 12.3503 29.2792L12.1363 30.3645H10.1626L9.9486 29.2792C9.90274 29.0518 9.74798 28.8627 9.53398 28.7728L7.29851 27.8462C7.08451 27.7583 6.83995 27.7812 6.64889 27.9111L5.72987 28.5283L4.33506 27.1335L4.9522 26.2144C5.08213 26.0215 5.10505 25.7788 5.01716 25.5648L4.0905 23.3293C4.00261 23.1154 3.81155 22.9606 3.58415 22.9147L2.49887 22.7007V20.727L3.58415 20.513C3.81152 20.4671 4.00068 20.3124 4.0905 20.0984L5.01716 17.8629C5.10505 17.6489 5.08212 17.4044 4.9522 17.2133L4.33506 16.2943L5.72987 14.8995L6.64889 15.5147C6.84187 15.6446 7.08453 15.6676 7.29851 15.5797L9.53398 14.653C9.74798 14.5651 9.90274 14.374 9.9486 14.1467L10.1626 13.0614H12.1363L12.3503 14.1467C12.3962 14.374 12.5509 14.5632 12.7649 14.651L14.1731 15.2338C13.9572 15.5471 13.747 15.8777 13.5445 16.2273C13.4317 16.4222 13.3286 16.6152 13.2292 16.8101C12.5758 16.533 11.8688 16.3878 11.1523 16.3878C8.21753 16.3878 5.82911 18.7761 5.82911 21.711C5.82911 24.6477 8.21743 27.0342 11.1523 27.0342C11.8516 27.0342 12.5413 26.8967 13.1814 26.633C13.4738 27.1794 13.8158 27.6972 14.1979 28.1787L12.7668 28.771L12.7649 28.7728ZM12.6083 25.3699C12.1478 25.5534 11.6529 25.6508 11.1504 25.6508C8.97799 25.6508 7.21062 23.8834 7.21062 21.711C7.21062 19.5386 8.97799 17.7712 11.1504 17.7712C11.672 17.7712 12.186 17.8763 12.6617 18.0731C12.1955 19.3017 11.9643 20.5321 11.9681 21.7989C11.9681 23.0542 12.1955 24.256 12.6082 25.368L12.6083 25.3699ZM21.5481 27.5213V26.5374C21.4908 26.5297 21.4335 26.5202 21.3781 26.5087C20.224 26.2966 19.3184 25.7311 18.8942 24.9553C18.7108 24.621 18.8331 24.1987 19.1693 24.0153C19.5037 23.8318 19.926 23.9541 20.1094 24.2904C20.6157 25.2132 22.6391 25.4654 23.6843 24.9457C24.0167 24.7795 24.2422 24.4757 24.2823 24.1318C24.3167 23.8413 24.2747 23.4993 23.6843 23.1516C23.2066 22.8707 22.6372 22.7351 22.0353 22.5918C21.7984 22.5364 21.5539 22.4771 21.3074 22.4084C20.5985 22.2116 19.7196 21.8791 19.2075 21.0575C18.6592 20.1805 18.7853 19.1144 19.5266 18.3425C19.9947 17.8552 20.7265 17.5304 21.5519 17.4177V16.449C21.5519 16.0669 21.8614 15.7573 22.2436 15.7573C22.6257 15.7573 22.9353 16.0668 22.9353 16.449V17.4234C24.0931 17.5897 25.0007 18.1342 25.4248 18.9214C25.6064 19.2577 25.4803 19.678 25.144 19.8596C24.8077 20.0411 24.3873 19.915 24.2058 19.5787C23.9937 19.1832 23.4358 18.8889 22.7136 18.7915C21.8289 18.6711 20.929 18.8813 20.5259 19.3035C20.2278 19.6131 20.1743 19.9952 20.3806 20.3277C20.587 20.6582 20.9748 20.8818 21.678 21.0786C21.8996 21.1397 22.1308 21.1952 22.3543 21.2487C23.0288 21.4091 23.7281 21.5754 24.3853 21.9613C25.5852 22.6664 25.74 23.6236 25.6579 24.3019C25.5604 25.1082 25.0522 25.8132 24.3013 26.1877C23.9058 26.3845 23.4358 26.5126 22.9352 26.568V27.5233C22.9352 27.9054 22.6256 28.215 22.2435 28.215C21.8613 28.215 21.5518 27.9054 21.5518 27.5233L21.5481 27.5213ZM42.4144 23.0179L31.9059 20.2016C30.129 19.7258 28.2948 20.7844 27.819 22.5613L23.7264 37.8388C23.2506 39.6157 24.3091 41.4499 26.086 41.9257L36.5945 44.742C36.8792 44.8184 37.1696 44.8567 37.4581 44.8567C38.037 44.8567 38.6083 44.7038 39.1242 44.4057C39.898 43.9586 40.4502 43.2402 40.6795 42.3823L44.7721 27.1048C45.2479 25.3279 44.1894 23.4937 42.4125 23.0179H42.4144ZM43.4366 26.7456L39.3439 42.0231C39.2102 42.5237 38.8854 42.9441 38.4325 43.2058C37.9797 43.4676 37.4524 43.5383 36.9518 43.4026L26.4433 40.5863C25.4039 40.3074 24.7849 39.2355 25.0619 38.1942L29.1546 22.9167C29.3877 22.0454 30.1787 21.4684 31.0404 21.4684C31.2066 21.4684 31.3767 21.4894 31.5448 21.5353L42.0533 24.3516C43.0927 24.6306 43.7117 25.7024 43.4328 26.7437L43.4366 26.7456ZM41.1725 26.8717L31.0533 24.1605C30.7419 24.0764 30.4171 24.1204 30.1362 24.2809C29.8573 24.4413 29.6566 24.7031 29.5726 25.0145L28.9975 27.1621C28.9134 27.4736 28.9573 27.7984 29.1178 28.0792C29.2783 28.3582 29.5401 28.5588 29.8515 28.6429L39.9707 31.3541C40.0757 31.3828 40.1789 31.3962 40.2821 31.3962C40.8152 31.3962 41.3043 31.0389 41.4495 30.5001L42.0246 28.3525C42.1966 27.7086 41.8144 27.0456 41.1706 26.8737L41.1725 26.8717ZM40.1598 29.9708L30.3831 27.3513L30.8665 25.5438L40.6452 28.1633L40.1618 29.9708H40.1598ZM29.3779 37.904C29.2958 38.2135 29.0149 38.418 28.7092 38.418C28.6499 38.418 28.5907 38.4104 28.5296 38.3932L27.2551 38.0511C26.8864 37.9518 26.6667 37.5735 26.766 37.2028C26.8654 36.834 27.2456 36.6143 27.6144 36.7137L28.8888 37.0557C29.2575 37.155 29.4773 37.5333 29.3779 37.904ZM40.0967 33.8381C40.0146 34.1476 39.7337 34.3521 39.428 34.3521C39.3687 34.3521 39.3095 34.3445 39.2484 34.3273L37.9739 33.9853C37.6052 33.8859 37.3855 33.5076 37.4848 33.1369C37.5842 32.7681 37.9644 32.5484 38.3332 32.6478L39.6076 32.9898C39.9763 33.0891 40.1961 33.4674 40.0967 33.8381ZM38.3618 40.3113C38.2797 40.6208 37.9988 40.8253 37.6931 40.8253C37.6338 40.8253 37.5746 40.8176 37.5135 40.8004L36.239 40.4584C35.8703 40.3591 35.6506 39.9807 35.7499 39.6101C35.8493 39.2413 36.2276 39.0216 36.5983 39.1209L37.8727 39.4629C38.2415 39.5623 38.4612 39.9406 38.3618 40.3113ZM39.2292 37.0746C39.1471 37.3841 38.8662 37.5886 38.5605 37.5886C38.5013 37.5886 38.442 37.5809 38.3809 37.5637L37.1084 37.2217C36.7396 37.1224 36.5199 36.7441 36.6192 36.3734C36.7186 36.0046 37.0988 35.7849 37.4676 35.8843L38.7401 36.2263C39.1089 36.3256 39.3286 36.7039 39.2292 37.0746ZM35.6047 32.6342C35.5225 32.9438 35.2417 33.1482 34.9359 33.1482C34.8767 33.1482 34.8175 33.1406 34.7563 33.1234L33.4819 32.7814C33.1132 32.682 32.8934 32.3037 32.9928 31.933C33.0921 31.5642 33.4705 31.3445 33.8411 31.4439L35.1156 31.7859C35.4843 31.8852 35.704 32.2635 35.6047 32.6342ZM31.1127 31.4305C31.0306 31.74 30.7497 31.9445 30.444 31.9445C30.3847 31.9445 30.3255 31.9369 30.2644 31.9197L28.9899 31.5777C28.6212 31.4783 28.4015 31.1 28.5008 30.7293C28.6002 30.3605 28.9785 30.1408 29.3492 30.2402L30.6236 30.5822C30.9923 30.6815 31.2121 31.0598 31.1127 31.4305ZM30.2453 34.6672C30.1631 34.9767 29.8823 35.1812 29.5765 35.1812C29.5173 35.1812 29.4581 35.1735 29.3969 35.1563L28.1244 34.8143C27.7557 34.715 27.5359 34.3367 27.6353 33.966C27.7346 33.5972 28.113 33.3775 28.4836 33.4768L29.7562 33.8189C30.1249 33.9182 30.3446 34.2965 30.2453 34.6672ZM34.7373 35.8709C34.6551 36.1804 34.3742 36.3849 34.0685 36.3849C34.0093 36.3849 33.9501 36.3772 33.8889 36.36L32.6145 36.018C32.2457 35.9187 32.026 35.5404 32.1254 35.1697C32.2247 34.8009 32.6049 34.5812 32.9737 34.6805L34.2481 35.0226C34.6169 35.1219 34.8366 35.5002 34.7373 35.8709ZM33.8698 39.1076C33.7877 39.4171 33.5068 39.6216 33.2011 39.6216C33.1419 39.6216 33.0826 39.6139 33.0215 39.5967L31.7471 39.2547C31.3783 39.1553 31.1586 38.777 31.2579 38.4064C31.3573 38.0376 31.7375 37.8179 32.1063 37.9172L33.3807 38.2592C33.7495 38.3586 33.9692 38.7369 33.8698 39.1076Z" fill="url(#paint0_linear_1791_108)"/>
</g>
<defs>
<linearGradient id="paint0_linear_1791_108" x1="23.0006" y1="1.11768" x2="23.0006" y2="44.8567" gradientUnits="userSpaceOnUse">
<stop stop-color="#A2FF00"/>
<stop offset="1" stop-color="#639B01"/>
</linearGradient>
</defs>
</svg>
