<svg width="19" height="19" viewBox="0 0 19 19" fill="none" xmlns="http://www.w3.org/2000/svg">
<g clip-path="url(#clip0_1791_11)">
<path d="M3.86047 0.691456C2.29291 0.691456 0.980469 1.73862 0.980469 2.98933V16.3936C0.980469 17.4445 2.06333 18.3085 3.38047 18.3085H17.5405C17.9175 18.3085 18.2604 18.0348 18.2605 17.734V4.71273C18.2581 4.37549 17.9523 4.13527 17.5405 4.13826C16.8477 4.13826 16.1005 3.54207 16.1005 2.98933C16.1005 2.43659 16.8477 1.84039 17.5405 1.84039C17.9208 1.84468 18.2605 1.56945 18.2605 1.26592C18.2605 0.962394 17.9208 0.687164 17.5405 0.691456H3.86047ZM3.86047 1.84039H15.058C14.8066 2.18027 14.6605 2.57341 14.6605 2.98933C14.6605 3.40525 14.8066 3.79839 15.058 4.13826H3.86047C3.16771 4.13826 2.42047 3.54207 2.42047 2.98933C2.42047 2.43659 3.16771 1.84039 3.86047 1.84039ZM2.42047 4.97005C2.84604 5.17011 3.33991 5.2872 3.86047 5.2872H16.8205V17.1595H3.38047C2.83617 17.1595 2.42047 16.8279 2.42047 16.3936V4.97005ZM5.06047 7.58507C4.66284 7.58507 4.34047 7.84228 4.34047 8.15954C4.34047 8.47682 4.66284 8.73401 5.06047 8.73401H14.1805C14.5781 8.73401 14.9005 8.47682 14.9005 8.15954C14.9005 7.84228 14.5781 7.58507 14.1805 7.58507H5.06047ZM5.06047 10.6489C4.66284 10.6489 4.34047 10.9061 4.34047 11.2234C4.34047 11.5407 4.66284 11.7978 5.06047 11.7978H14.1805C14.5781 11.7978 14.9005 11.5407 14.9005 11.2234C14.9005 10.9061 14.5781 10.6489 14.1805 10.6489H5.06047ZM5.06047 13.7127C4.66284 13.7127 4.34047 13.9699 4.34047 14.2872C4.34047 14.6045 4.66284 14.8617 5.06047 14.8617H14.1805C14.5781 14.8617 14.9005 14.6045 14.9005 14.2872C14.9005 13.9699 14.5781 13.7127 14.1805 13.7127H5.06047Z" fill="url(#paint0_linear_1791_11)"/>
</g>
<defs>
<linearGradient id="paint0_linear_1791_11" x1="9.62047" y1="0.691406" x2="9.62047" y2="18.3085" gradientUnits="userSpaceOnUse">
<stop stop-color="#F8F8F8"/>
<stop offset="1" stop-color="#D2D2D2"/>
</linearGradient>
<clipPath id="clip0_1791_11">
<rect width="18" height="18" fill="white" transform="translate(0.5 0.5)"/>
</clipPath>
</defs>
</svg>
