<svg width="38" height="39" viewBox="0 0 38 39" fill="none" xmlns="http://www.w3.org/2000/svg">
<g clip-path="url(#clip0_1791_125)">
<path d="M18.8465 5.69278C20.2289 3.69046 24.6251 -2.68429 26.9461 0.025891C30.6321 4.32937 31.3273 10.6478 33.397 16.004C34.1801 15.5276 34.8016 14.8316 35.6759 14.5011C36.884 14.0445 37.882 15.1352 37.1511 16.2164C33.9312 20.9773 28.2968 23.1215 22.779 24.0767C14.1118 25.5447 5.74185 23.5258 0.481604 16.0991C-0.233396 15.09 0.42136 13.3945 1.73246 14.0817C3.06496 14.7801 4.04551 15.966 5.25435 16.8656C6.95544 11.7441 8.74057 6.51796 11.7853 2.03931C14.2291 -1.5571 17.3095 3.75943 18.8465 5.69278ZM8.88404 12.517C15.6203 15.2272 22.7703 15.5339 29.3218 12.192C29.5857 12.0644 29.6928 11.951 29.585 11.6276C28.4157 8.2912 27.6167 4.80894 25.9386 1.68339C25.7618 1.35443 25.3203 1.27833 25.0429 1.52882C23.0842 3.29412 21.5551 5.33528 19.8595 7.23613C20.3922 8.34589 22.6648 10.4528 21.5265 11.5547C21.1294 11.7909 20.7473 11.6656 20.4556 11.3842C17.9008 8.77711 16.3273 5.36303 13.9493 2.59339C13.7582 2.37065 13.4031 2.40632 13.2589 2.66235C11.5078 5.7554 10.4052 9.14967 8.88404 12.517ZM30.3967 13.9716C23.5566 17.6766 15.0321 18.1704 8.19916 14.2775C7.58166 15.0385 6.37837 17.7019 6.88252 18.1173C13.7622 23.0089 23.1626 21.8754 30.3737 18.2188C30.7312 17.9635 31.3812 17.7875 31.4858 17.3349C31.1426 16.2386 30.7811 15.1479 30.3967 13.9716ZM15.7217 29.3694C17.4284 28.4586 19.2365 28.4404 21.1175 29.2442C22.5626 25.3838 26.9889 23.4497 30.5932 25.3521C35.9018 28.1535 34.5408 36.9641 28.346 37.6046C23.8428 38.0699 21.4623 35.3621 20.4992 31.3266C19.3094 30.6686 16.2409 30.5696 15.6853 32.0019C15.1018 36.093 11.1606 38.7928 7.06404 36.4203C-2.95309 30.6163 10.3743 18.6761 15.7217 29.3694ZM26.9215 35.4192C31.7458 35.9899 33.8012 29.4606 29.4756 27.3354C22.6823 23.9974 19.6043 34.1469 26.9215 35.4192ZM13.6378 31.0016C13.6996 25.9181 4.29916 26.0172 5.57538 31.6341C6.76679 36.1056 13.5323 36.0692 13.6378 31.0016Z" fill="url(#paint0_linear_1791_125)"/>
</g>
<defs>
<linearGradient id="paint0_linear_1791_125" x1="18.7936" y1="-0.634766" x2="18.7936" y2="37.6565" gradientUnits="userSpaceOnUse">
<stop stop-color="#A2FF00"/>
<stop offset="1" stop-color="#639B01"/>
</linearGradient>
<clipPath id="clip0_1791_125">
<rect width="37.2561" height="39" fill="white" transform="translate(0.164062 -0.671875)"/>
</clipPath>
</defs>
</svg>
