<svg width="23" height="23" viewBox="0 0 23 23" fill="none" xmlns="http://www.w3.org/2000/svg">
<path d="M8.97278 13.7954C8.33286 13.7954 7.81815 13.2806 7.81815 12.6546C7.81815 12.0147 8.33286 11.5 8.97278 11.5C9.60343 11.5 10.1135 12.0147 10.1135 12.6546C10.1135 13.2853 9.59879 13.7954 8.97278 13.7954ZM23 11.5C23 17.8528 17.8528 23 11.5 23C5.14718 23 0 17.8528 0 11.5C0 5.14718 5.14718 0 11.5 0C17.8528 0 23 5.14718 23 11.5ZM16.8651 9.58952C16.4292 9.58952 16.0444 9.77036 15.7615 10.0532C14.7228 9.33448 13.3224 8.87077 11.769 8.81976L12.5758 5.18891L15.1448 5.76855C15.1448 6.39919 15.6595 6.90927 16.2855 6.90927C16.9254 6.90927 17.4401 6.38528 17.4401 5.75464C17.4401 5.12399 16.9254 4.6 16.2855 4.6C15.8357 4.6 15.4508 4.86895 15.2607 5.23992L12.4228 4.60927C12.2837 4.57218 12.1399 4.67419 12.1028 4.81331L11.2171 8.81976C9.67762 8.88468 8.29113 9.34375 7.25242 10.0625C6.96956 9.76573 6.57077 9.58952 6.13488 9.58952C4.51653 9.58952 3.9879 11.7643 5.46714 12.5016C5.41613 12.7335 5.38831 12.9746 5.38831 13.2204C5.38831 15.6595 8.13347 17.6349 11.5093 17.6349C14.899 17.6349 17.6442 15.6595 17.6442 13.2204C17.6442 12.9746 17.6163 12.7196 17.556 12.4877C19.0075 11.7458 18.4742 9.58952 16.8651 9.58952ZM13.6702 14.9778C12.8262 15.8218 10.1413 15.8079 9.32984 14.9778C9.22782 14.8758 9.04698 14.8758 8.94496 14.9778C8.82903 15.0938 8.82903 15.2746 8.94496 15.3766C10.0022 16.4339 12.9931 16.4339 14.055 15.3766C14.171 15.2746 14.171 15.0938 14.055 14.9778C13.953 14.8758 13.7722 14.8758 13.6702 14.9778ZM14.0272 11.5C13.3966 11.5 12.8865 12.0147 12.8865 12.6546C12.8865 13.2853 13.4012 13.7954 14.0272 13.7954C14.6671 13.7954 15.1819 13.2806 15.1819 12.6546C15.1819 12.0147 14.6718 11.5 14.0272 11.5Z" fill="url(#paint0_linear_1497_5656)"/>
<defs>
<linearGradient id="paint0_linear_1497_5656" x1="11.5" y1="0" x2="11.5" y2="23" gradientUnits="userSpaceOnUse">
<stop stop-color="white"/>
<stop offset="1" stop-color="#5E5E5E"/>
</linearGradient>
</defs>
</svg>
