<svg width="40" height="38" viewBox="0 0 40 38" fill="none" xmlns="http://www.w3.org/2000/svg">
<g opacity="0.7">
<path opacity="0.7" fill-rule="evenodd" clip-rule="evenodd" d="M31.661 18.75C32.2019 18.0359 32.4994 17.16 32.4994 16.25V14.5834C32.4994 13.475 32.0577 12.4167 31.2827 11.6334C30.4994 10.8584 29.441 10.4167 28.3327 10.4167H9.16602H7.49935V13.75H9.16602H28.3327C28.5577 13.75 28.766 13.8417 28.9243 13.9917C29.0744 14.15 29.166 14.3584 29.166 14.5834V16.25C29.166 16.475 29.0744 16.6834 28.9243 16.8417C28.766 16.9917 28.5577 17.0834 28.3327 17.0834H9.16602H7.49935V20.4167H9.16602H28.3327C28.5577 20.4167 28.766 20.5084 28.9243 20.6584C29.0744 20.8167 29.166 21.025 29.166 21.25V22.9167C29.166 23.1417 29.0744 23.35 28.9243 23.5084C28.766 23.6584 28.5577 23.75 28.3327 23.75H9.16602H7.49935V27.0834H9.16602H28.3327C29.441 27.0834 30.4994 26.6417 31.2827 25.8667C32.0577 25.0834 32.4994 24.025 32.4994 22.9167V21.25C32.4994 20.34 32.2019 19.4642 31.661 18.75ZM5.89935 33.4375C6.80352 33.4375 7.53685 34.235 7.53685 35.2175C7.53685 36.2 6.84352 36.9942 5.98852 36.9892L5.80185 36.9984C5.78352 36.9984 5.77435 36.9984 5.75685 36.9984C4.34185 36.9984 2.97935 36.4375 1.98268 35.4317C0.976849 34.4342 0.416016 33.0725 0.416016 31.6575C0.416016 30.675 1.21352 29.8767 2.19602 29.8767C3.17852 29.8767 3.97685 30.675 3.97685 31.6575C3.97685 32.1292 4.16352 32.5742 4.49268 32.9125C4.82185 33.2417 5.26768 33.4284 5.73935 33.4375H5.89935ZM3.97685 24.5359C3.97685 25.5184 3.17852 26.3167 2.19602 26.3167C1.21352 26.3167 0.416016 25.5184 0.416016 24.5359V4.95254C0.416016 2.49588 2.41018 0.501709 4.86685 0.501709H35.1319C37.5885 0.501709 39.5827 2.49588 39.5827 4.95254V10.2934C39.5827 11.2759 38.7852 12.0742 37.8027 12.0742C36.8202 12.0742 36.0219 11.2759 36.0219 10.2934V6.73338C36.0219 5.25921 34.8252 4.06254 33.3518 4.06254H6.64685C5.17352 4.06254 3.97685 5.25921 3.97685 6.73338V24.5359ZM36.0219 19.195C36.0219 18.2125 36.8202 17.415 37.8027 17.415C38.7852 17.415 39.5827 18.2125 39.5827 19.195V32.5475C39.5827 35.0042 37.5885 36.9984 35.1319 36.9984H12.8785C11.8952 36.9984 11.0977 36.2 11.0977 35.2175C11.0977 34.235 11.8952 33.4375 12.8785 33.4375H33.3518C34.8252 33.4375 36.0219 32.2409 36.0219 30.7667V19.195Z" fill="url(#paint0_linear_1791_113)"/>
</g>
<defs>
<linearGradient id="paint0_linear_1791_113" x1="2.84031" y1="5.87251" x2="36.8847" y2="38.9021" gradientUnits="userSpaceOnUse">
<stop stop-color="#A2FF00"/>
<stop offset="0.982609" stop-color="#639B01"/>
</linearGradient>
</defs>
</svg>
