<svg width="748" height="972" viewBox="0 0 748 972" fill="none" xmlns="http://www.w3.org/2000/svg">
<path opacity="0.08" d="M393.481 459.877C272.486 277.516 228.059 99.9397 210.057 0C137.583 44.0661 65.0327 88.1322 -7.51807 132.275C13.2659 219.173 52.5159 348.361 129.239 489.512H-96.6032C-103.48 479.865 -110.279 470.064 -117.001 459.877C-237.996 277.516 -282.423 99.9397 -300.425 0C-372.976 44.0661 -445.449 88.1322 -518 132.275C-491.267 244.331 -433.86 426.692 -304.829 614.455C-177.035 800.366 -33.7878 911.805 57.3063 972C117.108 914.969 176.833 857.938 236.636 800.829C195.068 775.825 137.583 737.239 74.8452 681.365H254.793C368.911 827.686 488.284 919.368 567.788 971.923C627.59 914.892 687.315 857.86 747.117 800.752C705.55 775.748 648.065 737.161 585.327 681.288H747.117V489.357H413.879C407.002 479.711 400.203 469.909 393.481 459.722V459.877Z" fill="#828282"/>
</svg>
