<svg width="750" height="972" viewBox="0 0 750 972" fill="none" xmlns="http://www.w3.org/2000/svg">
<g opacity="0.08">
<path d="M392.38 459.877C271.449 277.516 227.046 99.9397 209.053 0C136.618 44.0661 64.106 88.1321 -8.40625 132.275C12.3667 219.173 51.5959 348.361 128.278 489.511H-97.4441C-104.317 479.865 -111.113 470.064 -117.831 459.877C-238.762 277.516 -283.165 99.9397 -301.158 0C-373.67 44.0661 -446.105 88.1321 -518.617 132.275C-491.898 244.331 -434.522 426.692 -305.56 614.455C-177.833 800.366 -34.662 911.805 56.3837 972C116.154 914.969 175.847 857.938 235.618 800.829C194.072 775.825 136.618 737.238 73.9133 681.365H253.765C367.823 827.686 487.132 919.368 566.595 971.923C626.365 914.892 686.058 857.861 745.829 800.752C704.283 775.748 646.829 737.161 584.124 681.288H745.829V489.357H412.767C405.894 479.71 399.098 469.909 392.38 459.723V459.877Z" fill="#828282"/>
<path d="M749.452 0.774414H503.807V246.263H749.452V0.774414Z" fill="#828282"/>
</g>
</svg>
