<svg width="38" height="38" viewBox="0 0 38 38" fill="none" xmlns="http://www.w3.org/2000/svg">
<path fill-rule="evenodd" clip-rule="evenodd" d="M2.62177 0.655273H35.3804C36.466 0.655273 37.3459 1.53517 37.3459 2.62079V35.3794C37.3459 36.465 36.466 37.3449 35.3804 37.3449H2.62177C1.53615 37.3449 0.65625 36.465 0.65625 35.3794V2.62079C0.65625 1.53517 1.53615 0.655273 2.62177 0.655273ZM15.07 7.207H1.96659V35.3794C1.96659 35.7411 2.26011 36.0346 2.62177 36.0346H35.3804C35.742 36.0346 36.0356 35.7411 36.0356 35.3794V7.207H22.9321V9.17251C22.9321 9.4241 22.788 9.65407 22.5606 9.76283C22.3339 9.87224 22.064 9.84145 21.8675 9.68421L19.0011 7.3911L16.1347 9.68421C15.9381 9.84145 15.6682 9.87224 15.4415 9.76283C15.2142 9.65407 15.07 9.4241 15.07 9.17251V7.207ZM29.4838 33.4139H32.7597C33.1214 33.4139 33.4149 33.1204 33.4149 32.7587C33.4149 32.3971 33.1214 32.1035 32.7597 32.1035H29.4838C29.1222 32.1035 28.8287 32.3971 28.8287 32.7587C28.8287 33.1204 29.1222 33.4139 29.4838 33.4139ZM29.4838 30.7932H32.7597C33.1214 30.7932 33.4149 30.4997 33.4149 30.138C33.4149 29.7764 33.1214 29.4829 32.7597 29.4829H29.4838C29.1222 29.4829 28.8287 29.7764 28.8287 30.138C28.8287 30.4997 29.1222 30.7932 29.4838 30.7932ZM22.6818 16.3585L23.6338 15.4065C23.8893 15.1503 24.3047 15.1503 24.5602 15.4065C24.8164 15.662 24.8164 16.0774 24.5602 16.3329L24.0118 16.8813C27.1652 18.2978 29.301 20.5116 29.301 20.5116C29.5448 20.7651 29.5448 21.1661 29.301 21.4196C29.301 21.4196 24.6821 26.207 19.0011 26.207C17.7045 26.207 16.4636 25.9574 15.3203 25.5728L14.3684 26.5247C14.1128 26.7809 13.6975 26.7809 13.4419 26.5247C13.1858 26.2692 13.1858 25.8538 13.4419 25.5983L13.9903 25.05C10.837 23.6335 8.70111 21.4196 8.70111 21.4196C8.45739 21.1661 8.45739 20.7651 8.70111 20.5116C8.70111 20.5116 13.3201 15.7242 19.0011 15.7242C20.2977 15.7242 21.5386 15.9739 22.6818 16.3585ZM23.0258 17.8673L21.2588 19.6343C21.4894 20.0248 21.6218 20.4801 21.6218 20.9656C21.6218 22.4122 20.4477 23.5863 19.0011 23.5863C18.5156 23.5863 18.0602 23.454 17.6698 23.2233L16.3614 24.5317C17.1987 24.7584 18.0845 24.8967 19.0011 24.8967C23.1372 24.8967 26.6463 22.0866 27.8813 20.9656C27.0767 20.2351 25.3065 18.7872 23.0258 17.8673ZM21.6408 17.3995C20.8035 17.1728 19.9177 17.0346 19.0011 17.0346C14.865 17.0346 11.3559 19.8446 10.1209 20.9656C10.9254 21.6961 12.6957 23.1441 14.9764 24.0639L16.7434 22.2969C16.5127 21.9064 16.3804 21.4511 16.3804 20.9656C16.3804 19.519 17.5545 18.3449 19.0011 18.3449C19.4866 18.3449 19.9419 18.4773 20.3324 18.7079L21.6408 17.3995ZM20.2669 20.6262L18.6617 22.2314C18.7698 22.2602 18.8838 22.276 19.0011 22.276C19.7244 22.276 20.3114 21.6889 20.3114 20.9656C20.3114 20.8483 20.2957 20.7343 20.2669 20.6262ZM19.3405 19.6998C19.2324 19.671 19.1184 19.6553 19.0011 19.6553C18.2778 19.6553 17.6907 20.2423 17.6907 20.9656C17.6907 21.0829 17.7065 21.1969 17.7353 21.305L19.3405 19.6998ZM21.6218 7.8091V1.96562H16.3804V7.8091L18.5916 6.04013C18.8314 5.84882 19.1708 5.84882 19.4106 6.04013L21.6218 7.8091ZM22.9321 1.96562V5.89665H36.0356V2.62079C36.0356 2.25914 35.742 1.96562 35.3804 1.96562H22.9321ZM15.07 1.96562H2.62177C2.26011 1.96562 1.96659 2.25914 1.96659 2.62079V5.89665H15.07V1.96562Z" fill="url(#paint0_linear_1791_118)"/>
<defs>
<linearGradient id="paint0_linear_1791_118" x1="19.0011" y1="0.655273" x2="19.0011" y2="37.3449" gradientUnits="userSpaceOnUse">
<stop stop-color="white"/>
<stop offset="1" stop-color="#5E5E5E"/>
</linearGradient>
</defs>
</svg>
