<svg width="19" height="20" viewBox="0 0 19 20" fill="none" xmlns="http://www.w3.org/2000/svg">
<path d="M15.0013 10.6485C14.6958 12.8645 12.8453 14.5741 10.6149 14.5741C10.0319 14.5741 9.47511 14.457 8.965 14.2448L7.42878 16.9904C8.4125 17.4688 9.49474 17.7212 10.6147 17.7212C11.1998 17.7212 11.7746 17.6515 12.3305 17.5178C12.3733 16.65 12.8276 15.8214 13.611 15.3547C14.3933 14.8885 15.3144 14.896 16.0634 15.2903C17.2316 14.0106 17.9301 12.3885 18.0691 10.6485L15.0013 10.6485ZM6.18383 10.0015C6.18383 8.54466 6.84742 7.24496 7.87883 6.40704L6.3432 3.662C5.98304 3.92166 5.64231 4.21555 5.32494 4.54285C4.43622 5.45996 3.79892 6.56725 3.44819 7.77582C4.15477 8.24814 4.62268 9.06803 4.62268 10.0015C4.62268 10.9349 4.15477 11.7549 3.44819 12.2271C3.79892 13.4356 4.43622 14.5429 5.32494 15.46C5.64212 15.7873 5.98245 16.0808 6.34241 16.3407L7.87824 13.5954C6.84703 12.7575 6.18383 11.4578 6.18383 10.0015ZM10.6149 5.42877C12.8447 5.42877 14.6948 7.13741 15.0012 9.3526H18.0693C17.9299 7.61196 17.2306 5.98961 16.0614 4.71015C15.3126 5.10369 14.3919 5.11118 13.6098 4.64534C12.827 4.17889 12.3729 3.35171 12.3293 2.48484C11.7737 2.35117 11.1996 2.28189 10.6149 2.28189C9.49533 2.28189 8.41348 2.53405 7.42957 3.01225L8.96559 5.7577C9.4757 5.54584 10.0323 5.42877 10.6149 5.42877ZM16.6846 2.34994C16.6846 2.59262 16.6383 2.83292 16.5483 3.05713C16.4583 3.28134 16.3264 3.48506 16.1601 3.65666C15.9938 3.82826 15.7964 3.96439 15.5791 4.05726C15.3618 4.15013 15.129 4.19793 14.8938 4.19793C14.6586 4.19793 14.4258 4.15013 14.2085 4.05726C13.9912 3.96439 13.7938 3.82827 13.6275 3.65666C13.4612 3.48506 13.3293 3.28134 13.2393 3.05713C13.1493 2.83293 13.103 2.59262 13.103 2.34994C13.103 2.10726 13.1493 1.86695 13.2393 1.64274C13.3293 1.41854 13.4612 1.21482 13.6275 1.04321C13.7938 0.871614 13.9912 0.735492 14.2085 0.642622C14.4258 0.549752 14.6586 0.501953 14.8938 0.501953C15.3687 0.501953 15.8242 0.696651 16.1601 1.04322C16.4959 1.38978 16.6846 1.85982 16.6846 2.34994ZM16.6861 17.6501C16.6861 18.1402 16.4974 18.6103 16.1616 18.9568C15.8258 19.3034 15.3703 19.4981 14.8953 19.4981C14.6602 19.4981 14.4273 19.4503 14.21 19.3574C13.9928 19.2646 13.7953 19.1284 13.629 18.9568C13.4628 18.7852 13.3309 18.5815 13.2409 18.3573C13.1509 18.1331 13.1045 17.8928 13.1045 17.6501C13.1045 17.4074 13.1509 17.1671 13.2409 16.9429C13.3309 16.7187 13.4628 16.515 13.629 16.3434C13.7953 16.1718 13.9928 16.0357 14.21 15.9428C14.4273 15.8499 14.6602 15.8021 14.8953 15.8021C15.1305 15.8021 15.3634 15.8499 15.5806 15.9428C15.7979 16.0357 15.9953 16.1718 16.1616 16.3434C16.3279 16.515 16.4598 16.7187 16.5498 16.9429C16.6398 17.1671 16.6861 17.4074 16.6861 17.6501ZM3.84524 10.0015C3.84524 10.4917 3.65657 10.9617 3.32074 11.3083C2.9849 11.6548 2.5294 11.8495 2.05446 11.8495C1.57951 11.8495 1.12402 11.6548 0.788181 11.3083C0.452344 10.9617 0.263672 10.4917 0.263672 10.0015C0.263672 9.75886 0.309992 9.51856 0.399987 9.29435C0.489982 9.07014 0.621891 8.86642 0.788181 8.69482C0.954471 8.52322 1.15189 8.3871 1.36915 8.29423C1.58642 8.20136 1.81929 8.15356 2.05446 8.15356C2.28963 8.15355 2.52249 8.20135 2.73976 8.29422C2.95703 8.38709 3.15445 8.52322 3.32074 8.69482C3.48703 8.86642 3.61893 9.07014 3.70893 9.29435C3.79893 9.51856 3.84525 9.75886 3.84524 10.0015Z" fill="url(#paint0_linear_1791_161)"/>
<defs>
<linearGradient id="paint0_linear_1791_161" x1="9.16648" y1="0.501953" x2="9.16648" y2="19.4981" gradientUnits="userSpaceOnUse">
<stop stop-color="#A2FF00"/>
<stop offset="1" stop-color="#639B01"/>
</linearGradient>
</defs>
</svg>
