<?xml version="1.0" encoding="UTF-8"?><svg id="Layer_2" xmlns="http://www.w3.org/2000/svg" viewBox="0 0 1729.5 385.71"><defs><style>.cls-1{fill:none;stroke:#4a97f3;stroke-miterlimit:10;stroke-width:11px;}.cls-2{fill:#4a97f3;}.cls-2,.cls-3{stroke-width:0px;}.cls-3{fill:#fff;}</style></defs><g id="Layer_1-2"><path class="cls-3" d="m501.02,124.55h43.82c25.47,0,37.74,13.73,37.74,31.43,0,14.96-9.17,22.44-20.16,25.24v1.17c11.86.64,24.83,11.1,24.83,29.62s-12.56,32.19-40.37,32.19h-45.86v-119.66Zm42.24,51.77c12.15,0,21.62-7.36,21.62-18.93,0-9.93-6.84-17.47-21.15-17.47h-24.66v36.4h24.19Zm1.87,52.41c17.35,0,24.19-7.54,24.19-17.59,0-11.39-9.06-20.74-23.55-20.74h-26.7v38.33h26.06Z"/><path class="cls-3" d="m664.08,154.47h17.53v89.74h-17.18v-15.54h-.93c-4.15,9.58-13.32,16.71-26.82,16.71-17.24,0-29.45-11.57-29.45-33.83v-57.08h17.47v54.98c0,12.21,7.48,20.04,18.29,20.04,9.82,0,21.15-7.24,21.09-22.49v-52.52Z"/><path class="cls-3" d="m704.17,275.94l4.21-14.31c9.58,2.63,15.83,1.64,20.27-10.28l2.16-5.96-32.83-90.91h18.7l22.73,69.64h.93l22.73-69.64h18.75l-36.98,101.72c-5.2,14.14-14.31,21.68-28.75,21.68-5.26,0-9.82-.99-11.92-1.93Z"/><path class="cls-3" d="m837.61,218.85c0-20.39,17.41-24.83,34.41-26.82,16.13-1.87,22.67-1.75,22.67-8.12v-.41c0-10.17-5.78-16.07-17.06-16.07s-18.29,6.13-20.86,12.5l-16.42-3.74c5.84-16.36,20.8-22.9,37.04-22.9,14.26,0,34.82,5.2,34.82,31.32v59.59h-17.06v-12.27h-.7c-3.33,6.72-11.69,14.26-26.53,14.26-17.06,0-30.32-9.7-30.32-27.34Zm57.14-7.01v-11.57c-2.51,2.51-15.95,4.03-21.62,4.79-10.11,1.34-18.4,4.67-18.4,14.02,0,8.65,7.13,13.09,17,13.09,14.55,0,23.02-9.7,23.02-20.33Z"/><path class="cls-3" d="m952.94,244.21h-17.47v-89.74h16.77v14.61h1.11c4.15-9.52,12.97-15.77,26.47-15.77,18.35,0,30.56,11.63,30.56,33.83v57.08h-17.47v-54.98c0-13.03-7.19-20.8-19.05-20.8s-20.92,8.18-20.92,22.49v53.28Z"/><path class="cls-3" d="m1029.6,275.94l4.21-14.31c9.58,2.63,15.83,1.64,20.27-10.28l2.16-5.96-32.84-90.91h18.7l22.73,69.64h.94l22.73-69.64h18.75l-36.98,101.72c-5.2,14.14-14.31,21.68-28.75,21.68-5.26,0-9.82-.99-11.92-1.93Z"/><path class="cls-3" d="m1165.55,168.49h-18.4v49.37c0,10.11,5.08,11.98,10.75,11.98,2.8,0,4.97-.53,6.13-.76l3.15,14.43c-2.04.76-5.78,1.81-11.33,1.87-13.79.29-26.23-7.6-26.17-23.9v-52.99h-13.15v-14.02h13.15v-21.5h17.47v21.5h18.4v14.02Z"/><path class="cls-3" d="m1204.17,244.21h-17.47v-119.66h17.24v44.52h1.11c4.21-9.7,12.62-15.77,26.58-15.77,18.46,0,30.73,11.45,30.73,33.83v57.08h-17.47v-54.98c0-13.15-7.19-20.8-19.22-20.8s-21.5,8.18-21.5,22.49v53.28Z"/><path class="cls-3" d="m1283.52,130.22c0-5.73,4.97-10.46,11.04-10.46s11.04,4.73,11.04,10.46-5.02,10.4-11.04,10.4-11.04-4.67-11.04-10.4Zm2.22,24.25h17.47v89.74h-17.47v-89.74Z"/><path class="cls-3" d="m1344.16,244.21h-17.47v-89.74h16.77v14.61h1.11c4.15-9.52,12.97-15.77,26.47-15.77,18.35,0,30.56,11.63,30.56,33.83v57.08h-17.47v-54.98c0-13.03-7.19-20.8-19.05-20.8s-20.92,8.18-20.92,22.49v53.28Z"/><path class="cls-3" d="m1424.44,259.4l15.02-6.19c3.1,5.14,8.76,12.44,23.31,12.44,13.26,0,22.9-6.08,22.9-20.16v-17.64h-1.11c-3.16,5.73-9.52,15.02-26,15.02-21.21,0-37.51-15.25-37.51-43.88s15.95-45.69,37.63-45.69c16.71,0,22.9,10.17,26,15.72h1.29v-14.55h17.12v91.73c0,23.08-17.64,33.54-40.49,33.54-21.44,0-33.42-9.35-38.15-20.33Zm61.41-60.65c0-18.17-8.18-30.62-23.43-30.62s-23.72,13.38-23.72,30.62,8.12,29.62,23.72,29.62,23.43-11.1,23.43-29.62Z"/><path class="cls-2" d="m241.12,132.89v-17.59c0-14.57,11.81-26.38,26.38-26.38,6.76,0,12.92,2.54,17.59,6.72,4.67-4.18,10.83-6.72,17.59-6.72,14.57,0,26.38,11.81,26.38,26.38v17.59h13.19c7.29,0,13.19,5.91,13.19,13.19v87.99c0,16.97-13.76,30.74-30.74,30.74h-74.8c-19.43,0-35.18-15.75-35.18-35.18v-83.55c0-7.29,5.91-13.19,13.19-13.19h13.19Zm58.35,118.72c-3.46-4.97-5.5-11.02-5.5-17.54v-87.99h-66.05v83.55c0,12.14,9.84,21.99,21.99,21.99h49.56Zm-18.78-118.72v-17.59c0-7.29-5.91-13.19-13.19-13.19s-13.19,5.91-13.19,13.19v17.59h26.38Zm13.19,0h21.99v-17.59c0-7.29-5.91-13.19-13.19-13.19-4.09,0-7.74,1.86-10.16,4.78.89,2.64,1.37,5.47,1.37,8.41v17.59Zm13.28,101.18c0,9.69,7.86,17.54,17.54,17.54s17.54-7.86,17.54-17.54v-87.99h-35.09v87.99Z"/><rect class="cls-1" x="5.5" y="5.5" width="1718.5" height="374.71" rx="30" ry="30"/></g></svg>