<svg width="101" height="52" viewBox="0 0 101 52" fill="none" xmlns="http://www.w3.org/2000/svg">
<g id="btcpay_logo" clip-path="url(#clip0_76_1109)">
<path id="Vector" d="M0.0168699 48.4222C0.0168699 48.3131 0 48.2039 0 48.0863V3.15848C0 0.739481 2.31117 -0.696798 4.50426 0.344714C12.0704 3.93121 19.6365 7.50091 27.2027 11.0706C28.2571 11.5662 28.9909 12.3053 29.168 13.4812C29.362 14.7243 28.8981 15.7238 27.8944 16.4714C25.7013 18.084 23.5082 19.6883 21.3151 21.3009C19.2401 22.8296 17.1567 24.3499 15.0732 25.8786C15.0226 25.9122 14.9805 25.9541 14.9383 25.9961H14.8877C14.0526 25.3746 13.2176 24.753 12.3825 24.1315C11.5137 23.4848 10.6449 22.838 9.7761 22.1913C9.85201 22.1325 9.93636 22.0653 10.0123 22.0065C12.8127 19.9571 15.6046 17.8992 18.405 15.8498C18.9955 15.4214 19.5775 14.9847 20.1679 14.5563C20.0499 14.4219 19.9065 14.3799 19.7799 14.3211C15.3263 12.2129 10.8811 10.1131 6.42743 8.00487C6.21655 7.90407 6.11533 7.97127 6.11533 8.19805V19.2515C6.11533 19.3523 6.11533 19.4531 6.12377 19.5539C6.12377 19.6463 6.11533 19.7387 6.11533 19.8227V32.136C6.11533 32.2284 6.12377 32.3208 6.1322 32.4048C6.1322 32.4636 6.12377 32.5224 6.12377 32.5896V44.0798C6.12377 44.0798 6.06472 44.1386 6.03098 44.1554C4.69826 44.7854 3.37398 45.4153 2.04126 46.0368C1.50985 46.2804 1.02906 46.5744 0.657925 47.0448C0.337398 47.4563 0.177134 47.9267 0.0253048 48.4054V48.4222H0.0168699Z" fill="white"/>
<path id="Vector_2" d="M0.0168699 48.4217C0.177134 47.943 0.328963 47.4726 0.649491 47.061C1.02063 46.5907 1.50142 46.2967 2.03282 46.0531C3.36554 45.4316 4.69826 44.8016 6.02255 44.1717C6.05629 44.1549 6.09003 44.1213 6.11533 44.0961C6.20812 44.0625 6.30934 44.0289 6.39369 43.9869C10.8979 41.8619 15.4022 39.7284 19.9065 37.6034C20.1005 37.511 20.1089 37.3934 19.9318 37.2591C17.3001 35.3272 14.6599 33.3954 12.0367 31.4635C11.2944 30.9176 10.5268 30.3968 9.81827 29.8089C9.81827 29.6997 9.91106 29.6661 9.98697 29.6073C11.6234 28.4062 13.2513 27.1967 14.8792 25.9956H14.9298C16.136 26.8859 17.3422 27.7847 18.5484 28.675C21.6525 30.9512 24.7481 33.2274 27.8522 35.5036C29.8681 36.9819 29.5982 39.7788 27.3377 40.8456C19.6956 44.4656 12.0451 48.0773 4.40304 51.689C2.31117 52.6718 0 51.1935 0 48.8753C0 48.7241 0 48.5729 0.0168699 48.4217Z" fill="white"/>
<path id="Vector_3" d="M9.82661 29.809C9.68321 29.7839 9.6073 29.893 9.51452 29.9602C8.38423 30.7834 7.26239 31.6065 6.1321 32.4212C6.1321 32.3288 6.11523 32.2364 6.11523 32.1524V19.8391C6.11523 19.7467 6.11523 19.6543 6.12367 19.5703C7.22021 20.3682 8.31675 21.1746 9.4133 21.9725C9.53139 22.0565 9.64948 22.1321 9.76756 22.2077C10.6364 22.8544 11.5052 23.5012 12.374 24.1479L14.8791 26.0126C13.2512 27.2137 11.6148 28.4232 9.98687 29.6243C9.91096 29.6747 9.82661 29.7167 9.81817 29.8258V29.809H9.82661Z" fill="white"/>
<g id="Group">
<path id="Vector_4" d="M36.9957 20.5361H40.8843C43.381 20.5361 44.874 21.796 44.874 23.9546C44.874 25.4749 44.1148 26.6172 42.8074 27.0876C44.5534 27.3984 45.5488 28.675 45.5488 30.6405C45.5488 33.0847 44.022 34.3866 41.171 34.3866H36.9873V20.5445L36.9957 20.5361ZM41.3735 26.8692C43.0605 26.8692 44.157 25.7605 44.157 24.0386C44.157 22.3168 42.9592 21.1997 40.8843 21.1997H37.7127V26.8692H41.3735ZM41.1373 33.7146C43.6003 33.7146 44.8402 32.6815 44.8402 30.6153C44.8402 28.6666 43.7268 27.5243 41.8121 27.5243H37.7211V33.7146H41.1457H41.1373Z" fill="white"/>
</g>
<g id="Group_2">
<path id="Vector_5" d="M51.622 21.1913H46.502V20.5361H57.4674V21.1913H52.3474V34.3782H51.622V21.1913Z" fill="white"/>
</g>
<g id="Group_3">
<path id="Vector_6" d="M57.8633 27.4491C57.8633 23.1906 60.3094 20.3853 64.0208 20.3853C66.6356 20.3853 68.6178 21.7543 69.4951 23.9969L68.8287 24.2573C68.0443 22.2499 66.332 21.0824 64.0208 21.0824C60.689 21.0824 58.5803 23.577 58.5803 27.4491C58.5803 31.3211 60.689 33.8325 64.0208 33.8325C66.332 33.8325 68.0443 32.6566 68.8287 30.6576L69.4951 30.9096C68.6178 33.1606 66.6356 34.5381 64.0208 34.5381C60.3094 34.5381 57.8633 31.7411 57.8633 27.4575V27.4491Z" fill="white"/>
</g>
<g id="Group_4">
<path id="Vector_7" d="M72.3721 20.5361H75.94C78.7911 20.5361 80.4359 21.9136 80.4359 24.341C80.4359 26.7684 78.7911 28.1459 75.94 28.1459H73.0806V34.3866H72.3721V20.5445V20.5361ZM75.881 27.4991C78.3018 27.4991 79.7189 26.3904 79.7189 24.3494C79.7189 22.3084 78.3187 21.1913 75.881 21.1913H73.0806V27.4991H75.881Z" fill="white"/>
</g>
<g id="Group_5">
<path id="Vector_8" d="M85.3449 20.5361H86.0618L91.03 34.3782H90.2287L88.8622 30.4473H82.5782L81.2033 34.3782H80.3936L85.3449 20.5361ZM88.6345 29.7921L85.7244 21.4517L82.8144 29.7921H88.6429H88.6345Z" fill="white"/>
</g>
<g id="Group_6">
<path id="Vector_9" d="M95.3489 29.1454L90.4229 20.5361H91.241L95.6863 28.3979L100.165 20.5361H100.992L96.0658 29.1454V34.3782H95.3489V29.1454Z" fill="white"/>
</g>
</g>
<defs>
<clipPath id="clip0_76_1109">
<rect width="101" height="52" fill="white"/>
</clipPath>
</defs>
</svg>
