<svg xmlns="http://www.w3.org/2000/svg" xmlns:xlink="http://www.w3.org/1999/xlink" width="1642" height="733" viewBox="0 0 1642 733" opacity="30%">
  <defs>
    <clipPath id="clip-path">
      <rect id="Rectangle_147715" data-name="Rectangle 147715" width="1642" height="733" transform="translate(278 4132)" fill="#fff" stroke="#707070" stroke-width="1"/>
    </clipPath>
    <clipPath id="clip-path-2">
      <rect id="Rectangle_147714" data-name="Rectangle 147714" width="1920.478" height="579.393" fill="none"/>
    </clipPath>
    <linearGradient id="linear-gradient" y1="2.244" x2="0" y2="2.244" gradientUnits="objectBoundingBox">
      <stop offset="0" stop-color="#fff"/>
      <stop offset="0.07" stop-color="#fafafa"/>
      <stop offset="0.144" stop-color="#eee"/>
      <stop offset="0.219" stop-color="#d9d9d9"/>
      <stop offset="0.294" stop-color="#bcbcbc"/>
      <stop offset="0.371" stop-color="#969696"/>
      <stop offset="0.447" stop-color="#696969"/>
      <stop offset="0.511" stop-color="#3d3d3d"/>
      <stop offset="1" stop-color="#fff"/>
    </linearGradient>
    <linearGradient id="linear-gradient-2" y1="2.29" x2="0" y2="2.29" xlink:href="#linear-gradient"/>
    <linearGradient id="linear-gradient-3" y1="2.339" x2="0" y2="2.339" xlink:href="#linear-gradient"/>
    <linearGradient id="linear-gradient-4" y1="2.393" x2="0" y2="2.393" xlink:href="#linear-gradient"/>
    <linearGradient id="linear-gradient-5" y1="2.452" x2="0" y2="2.452" xlink:href="#linear-gradient"/>
    <linearGradient id="linear-gradient-6" y1="2.517" x2="0" y2="2.517" xlink:href="#linear-gradient"/>
    <linearGradient id="linear-gradient-7" y1="2.588" x2="0" y2="2.588" xlink:href="#linear-gradient"/>
    <linearGradient id="linear-gradient-8" y1="2.667" x2="0" y2="2.667" xlink:href="#linear-gradient"/>
    <linearGradient id="linear-gradient-9" y1="2.755" x2="0" y2="2.755" xlink:href="#linear-gradient"/>
    <linearGradient id="linear-gradient-10" y1="2.854" x2="0" y2="2.854" xlink:href="#linear-gradient"/>
    <linearGradient id="linear-gradient-11" y1="2.965" x2="0" y2="2.965" xlink:href="#linear-gradient"/>
    <linearGradient id="linear-gradient-12" y1="3.091" x2="0" y2="3.091" xlink:href="#linear-gradient"/>
    <linearGradient id="linear-gradient-13" y1="3.236" x2="0" y2="3.236" xlink:href="#linear-gradient"/>
    <linearGradient id="linear-gradient-14" y1="3.405" x2="0" y2="3.405" xlink:href="#linear-gradient"/>
    <linearGradient id="linear-gradient-15" y1="3.602" x2="0" y2="3.602" xlink:href="#linear-gradient"/>
    <linearGradient id="linear-gradient-16" y1="3.837" x2="0" y2="3.837" xlink:href="#linear-gradient"/>
    <linearGradient id="linear-gradient-17" y1="4.121" x2="0" y2="4.121" xlink:href="#linear-gradient"/>
    <linearGradient id="linear-gradient-18" y1="4.471" x2="0" y2="4.471" xlink:href="#linear-gradient"/>
    <linearGradient id="linear-gradient-19" y1="4.914" x2="0" y2="4.914" xlink:href="#linear-gradient"/>
    <linearGradient id="linear-gradient-20" y1="5.492" x2="0" y2="5.492" xlink:href="#linear-gradient"/>
    <linearGradient id="linear-gradient-21" y1="6.279" x2="0" y2="6.279" xlink:href="#linear-gradient"/>
    <linearGradient id="linear-gradient-22" y1="7.41" x2="0" y2="7.41" xlink:href="#linear-gradient"/>
    <linearGradient id="linear-gradient-23" y1="9.176" x2="0" y2="9.176" xlink:href="#linear-gradient"/>
    <linearGradient id="linear-gradient-24" y1="12.325" x2="0" y2="12.325" xlink:href="#linear-gradient"/>
    <linearGradient id="linear-gradient-25" y1="19.513" x2="0" y2="19.513" xlink:href="#linear-gradient"/>
    <linearGradient id="linear-gradient-26" y1="52.46" x2="0" y2="52.46" xlink:href="#linear-gradient"/>
    <linearGradient id="linear-gradient-27" y1="51.343" x2="0" y2="51.343" xlink:href="#linear-gradient"/>
    <linearGradient id="linear-gradient-28" y1="18.314" x2="0" y2="18.314" xlink:href="#linear-gradient"/>
    <linearGradient id="linear-gradient-29" y1="11.107" x2="0" y2="11.107" xlink:href="#linear-gradient"/>
    <linearGradient id="linear-gradient-30" y1="7.951" x2="0" y2="7.951" xlink:href="#linear-gradient"/>
    <linearGradient id="linear-gradient-31" y1="6.18" x2="0" y2="6.18" xlink:href="#linear-gradient"/>
    <linearGradient id="linear-gradient-32" y1="5.046" x2="0" y2="5.046" xlink:href="#linear-gradient"/>
    <linearGradient id="linear-gradient-33" y1="4.258" x2="0" y2="4.258" xlink:href="#linear-gradient"/>
    <linearGradient id="linear-gradient-34" y1="3.678" x2="0" y2="3.678" xlink:href="#linear-gradient"/>
    <linearGradient id="linear-gradient-35" y1="3.234" x2="0" y2="3.234" xlink:href="#linear-gradient"/>
    <linearGradient id="linear-gradient-36" y1="2.883" x2="0" y2="2.883" xlink:href="#linear-gradient"/>
    <linearGradient id="linear-gradient-37" y1="2.598" x2="0" y2="2.598" xlink:href="#linear-gradient"/>
    <linearGradient id="linear-gradient-38" y1="2.363" x2="0" y2="2.363" xlink:href="#linear-gradient"/>
    <linearGradient id="linear-gradient-39" y1="2.165" x2="0" y2="2.165" xlink:href="#linear-gradient"/>
    <linearGradient id="linear-gradient-40" y1="1.996" x2="0" y2="1.996" xlink:href="#linear-gradient"/>
    <linearGradient id="linear-gradient-41" y1="1.85" x2="0" y2="1.85" xlink:href="#linear-gradient"/>
    <linearGradient id="linear-gradient-42" y1="1.724" x2="0" y2="1.724" xlink:href="#linear-gradient"/>
    <linearGradient id="linear-gradient-43" y1="1.612" x2="0" y2="1.612" xlink:href="#linear-gradient"/>
    <linearGradient id="linear-gradient-44" y1="1.513" x2="0" y2="1.513" xlink:href="#linear-gradient"/>
    <linearGradient id="linear-gradient-45" y1="1.425" x2="0" y2="1.425" xlink:href="#linear-gradient"/>
    <linearGradient id="linear-gradient-46" y1="1.346" x2="0" y2="1.346" xlink:href="#linear-gradient"/>
    <linearGradient id="linear-gradient-47" y1="1.275" x2="0" y2="1.275" xlink:href="#linear-gradient"/>
    <linearGradient id="linear-gradient-48" y1="1.21" x2="0" y2="1.21" xlink:href="#linear-gradient"/>
    <linearGradient id="linear-gradient-49" y1="1.151" x2="0" y2="1.151" xlink:href="#linear-gradient"/>
    <linearGradient id="linear-gradient-50" y1="1.097" x2="0" y2="1.097" xlink:href="#linear-gradient"/>
    <linearGradient id="linear-gradient-51" y1="1.047" x2="0" y2="1.047" xlink:href="#linear-gradient"/>
    <linearGradient id="linear-gradient-52" y1="1.001" x2="0" y2="1.001" xlink:href="#linear-gradient"/>
  </defs>
  <g id="Mask_Group_2" data-name="Mask Group 2" transform="translate(-278 -4132)" clip-path="url(#clip-path)">
    <g id="Group_162277" data-name="Group 162277" transform="translate(-0.478 4199.039)" opacity="0.299">
      <g id="Group_162276" data-name="Group 162276" clip-path="url(#clip-path-2)">
        <path id="Path_83327" data-name="Path 83327" d="M0,.5H600.732C800.162.619,804.043,258.121,970.9,257.962,1125.51,258.136,1127.612.624,1318.9.5h601.583v.588H1318.9C1128.216.964,1126.247,258.377,970.9,258.55,803.338,258.392,799.567.969,600.732,1.088H0Z" transform="translate(0 -0.206)" fill="url(#linear-gradient)"/>
        <path id="Path_83328" data-name="Path 83328" d="M1920.478,20.372H1318.9c-190.82-.119-192.349,247.2-347.991,247.366C803.221,267.586,799.413,20.258,600.732,20.372H0v-.588H600.732C800,19.9,803.915,267.3,970.9,267.15c154.917.167,156.578-247.247,347.991-247.366h601.583Z" transform="translate(0 -8.152)" fill="url(#linear-gradient-2)"/>
        <path id="Path_83329" data-name="Path 83329" d="M1920.478,39.656H1318.9c-190.962-.113-192.051,237.109-347.991,237.269-167.8-.145-171.645-237.378-370.172-237.269H0v-.588H600.732c199.1.108,203.052,237.413,370.172,237.269,155.228.159,156.449-237.156,347.991-237.269h601.583Z" transform="translate(0 -16.099)" fill="url(#linear-gradient-3)"/>
        <path id="Path_83330" data-name="Path 83330" d="M1920.478,58.939H1318.9c-191.1-.108-191.753,227.021-347.991,227.172-167.914-.137-171.8-227.275-370.172-227.172H0v-.588H600.732c198.931.1,202.922,227.309,370.172,227.172,155.541.152,156.32-227.064,347.991-227.172h601.583Z" transform="translate(0 -24.044)" fill="url(#linear-gradient-4)"/>
        <path id="Path_83331" data-name="Path 83331" d="M1920.478,78.223H1318.9C1127.65,78.121,1127.44,295.154,970.9,295.3c-168.03-.129-171.951-217.173-370.172-217.076H0v-.588H600.732c198.764.1,202.791,217.206,370.172,217.076,155.853.145,156.192-216.973,347.991-217.076h601.583Z" transform="translate(0 -31.991)" fill="url(#linear-gradient-5)"/>
        <path id="Path_83332" data-name="Path 83332" d="M1920.478,97.507H1318.9c-191.389-.1-191.158,206.842-347.991,206.979C802.762,304.364,798.8,97.415,600.732,97.507H0v-.588H600.732c198.6.091,202.66,207.1,370.172,206.979,156.166.136,156.064-206.883,347.991-206.979h601.583Z" transform="translate(0 -39.937)" fill="url(#linear-gradient-6)"/>
        <path id="Path_83333" data-name="Path 83333" d="M1920.478,116.791H1318.9C1127.364,116.7,1128.033,313.545,970.9,313.673c-168.257-.115-172.256-196.968-370.172-196.883H0V116.2H600.732c198.429.085,202.529,197,370.172,196.883,156.48.128,155.936-196.792,347.991-196.883h601.583Z" transform="translate(0 -47.883)" fill="url(#linear-gradient-7)"/>
        <path id="Path_83334" data-name="Path 83334" d="M1920.478,136.074H1318.9C1127.22,135.989,1128.329,322.739,970.9,322.86,802.534,322.753,798.5,135.995,600.732,136.074H0v-.588H600.732c198.261.08,202.4,186.893,370.172,186.786,156.794.121,155.809-186.7,347.991-186.786h601.583Z" transform="translate(0 -55.829)" fill="url(#linear-gradient-8)"/>
        <path id="Path_83335" data-name="Path 83335" d="M1920.478,155.358H1318.9c-191.819-.079-190.271,176.578-347.991,176.69-168.483-.1-172.558-176.764-370.172-176.69H0v-.588H600.732C798.825,154.844,803,331.559,970.9,331.46c157.109.112,155.682-176.611,347.991-176.69h601.583Z" transform="translate(0 -63.775)" fill="url(#linear-gradient-9)"/>
        <path id="Path_83336" data-name="Path 83336" d="M1920.478,174.642H1318.9c-191.964-.073-189.977,166.489-347.991,166.593-168.6-.091-172.709-166.661-370.172-166.593H0v-.588H600.732c197.924.068,202.13,166.684,370.172,166.593,157.424.1,155.556-166.521,347.991-166.593h601.583Z" transform="translate(0 -71.721)" fill="url(#linear-gradient-10)"/>
        <path id="Path_83337" data-name="Path 83337" d="M1920.478,193.926H1318.9c-192.109-.066-189.683,156.4-347.991,156.5-168.706-.083-172.859-156.559-370.172-156.5H0v-.588H600.732c197.754.062,202,156.58,370.172,156.5,157.741.095,155.43-156.431,347.991-156.5h601.583Z" transform="translate(0 -79.668)" fill="url(#linear-gradient-11)"/>
        <path id="Path_83338" data-name="Path 83338" d="M1920.478,213.209H1318.9c-192.254-.06-189.39,146.314-347.991,146.4-168.817-.075-173.009-146.456-370.172-146.4H0v-.588H600.732c197.584.056,201.861,146.475,370.172,146.4,158.058.086,155.305-146.339,347.991-146.4h601.583Z" transform="translate(0 -87.614)" fill="url(#linear-gradient-12)"/>
        <path id="Path_83339" data-name="Path 83339" d="M1920.478,232.493H1318.9c-192.4-.054-189.1,136.226-347.991,136.3-168.927-.067-173.158-136.353-370.172-136.3H0V231.9H600.732c197.413.05,201.725,136.37,370.172,136.3,158.376.078,155.181-136.249,347.991-136.3h601.583Z" transform="translate(0 -95.56)" fill="url(#linear-gradient-13)"/>
        <path id="Path_83340" data-name="Path 83340" d="M1920.478,251.777H1318.9c-192.547-.048-188.807,126.137-347.991,126.207C801.868,377.924,797.6,251.732,600.732,251.777H0v-.588H600.732C797.974,251.233,802.321,377.455,970.9,377.4c158.694.069,155.057-126.159,347.991-126.207h601.583Z" transform="translate(0 -103.506)" fill="url(#linear-gradient-14)"/>
        <path id="Path_83341" data-name="Path 83341" d="M1920.478,271.06H1318.9C1126.2,271.018,1130.379,387.11,970.9,387.17c-169.145-.052-173.454-116.148-370.172-116.11H0v-.588H600.732c197.069.039,201.452,116.162,370.172,116.11,159.014.061,154.934-116.068,347.991-116.11h601.583Z" transform="translate(0 -111.452)" fill="url(#linear-gradient-15)"/>
        <path id="Path_83342" data-name="Path 83342" d="M1920.478,290.344H1318.9c-192.842-.036-188.226,105.961-347.991,106.014-169.253-.044-173.6-106.046-370.172-106.014H0v-.588H600.732c196.9.034,201.314,106.058,370.172,106.014,159.335.052,154.811-105.977,347.991-106.014h601.583Z" transform="translate(0 -119.398)" fill="url(#linear-gradient-16)"/>
        <path id="Path_83343" data-name="Path 83343" d="M1920.478,309.628H1318.9C1125.9,309.6,1130.958,405.5,970.9,405.545c-169.359-.038-173.748-95.945-370.172-95.917H0v-.588H600.732c196.725.028,201.176,95.954,370.172,95.917,159.656.044,154.689-95.886,347.991-95.917h601.583Z" transform="translate(0 -127.344)" fill="url(#linear-gradient-17)"/>
        <path id="Path_83344" data-name="Path 83344" d="M1920.478,328.912H1318.9c-193.14-.025-187.651,85.784-347.991,85.821-169.466-.031-173.894-85.844-370.172-85.821H0v-.588H600.732c196.551.023,201.036,85.852,370.172,85.821,159.978.036,154.568-85.8,347.991-85.821h601.583Z" transform="translate(0 -135.291)" fill="url(#linear-gradient-18)"/>
        <path id="Path_83345" data-name="Path 83345" d="M1920.478,348.195H1318.9c-193.29-.02-187.364,75.695-347.991,75.724-169.571-.024-174.039-75.743-370.172-75.724H0v-.588H600.732c196.377.018,200.9,75.749,370.172,75.724,160.3.029,154.447-75.7,347.991-75.724h601.583Z" transform="translate(0 -143.237)" fill="url(#linear-gradient-19)"/>
        <path id="Path_83346" data-name="Path 83346" d="M1920.478,367.479H1318.9c-193.441-.015-187.078,65.605-347.991,65.628-169.676-.019-174.185-65.642-370.172-65.628H0v-.588H600.732c196.2.014,200.755,65.647,370.172,65.628,160.626.023,154.327-65.612,347.991-65.628h601.583Z" transform="translate(0 -151.183)" fill="url(#linear-gradient-20)"/>
        <path id="Path_83347" data-name="Path 83347" d="M1920.478,386.763H1318.9C1125.3,386.751,1132.1,442.278,970.9,442.294c-169.78-.013-174.329-55.541-370.172-55.531H0v-.588H600.732c196.027.01,200.614,55.545,370.172,55.531,160.952.016,154.208-55.52,347.991-55.531h601.583Z" transform="translate(0 -159.129)" fill="url(#linear-gradient-21)"/>
        <path id="Path_83348" data-name="Path 83348" d="M1920.478,406.046H1318.9c-193.744-.008-186.51,45.423-347.991,45.435-169.883-.009-174.473-45.442-370.172-45.435H0v-.588H600.732C796.583,405.465,801.2,450.9,970.9,450.893c161.278.011,154.089-45.427,347.991-45.435h601.583Z" transform="translate(0 -167.075)" fill="url(#linear-gradient-22)"/>
        <path id="Path_83349" data-name="Path 83349" d="M1920.478,425.33H1318.9c-193.9,0-186.227,35.331-347.991,35.338-169.986-.005-174.616-35.342-370.172-35.338H0v-.588H600.732c195.675,0,200.329,35.344,370.172,35.338,161.6.007,153.97-35.333,347.991-35.338h601.583Z" transform="translate(0 -175.021)" fill="url(#linear-gradient-23)"/>
        <path id="Path_83350" data-name="Path 83350" d="M1920.478,444.614H1318.9c-194.049,0-185.944,25.238-347.991,25.241-170.089,0-174.759-25.244-370.172-25.241H0v-.588H600.732c195.5,0,200.186,25.244,370.172,25.241,161.932,0,153.852-25.239,347.991-25.241h601.583Z" transform="translate(0 -182.967)" fill="url(#linear-gradient-24)"/>
        <path id="Path_83351" data-name="Path 83351" d="M1920.478,463.9H1318.9c-194.2,0-185.662,15.143-347.991,15.145-170.191,0-174.9-15.146-370.172-15.145H0v-.588H600.732c195.322,0,200.043,15.145,370.172,15.145,162.26,0,153.735-15.144,347.991-15.145h601.583Z" transform="translate(0 -190.914)" fill="url(#linear-gradient-25)"/>
        <path id="Path_83352" data-name="Path 83352" d="M1920.478,483.182H1318.9c-194.355,0-185.38,5.047-347.991,5.048-170.294,0-175.045-5.049-370.172-5.048H0v-.588H600.732c195.145,0,199.9,5.048,370.172,5.048,162.588,0,153.617-5.048,347.991-5.048h601.583Z" transform="translate(0 -198.86)" fill="url(#linear-gradient-26)"/>
        <path id="Path_83353" data-name="Path 83353" d="M1920.478,498.927H1318.9c-194.508,0-185.1-5.048-347.991-5.048-170.4,0-175.188,5.048-370.172,5.048H0v-.588H600.732c194.968,0,199.756-5.047,370.172-5.048,162.916,0,153.5,5.049,347.991,5.048h601.583Z" transform="translate(0 -203.268)" fill="url(#linear-gradient-27)"/>
        <path id="Path_83354" data-name="Path 83354" d="M1920.478,511.135H1318.9c-194.662,0-184.816-15.146-347.991-15.145-170.5,0-175.33,15.144-370.172,15.145H0v-.588H600.732c194.791,0,199.613-15.143,370.172-15.145,163.244,0,153.384,15.146,347.991,15.145h601.583Z" transform="translate(0 -204.138)" fill="url(#linear-gradient-28)"/>
        <path id="Path_83355" data-name="Path 83355" d="M1920.478,523.342H1318.9c-194.815,0-184.534-25.245-347.991-25.241-170.6,0-175.473,25.239-370.172,25.241H0v-.588H600.732c194.614,0,199.469-25.238,370.172-25.241,163.572,0,153.265,25.244,347.991,25.241h601.583Z" transform="translate(0 -205.008)" fill="url(#linear-gradient-29)"/>
        <path id="Path_83356" data-name="Path 83356" d="M1920.478,535.549H1318.9c-194.968,0-184.251-35.345-347.991-35.338-170.7-.005-175.616,35.334-370.172,35.338H0v-.588H600.732c194.437,0,199.327-35.332,370.172-35.338,163.9.007,153.148,35.343,347.991,35.338h601.583Z" transform="translate(0 -205.877)" fill="url(#linear-gradient-30)"/>
        <path id="Path_83357" data-name="Path 83357" d="M1920.478,547.756H1318.9c-195.121-.008-183.967-45.446-347.991-45.434-170.807-.009-175.759,45.427-370.172,45.434H0v-.588H600.732c194.261.007,199.184-45.425,370.172-45.434,164.227.012,153.03,45.443,347.991,45.434h601.583Z" transform="translate(0 -206.747)" fill="url(#linear-gradient-31)"/>
        <path id="Path_83358" data-name="Path 83358" d="M1920.478,559.964H1318.9c-195.273-.012-183.683-55.548-347.991-55.531-170.91-.014-175.9,55.521-370.172,55.531H0v-.588H600.732c194.085.011,199.043-55.518,370.172-55.531,164.553.016,152.912,55.543,347.991,55.531h601.583Z" transform="translate(0 -207.617)" fill="url(#linear-gradient-32)"/>
        <path id="Path_83359" data-name="Path 83359" d="M1920.478,572.172H1318.9c-195.425-.016-183.4-65.651-347.991-65.628-171.015-.019-176.047,65.613-370.172,65.628H0v-.588H600.732c193.909.014,198.9-65.609,370.172-65.628,164.878.023,152.793,65.644,347.991,65.628h601.583Z" transform="translate(0 -208.487)" fill="url(#linear-gradient-33)"/>
        <path id="Path_83360" data-name="Path 83360" d="M1920.478,584.378H1318.9c-195.576-.021-183.114-75.754-347.991-75.724-171.12-.023-176.191,75.706-370.172,75.724H0v-.588H600.732c193.734.019,198.762-75.7,370.172-75.724,165.2.03,152.674,75.745,347.991,75.724h601.583Z" transform="translate(0 -209.356)" fill="url(#linear-gradient-34)"/>
        <path id="Path_83361" data-name="Path 83361" d="M1920.478,596.586H1318.9c-195.727-.026-182.827-85.858-347.991-85.821-171.226-.03-176.337,85.8-370.172,85.821H0V596H600.732c193.559.024,198.622-85.791,370.172-85.821,165.526.037,152.554,85.847,347.991,85.821h601.583Z" transform="translate(0 -210.226)" fill="url(#linear-gradient-35)"/>
        <path id="Path_83362" data-name="Path 83362" d="M1920.478,608.794H1318.9c-195.877-.032-182.539-95.962-347.991-95.917-171.333-.036-176.482,95.888-370.172,95.917H0v-.588H600.732c193.385.029,198.483-95.88,370.172-95.917,165.848.045,152.433,95.949,347.991,95.917h601.583Z" transform="translate(0 -211.096)" fill="url(#linear-gradient-36)"/>
        <path id="Path_83363" data-name="Path 83363" d="M1920.478,621H1318.9c-196.026-.039-182.251-106.067-347.991-106.014C799.465,514.944,794.277,620.967,600.732,621H0v-.588H600.732C793.944,620.448,799.078,514.443,970.9,514.4c166.17.053,152.312,106.052,347.991,106.014h601.583Z" transform="translate(0 -211.966)" fill="url(#linear-gradient-37)"/>
        <path id="Path_83364" data-name="Path 83364" d="M1920.478,633.208H1318.9c-196.175-.045-181.961-116.171-347.991-116.11-171.548-.05-176.775,116.07-370.172,116.11H0v-.588H600.732c193.039.04,198.208-116.06,370.172-116.11,166.49.062,152.189,116.155,347.991,116.11h601.583Z" transform="translate(0 -212.835)" fill="url(#linear-gradient-38)"/>
        <path id="Path_83365" data-name="Path 83365" d="M1920.478,645.416H1318.9c-196.323-.051-181.67-126.277-347.991-126.207-171.658-.057-176.922,126.161-370.172,126.207H0v-.588H600.732C793.6,644.874,798.8,518.678,970.9,518.621c166.809.07,152.067,126.258,347.991,126.207h601.583Z" transform="translate(0 -213.705)" fill="url(#linear-gradient-39)"/>
        <path id="Path_83366" data-name="Path 83366" d="M1920.478,657.623H1318.9c-196.47-.058-181.379-136.382-347.991-136.3-171.768-.065-177.07,136.251-370.172,136.3H0v-.588H600.732c192.694.052,197.936-136.239,370.172-136.3,167.128.079,151.944,136.361,347.991,136.3h601.583Z" transform="translate(0 -214.575)" fill="url(#linear-gradient-40)"/>
        <path id="Path_83367" data-name="Path 83367" d="M1920.478,669.831H1318.9c-196.617-.065-181.087-146.488-347.991-146.4-171.879-.072-177.218,146.342-370.172,146.4H0v-.588H600.732c192.523.058,197.8-146.328,370.172-146.4,167.446.088,151.82,146.465,347.991,146.4h601.583Z" transform="translate(0 -215.445)" fill="url(#linear-gradient-41)"/>
        <path id="Path_83368" data-name="Path 83368" d="M1920.478,682.038H1318.9c-196.763-.071-180.793-156.593-347.991-156.5-171.99-.079-177.367,156.432-370.172,156.5H0v-.588H600.732c192.352.065,197.667-156.417,370.172-156.5,167.763.1,151.7,156.568,347.991,156.5h601.583Z" transform="translate(0 -216.315)" fill="url(#linear-gradient-42)"/>
        <path id="Path_83369" data-name="Path 83369" d="M1920.478,694.245H1318.9c-196.908-.078-180.5-166.7-347.991-166.593-172.1-.087-177.516,166.522-370.172,166.593H0v-.588H600.732c192.183.071,197.534-166.506,370.172-166.593,168.079.1,151.57,166.671,347.991,166.593h601.583Z" transform="translate(0 -217.184)" fill="url(#linear-gradient-43)"/>
        <path id="Path_83370" data-name="Path 83370" d="M1920.478,706.453H1318.9c-197.054-.085-180.2-176.8-347.991-176.69-172.215-.094-177.666,176.612-370.172,176.69H0v-.588H600.732c192.013.078,197.4-176.6,370.172-176.69,168.394.113,151.445,176.775,347.991,176.69h601.583Z" transform="translate(0 -218.054)" fill="url(#linear-gradient-44)"/>
        <path id="Path_83371" data-name="Path 83371" d="M1920.478,718.66H1318.9c-197.2-.092-179.909-186.908-347.991-186.786-172.328-.1-177.817,186.7-370.172,186.786H0v-.588H600.732C792.576,718.156,798,531.388,970.9,531.286c168.708.122,151.318,186.878,347.991,186.786h601.583Z" transform="translate(0 -218.924)" fill="url(#linear-gradient-45)"/>
        <path id="Path_83372" data-name="Path 83372" d="M1920.478,730.867H1318.9c-197.342-.1-179.613-197.012-347.991-196.883-172.441-.109-177.968,196.792-370.172,196.883H0v-.588H600.732C792.407,730.37,797.869,533.506,970.9,533.4c169.022.129,151.192,196.981,347.991,196.883h601.583Z" transform="translate(0 -219.794)" fill="url(#linear-gradient-46)"/>
        <path id="Path_83373" data-name="Path 83373" d="M1920.478,743.075H1318.9C1121.41,742.97,1139.58,535.958,970.9,536.1c-172.556-.116-178.12,206.882-370.172,206.979H0v-.588H600.732c191.506.1,197.005-206.863,370.172-206.979,169.335.137,151.065,207.084,347.991,206.979h601.583Z" transform="translate(0 -220.664)" fill="url(#linear-gradient-47)"/>
        <path id="Path_83374" data-name="Path 83374" d="M1920.478,755.283H1318.9c-197.629-.111-179.018-217.221-347.991-217.076-172.671-.123-178.271,216.972-370.172,217.076H0v-.588H600.732c191.338.1,196.875-216.953,370.172-217.076,169.648.145,150.937,217.187,347.991,217.076h601.583Z" transform="translate(0 -221.534)" fill="url(#linear-gradient-48)"/>
        <path id="Path_83375" data-name="Path 83375" d="M1920.478,767.489H1318.9c-197.771-.117-178.721-227.325-347.991-227.172-172.786-.129-178.424,227.064-370.172,227.172H0V766.9H600.732C791.9,767.011,797.478,539.859,970.9,539.729c169.96.153,150.808,227.29,347.991,227.172h601.583Z" transform="translate(0 -222.403)" fill="url(#linear-gradient-49)"/>
        <path id="Path_83376" data-name="Path 83376" d="M1920.478,779.7H1318.9c-197.913-.123-178.423-237.429-347.991-237.269C798,542.292,792.329,779.582,600.732,779.7H0v-.588H600.732c191,.115,196.616-237.133,370.172-237.269,170.272.16,150.68,237.392,347.991,237.269h601.583Z" transform="translate(0 -223.273)" fill="url(#linear-gradient-50)"/>
        <path id="Path_83377" data-name="Path 83377" d="M1920.478,791.9H1318.9c-198.055-.13-178.123-247.533-347.991-247.366C797.886,544.4,792.176,791.783,600.732,791.9H0v-.588H600.732c190.837.121,196.486-247.223,370.172-247.366,170.584.167,150.551,247.5,347.991,247.366h601.583Z" transform="translate(0 -224.143)" fill="url(#linear-gradient-51)"/>
        <path id="Path_83378" data-name="Path 83378" d="M1920.478,804.112H1318.9c-198.2-.136-177.824-257.636-347.991-257.462C797.77,546.5,792.022,803.985,600.732,804.112H0v-.588H600.732C791.4,803.651,797.089,546.211,970.9,546.062c170.895.173,150.423,257.6,347.991,257.462h601.583Z" transform="translate(0 -225.013)" fill="url(#linear-gradient-52)"/>
      </g>
    </g>
  </g>
</svg>
