<svg id="Group_82" data-name="Group 82" xmlns="http://www.w3.org/2000/svg" xmlns:xlink="http://www.w3.org/1999/xlink" width="110.072" height="98.944" viewBox="0 0 110.072 98.944">
  <defs>
    <clipPath id="clip-path">
      <rect id="Rectangle_51" data-name="Rectangle 51" width="110.072" height="98.944" fill="#fff"/>
    </clipPath>
  </defs>
  <g id="Group_46" data-name="Group 46" transform="translate(0 0)" clip-path="url(#clip-path)">
    <path id="Path_31" data-name="Path 31" d="M55.037,0A54.861,54.861,0,0,0,15.974,16.318c-.041.036-.093.049-.132.088a2.31,2.31,0,0,0-.14.212A54.818,54.818,0,0,0,0,55.035c0,.458.028.914.039,1.37C.034,56.472,0,56.529,0,56.6a2.1,2.1,0,0,0,.052.254,54.705,54.705,0,0,0,21.08,41.542,2.59,2.59,0,0,0,3.193-4.079A49.539,49.539,0,0,1,5.369,59.186H16.984a2.59,2.59,0,0,0,0-5.179H5.231A49.578,49.578,0,0,1,17.786,22.013l8.168,8.165a2.589,2.589,0,1,0,3.662-3.662l-8.194-8.194A49.591,49.591,0,0,1,52.447,5.312V16.854a2.59,2.59,0,1,0,5.179,0V5.312A49.849,49.849,0,0,1,104.84,54.006H92.868a2.59,2.59,0,1,0,0,5.179H104.7A49.647,49.647,0,0,1,86.552,93.668,2.59,2.59,0,1,0,89.83,97.68,55.038,55.038,0,0,0,55.037,0" transform="translate(0 0.001)" fill="#fff"/>
    <path id="Path_32" data-name="Path 32" d="M50.276,10.206,20.37,36.873A9.7,9.7,0,1,0,35.028,49.42Q45.054,31.931,55.085,14.44a3.219,3.219,0,0,0-4.809-4.234" transform="translate(27.517 14.866)" fill="#fff"/>
  </g>
</svg>
