<svg id="Group_83" data-name="Group 83" xmlns="http://www.w3.org/2000/svg" xmlns:xlink="http://www.w3.org/1999/xlink" width="94.24" height="102.287" viewBox="0 0 94.24 102.287">
  <defs>
    <clipPath id="clip-path">
      <rect id="Rectangle_52" data-name="Rectangle 52" width="94.24" height="102.287" fill="#fff"/>
    </clipPath>
  </defs>
  <g id="Group_48" data-name="Group 48" transform="translate(0 0)" clip-path="url(#clip-path)">
    <path id="Path_33" data-name="Path 33" d="M83.084,15.31c-.2-.025-20.84-2.1-38.959-14.9A.092.092,0,0,1,44.05.385a3.031,3.031,0,0,0-.5-.225,1.892,1.892,0,0,0-.4-.15,3.008,3.008,0,0,0-.474,0,3.008,3.008,0,0,0-.474,0,1.892,1.892,0,0,0-.4.15,3.032,3.032,0,0,0-.5.225A.092.092,0,0,1,41.23.41C23.111,13.213,2.471,15.285,2.271,15.31A2.457,2.457,0,0,0,0,17.781V47.73c0,15.124,7.313,28.5,21.114,38.659A75.878,75.878,0,0,0,41.9,97.171l.05.025a2.673,2.673,0,0,0,1.448,0l.05-.025c.175-.05.724-.225,1.622-.549A31.376,31.376,0,0,1,41.33,91.68C33.368,88.685,4.992,75.982,4.992,47.73V19.977A95.25,95.25,0,0,0,42.678,5.451,95.25,95.25,0,0,0,80.364,19.977V47.655l1.123.524c.574.275,1.148.6,1.7.923.3.175.624.374.923.574a7.232,7.232,0,0,1,.724.474c.15.1.3.225.449.324V50.45c.05-.923.075-1.8.075-2.72V17.781a2.457,2.457,0,0,0-2.271-2.471" transform="translate(0 -0.002)" fill="#fff"/>
    <path id="Path_34" data-name="Path 34" d="M34.439,20.418c-.15-.1-.3-.225-.449-.324a3.5,3.5,0,0,1,.449.3Z" transform="translate(50.841 30.055)" fill="#fff"/>
    <path id="Path_35" data-name="Path 35" d="M60.116,25.868A26.548,26.548,0,0,0,31.09,22.5a26.89,26.89,0,0,0-9.434,7.962,26.087,26.087,0,0,0-4.667,10.482,23.7,23.7,0,0,0-.524,4.992,1.648,1.648,0,0,0-.025.349v.524a26.608,26.608,0,1,0,43.676-20.94m-2.97,19.966a2.485,2.485,0,0,1-3.519,0l-8.086-8.086V60.41a2.5,2.5,0,0,1-4.992,0V38.023l-8.086,8.086a2.557,2.557,0,0,1-1.772.724,2.6,2.6,0,0,1-1.772-.724,2.076,2.076,0,0,1-.5-.749,2.945,2.945,0,0,1-.225-.923,2.477,2.477,0,0,1,.724-1.872L41.4,30.086a2.516,2.516,0,0,1,3.544,0l6.389,6.389L55,40.169l2.146,2.146a2.485,2.485,0,0,1,0,3.519" transform="translate(24.59 29.397)" fill="#fff"/>
    <path id="Path_36" data-name="Path 36" d="M24.4,33.942A12.479,12.479,0,1,1,36.884,21.463,12.493,12.493,0,0,1,24.4,33.942m0-19.966a7.487,7.487,0,1,0,7.487,7.487A7.5,7.5,0,0,0,24.4,13.976" transform="translate(17.839 13.437)" fill="#fff"/>
    <path id="Path_37" data-name="Path 37" d="M29.089,26.976a29.294,29.294,0,0,1,3.744-4.992H12.817A4.729,4.729,0,0,0,8.1,26.7v1.2c0,4.792,2.246,12.7,16.647,14.3a27.238,27.238,0,0,1,.474-4.967C17.16,36.36,13.092,33.215,13.092,27.9v-.923Z" transform="translate(12.116 32.882)" fill="#fff"/>
  </g>
</svg>
