<svg xmlns="http://www.w3.org/2000/svg" xmlns:xlink="http://www.w3.org/1999/xlink" width="107" height="107" viewBox="0 0 107 107">
  <defs>
    <clipPath id="clip-path">
      <rect id="Rectangle_56" data-name="Rectangle 56" width="107" height="107" fill="#fff"/>
    </clipPath>
  </defs>
  <g id="Group_55" data-name="Group 55" clip-path="url(#clip-path)">
    <path id="Path_52" data-name="Path 52" d="M76.935,25.738a26.388,26.388,0,0,0-6.9-4.886C62.789,17.228,52.292,15,40.266,15c-.51,0-1.047,0-1.557.027a82.294,82.294,0,0,0-11.865.966C10.9,18.463,0,25.308,0,33.791V63.32C0,74.03,17.315,82.11,40.266,82.11a88.055,88.055,0,0,0,13.422-.993,58.022,58.022,0,0,0,15.382-4.4c5.315-2.523,9.073-5.745,10.657-9.422a10.607,10.607,0,0,0,.805-3.973V33.764a11.6,11.6,0,0,0-3.6-8.026M75.164,63.32a6.643,6.643,0,0,1-2.443,4.644c-3.382,3.248-10.093,6.174-19.033,7.677a79.4,79.4,0,0,1-13.422,1.1c-.671,0-1.315,0-1.96-.027-19.516-.43-32.938-7.275-32.938-13.4V58.192A13.852,13.852,0,0,0,7.06,59.454c4.832,3.275,11.865,5.718,20.294,6.979,2.094.322,4.241.537,6.5.7,2.067.134,4.215.215,6.416.215A87.579,87.579,0,0,0,51.111,66.7a62.334,62.334,0,0,0,16-3.919,33.627,33.627,0,0,0,6.362-3.329,13.852,13.852,0,0,0,1.691-1.262Zm0-14.764a6.04,6.04,0,0,1-1.691,3.866A11.833,11.833,0,0,1,71.7,54.085a20.62,20.62,0,0,1-2.765,1.852c-4.134,2.335-10.2,4.3-17.556,5.315a84.625,84.625,0,0,1-11.113.725q-1.852,0-3.624-.081c-1.53-.054-3.007-.161-4.429-.3-1.879-.188-3.651-.4-5.369-.7A48.551,48.551,0,0,1,11.6,55.937,17.05,17.05,0,0,1,7.06,52.421a6.04,6.04,0,0,1-1.691-3.866V43.428A13.853,13.853,0,0,0,7.06,44.69a35.206,35.206,0,0,0,7.731,3.866A58.089,58.089,0,0,0,25.1,51.293c.564.107,1.154.188,1.745.268,2.04.349,4.188.591,6.389.752,2.282.188,4.617.268,7.033.268,2.872,0,5.637-.134,8.295-.376,2.389-.215,4.671-.51,6.872-.913a56.908,56.908,0,0,0,9.61-2.5c.242-.081.483-.161.7-.242a35.206,35.206,0,0,0,7.731-3.866,13.853,13.853,0,0,0,1.691-1.262ZM75.11,34.489a6.673,6.673,0,0,1-1.637,3.168,14.588,14.588,0,0,1-2.9,2.523c-.51.322-1.047.671-1.637.993a45.862,45.862,0,0,1-13.5,4.644,63.437,63.437,0,0,1-6.416.94,82.512,82.512,0,0,1-8.751.456c-1.772,0-3.517-.054-5.181-.161-.966-.054-1.933-.134-2.872-.215-1.852-.161-3.651-.4-5.369-.7-.591-.107-1.181-.215-1.745-.322a45.862,45.862,0,0,1-13.5-4.644A17.05,17.05,0,0,1,7.06,37.656a6.04,6.04,0,0,1-1.691-3.866c0-4.832,8.349-10.12,21.475-12.321,1.691-.3,3.49-.537,5.369-.725,1.664-.161,3.409-.268,5.208-.322.94-.027,1.879-.054,2.845-.054,12.241,0,22.281,2.523,28.4,5.879,4.134,2.309,6.5,4.993,6.5,7.543a6.109,6.109,0,0,1-.054.7" transform="translate(-0.306 24.863)" fill="#fff"/>
    <path id="Path_53" data-name="Path 53" d="M50.266,0C27.315,0,10,8.08,10,18.791V36.2c.038.03.054.046.091.078,2.011-.317,4.075-.553,6.19-.738a5.065,5.065,0,0,1-.913-2.792V28.428a15.836,15.836,0,0,0,1.262.993,35.058,35.058,0,0,0,6.094,3.329,53.4,53.4,0,0,0,8.7,2.792c.242.054.483.107.752.161a68.812,68.812,0,0,0,9.342,1.45,83.441,83.441,0,0,0,8.751.43,82.559,82.559,0,0,0,18.845-2.04,53.4,53.4,0,0,0,8.7-2.792A35.058,35.058,0,0,0,83.9,29.421a15.837,15.837,0,0,0,1.262-.993V32.75A5.554,5.554,0,0,1,83.9,36.079a14.984,14.984,0,0,1-4.3,3.651,38.421,38.421,0,0,1-10.5,4.188,63.846,63.846,0,0,1-6.73,1.366.546.546,0,0,0-.3.945c.526.478,1.068,1,1.616,1.57.781.813,1.463,1.611,2.056,2.362a.662.662,0,0,0,.078.027c1.136-.209,2.22-.421,3.278-.687a53.4,53.4,0,0,0,8.7-2.792A35.057,35.057,0,0,0,83.9,43.38a15.836,15.836,0,0,0,1.262-.993v4.322A5.554,5.554,0,0,1,83.9,50.038a12.658,12.658,0,0,1-4.3,3.651,53.523,53.523,0,0,1-10.418,4.161.251.251,0,0,0-.183.25l.048,5.031.338.263a53.134,53.134,0,0,0,8.416-2.725A35.058,35.058,0,0,0,83.9,57.339a15.838,15.838,0,0,0,1.262-.993v4.322A5.554,5.554,0,0,1,83.9,64a12.613,12.613,0,0,1-4.3,3.651A52.682,52.682,0,0,1,69.24,71.784a.248.248,0,0,0-.183.244v5.044a.264.264,0,0,0,.325.255,54.251,54.251,0,0,0,8.426-2.7A35.058,35.058,0,0,0,83.9,71.3a15.838,15.838,0,0,0,1.262-.993v4.322A5.554,5.554,0,0,1,83.9,77.956a14.984,14.984,0,0,1-4.3,3.651,39.722,39.722,0,0,1-10.3,4.147l-.252.325v4.883a.262.262,0,0,0,.3.26A32.978,32.978,0,0,0,83.9,85.257c.438-.325.856-.658,1.262-.993v4.322c0,4.937-8.714,10.33-22.34,12.453l-.038.016a35.16,35.16,0,0,1-8.257,5.4.43.43,0,0,0,.207.819c20.683-.966,35.8-8.673,35.8-18.686V18.791C90.533,8.08,73.218,0,50.266,0M83.9,22.12a14.984,14.984,0,0,1-4.3,3.651,38.421,38.421,0,0,1-10.5,4.188,74.736,74.736,0,0,1-18.845,2.255,74.735,74.735,0,0,1-18.845-2.255,38.421,38.421,0,0,1-10.5-4.188,14.984,14.984,0,0,1-4.3-3.651,5.554,5.554,0,0,1-1.262-3.329c0-6.335,14.335-13.422,34.9-13.422s34.9,7.087,34.9,13.422A5.554,5.554,0,0,1,83.9,22.12M63.688,59.03v.215a.591.591,0,0,1,.027-.215Z" transform="translate(16.539 -0.404)" fill="#fff"/>
  </g>
</svg>
