<?xml version="1.0" encoding="UTF-8"?><svg id="Layer_2" xmlns="http://www.w3.org/2000/svg" viewBox="0 0 998.17 765.66"><defs><style>.cls-1{fill:#77c400;}</style></defs><g id="Layer_1-2"><g><path d="m717.11,362.23C621.89,218.56,586.95,78.71,572.8,0c-57.05,34.73-114.11,69.45-171.16,104.18,16.33,68.44,47.25,170.2,107.59,281.39h-177.7c-5.4-7.62-10.77-15.34-16.08-23.35C220.25,218.56,185.31,78.71,171.16,0,114.11,34.73,57.05,69.45,0,104.18c21.06,88.28,66.18,231.91,167.74,379.84,100.55,146.46,213.27,234.25,284.91,281.64,47.02-44.94,94.05-89.87,141.07-134.81-32.69-19.72-77.96-50.08-127.31-94.08h141.59c89.78,115.24,183.71,187.49,246.3,228.89,47.02-44.94,94.05-89.87,141.07-134.81-32.69-19.72-77.96-50.08-127.31-94.08h127.31v-151.2h-262.17c-5.4-7.62-10.77-15.34-16.08-23.35Z"/><rect class="cls-1" x="804.82" y=".58" width="193.35" height="193.35"/></g></g></svg>