<?xml version="1.0" encoding="UTF-8"?><svg id="Layer_2" xmlns="http://www.w3.org/2000/svg" viewBox="0 0 986.76 756.34"><defs><style>.cls-1{fill:#fff;}.cls-2{fill:#77c400;}</style></defs><g id="Layer_1-2"><g><path class="cls-1" d="m681.37,357.52c-73.62-134.26-118.17-263.06-132.16-340.87-56.4,34.33-95.75,51.44-152.15,85.77,16.14,67.66,46.71,168.26,106.36,278.18h-203.21c-5.33-7.53-11.06-14.91-15.89-23.08C204.86,223.25,168.31,92.13,154.32,14.31,97.92,48.64,56.4,68.09,0,102.42c20.82,87.27,65.42,229.26,165.82,375.5,99.41,144.79,210.83,231.58,281.65,278.43,46.49-44.42,82.91-78.79,129.4-123.21-32.32-19.5-92.5-70.25-141.29-113.74h154.96c88.76,113.93,196.39,193.23,258.26,234.15,46.49-44.42,77.48-76.1,123.96-120.52-46.49-29.27-99.86-65.43-144.63-113.63l155.85.35v-139.14h-286.72c-5.33-7.53-11.33-14.76-15.89-23.08Z"/><rect class="cls-2" x="808.27" width="178.49" height="178.49"/></g></g></svg>