<?xml version="1.0" encoding="UTF-8"?><svg id="Layer_2" xmlns="http://www.w3.org/2000/svg" viewBox="0 0 990.4 279.32"><defs><style>.cls-1{fill:#77c400;}</style></defs><g id="Layer_1-2"><g><g><path d="m254.82,128.71C220.98,77.66,208.57,27.97,203.54,0c-20.27,12.34-40.55,24.68-60.82,37.02,5.8,24.32,16.79,60.48,38.23,99.99h-63.14c-1.92-2.71-3.83-5.45-5.71-8.3C78.26,77.66,65.85,27.97,60.82,0,40.55,12.34,20.27,24.68,0,37.02c7.48,31.37,23.52,82.41,59.6,134.97,35.73,52.04,75.78,83.24,101.24,100.08,16.71-15.97,33.42-31.94,50.13-47.9-11.62-7.01-27.7-17.8-45.24-33.43h50.31c31.9,40.95,65.28,66.62,87.52,81.33,16.71-15.97,33.42-31.94,50.13-47.9-11.62-7.01-27.7-17.8-45.24-33.43h45.24v-53.73h-93.16c-1.92-2.71-3.83-5.45-5.71-8.3Z"/><rect class="cls-1" x="285.98" y=".2" width="68.71" height="68.71"/></g><g><path d="m543.62,124.74l21.19-78.91h15.6l-24.74,89.82h-23.47l-17.51-72.69-17.38,72.69h-23.6l-24.87-89.82h15.73l21.31,78.91,19.03-78.91h20.04l18.65,78.91Z"/><path d="m598.97,135.65h-16.24l32.1-89.82h22.07l31.97,89.82h-16.11l-5.96-16.75h-41.86l-5.96,16.75Zm9.26-28.16h35.4l-17.76-48.46-17.63,48.46Z"/><path d="m721.79,138.83c-22.45,0-38.69-13.7-38.69-32.48h14.46c0,11.54,10.15,19.92,24.61,19.92,12.81,0,20.3-6.6,20.3-15.61,0-10.28-11.42-11.8-24.1-13.57-16.87-2.28-34.13-5.33-34.13-26.01,0-16.62,14.08-28.42,35.01-28.42s36.28,12.94,36.28,30.83h-14.08c0-10.66-9.26-18.27-22.07-18.27s-20.04,6.09-20.04,14.33c0,10.28,10.4,11.93,23.34,13.7,16.75,2.28,34.89,5.33,34.89,25.5,0,17.51-13.83,30.07-35.78,30.07Z"/><path d="m788.28,135.65h-16.24l32.1-89.82h22.07l31.97,89.82h-16.11l-5.96-16.75h-41.86l-5.96,16.75Zm9.26-28.16h35.4l-17.76-48.46-17.63,48.46Z"/><path d="m876.35,135.65V45.84h40.6c17.38,0,29.68,10.15,29.68,24.1,0,8.75-5.58,16.37-13.32,18.52,9.26,2.28,15.86,11.16,15.86,21.57,0,14.97-13.19,25.63-31.71,25.63h-41.1Zm15.22-77.26v24.23h23.09c9.77,0,16.62-4.95,16.62-12.05s-6.85-12.18-16.62-12.18h-23.09Zm23.34,36.16h-23.34v28.54h23.34c11.04,0,18.9-6.09,18.9-14.34s-7.87-14.21-18.9-14.21Z"/><path d="m987.62,45.84v89.82h-15.22V45.84h15.22Z"/></g><g><path d="m543.62,268.41l21.19-78.91h15.6l-24.74,89.82h-23.47l-17.51-72.69-17.38,72.69h-23.6l-24.87-89.82h15.73l21.31,78.91,19.03-78.91h20.05l18.65,78.91Z"/><path d="m598.96,279.32h-16.24l32.1-89.82h22.07l31.97,89.82h-16.11l-5.96-16.75h-41.86l-5.96,16.75Zm9.26-28.16h35.39l-17.76-48.46-17.63,48.46Z"/><path d="m687.03,279.32v-89.82h15.22v76.62h42.37v13.19h-57.6Z"/><path d="m764.3,279.32v-89.82h15.22v76.62h42.37v13.19h-57.59Z"/><path d="m856.29,266.38h48.72v12.94h-63.43v-89.82h62.16v12.94h-47.45v24.74h42.37v11.67h-42.37v27.53Z"/><path d="m946.51,202.57h-28.8v-13.07h72.69v13.07h-28.67v76.75h-15.22v-76.75Z"/></g></g></g></svg>