<svg width="153" height="40" viewBox="0 0 153 40" fill="none" xmlns="http://www.w3.org/2000/svg">
<g id="trezor" clip-path="url(#clip0_76_1035)">
<path id="Vector" d="M15.2048 0.5C15.5901 0.614007 15.9753 0.728015 16.3699 0.842022C20.5418 1.97259 23.2103 5.39281 23.323 9.75359C23.3418 10.6752 23.323 11.5967 23.323 12.6323H27.2318V13.8294C27.2318 19.9953 27.213 26.1611 27.2506 32.327C27.2506 33.1441 27.0439 33.5811 26.2734 33.9326C22.3928 35.7093 18.5498 37.5714 14.6693 39.3385C14.237 39.538 13.5793 39.5665 13.1565 39.3765C9.21014 37.5714 5.29199 35.7093 1.35504 33.8566C0.90403 33.6381 0.5 33.4671 0.5 32.7641C0.537584 26.2276 0.518792 19.6817 0.528188 13.1453C0.528188 13.0028 0.565772 12.8603 0.603357 12.6323H4.46514C4.46514 11.7677 4.49332 10.9982 4.46514 10.2286C4.19265 4.75627 8.31752 1.31705 12.029 0.709013C12.1981 0.680512 12.3672 0.566504 12.5363 0.5H15.2142H15.2048ZM21.8948 17.5631H5.84636C5.84636 21.5914 5.83696 25.5056 5.87454 29.4294C5.87454 29.7144 6.15643 30.1229 6.41952 30.2559C8.72155 31.377 11.0424 32.4695 13.3726 33.5241C13.6639 33.6571 14.1055 33.6571 14.3968 33.5241C16.727 32.4695 19.0478 31.377 21.3498 30.2559C21.6035 30.1324 21.8854 29.7144 21.8854 29.4294C21.923 25.5151 21.9136 21.5914 21.9136 17.5726H21.8948V17.5631ZM18.4277 12.5563C18.8411 8.88904 18.2304 7.11242 16.2572 6.01035C14.5471 5.05079 12.3484 5.2313 10.8263 6.46638C8.79672 8.10999 9.21014 10.3426 9.29471 12.5563H18.4371H18.4277Z" fill="white"/>
<path id="Vector_2" d="M152.5 33.4859C150.789 33.4859 149.079 33.4384 147.379 33.4859C146.636 33.5049 146.185 33.3149 145.828 32.5929C145.001 30.9208 144.071 29.3057 143.179 27.6716C142.643 26.674 141.722 26.294 140.426 26.5315V33.3814H135.107V12.7081C135.277 12.6606 135.417 12.5846 135.549 12.5846C138.932 12.5846 142.314 12.5086 145.687 12.6416C149.202 12.7746 151.663 15.4063 151.861 18.9405C152.03 22.0092 150.874 24.3179 147.905 25.762C149.455 28.2986 150.977 30.7783 152.5 33.2674V33.4954V33.4859ZM140.444 21.5817C141.882 21.5817 143.179 21.6387 144.466 21.5627C145.659 21.4962 146.439 20.6601 146.486 19.5676C146.542 18.4655 145.847 17.4964 144.673 17.3919C143.282 17.2684 141.882 17.3634 140.435 17.3634V21.5817H140.444Z" fill="white"/>
<path id="Vector_3" d="M122.001 33.7995C115.79 33.828 111.27 29.3532 111.233 23.1303C111.195 16.8314 115.668 12.2521 121.888 12.2141C128.183 12.1761 132.815 16.7554 132.806 23.0163C132.806 29.2582 128.268 33.7805 121.991 33.7995H122.001ZM127.338 23.0068C127.338 20.1946 125.844 17.9715 123.523 17.3349C120.563 16.5179 117.829 18.0095 116.955 20.9167C115.94 24.2704 117.396 27.6526 120.262 28.6122C120.507 28.6977 120.76 28.7642 121.014 28.8022C124.641 29.3627 127.356 26.883 127.347 23.0068H127.338Z" fill="white"/>
<path id="Vector_4" d="M70.2754 25.7336C71.76 28.2893 73.2164 30.788 74.7762 33.4671C72.7654 33.4671 70.9238 33.4956 69.0915 33.4386C68.8003 33.4386 68.4338 33.0301 68.2553 32.7261C67.3157 31.073 66.4231 29.3914 65.5116 27.7288C64.6754 26.1897 64.6096 26.1612 62.7022 26.5507V33.4006H57.4404V12.6798C57.619 12.6513 57.8257 12.5848 58.0324 12.5848C61.1895 12.5848 64.3465 12.5373 67.4942 12.6038C73.16 12.7368 75.2647 17.9336 73.7426 22.1804C73.1412 23.8525 71.901 24.9451 70.266 25.7336H70.2754ZM62.7398 21.5914C64.168 21.5914 65.4647 21.6389 66.7519 21.5724C67.9546 21.5154 68.7157 20.7078 68.7815 19.6057C68.8472 18.4562 68.2083 17.5156 67.0338 17.4111C65.6244 17.2781 64.1868 17.3826 62.7398 17.3826V21.5914Z" fill="white"/>
<path id="Vector_5" d="M76.834 12.6226H91.6516V17.3159H82.124V20.4131H91.4449V25.1634H82.1522V28.6121H85.4502C87.2354 28.6121 89.0207 28.6406 90.7965 28.5931C91.5388 28.5741 91.7737 28.8496 91.7549 29.5621C91.7173 30.8162 91.7455 32.0798 91.7455 33.4004H76.834V12.6226Z" fill="white"/>
<path id="Vector_6" d="M101.639 28.5934H110.256V33.4102H94.5266C94.5454 31.3866 94.085 29.4579 95.6072 27.6053C97.9656 24.7266 100.052 21.6199 102.25 18.6177C102.485 18.2947 102.711 17.9717 103.115 17.4112H98.6891C97.5428 17.4112 96.387 17.4397 95.2407 17.3827C94.9776 17.3732 94.5266 17.0406 94.5172 16.8316C94.4514 15.4635 94.4796 14.0955 94.4796 12.6514H110.293C110.237 14.6845 110.631 16.6036 109.109 18.4562C106.516 21.6199 104.242 25.0402 101.649 28.6029H101.639V28.5934Z" fill="white"/>
<path id="Vector_7" d="M54.8089 12.6514V17.3827H49.1994V33.4102H43.8155V17.4017H38.2061V12.6514H54.8089Z" fill="white"/>
</g>
<defs>
<clipPath id="clip0_76_1035">
<rect width="152" height="39" fill="white" transform="translate(0.5 0.5)"/>
</clipPath>
</defs>
</svg>
