<svg width="116" height="33" viewBox="0 0 116 33" fill="none" xmlns="http://www.w3.org/2000/svg">
<path d="M27.7844 14.6816C24.7822 9.16806 22.9654 3.87854 22.3953 0.683575C20.0953 2.09318 18.4905 2.79566 16.1905 4.20527C16.8486 6.98365 18.0954 11.1145 20.5275 15.6292H12.2405C12.0226 15.32 11.7897 15.0165 11.5928 14.6816C8.3542 9.16806 6.86297 3.78285 6.29287 0.587891C3.99287 1.9975 2.3 2.79566 0 4.20527C0.849312 7.78879 2.66731 13.6198 6.76217 19.6258C10.8153 25.5711 15.3597 29.136 18.2472 31.059C20.1428 29.2352 21.6283 27.8232 23.5239 25.9993C22.2064 25.1989 19.7523 23.1148 17.7628 21.3283H24.0812C27.701 26.0064 32.089 29.2631 34.6126 30.9435C36.5083 29.1196 37.7723 27.8185 39.668 25.9947C37.7723 24.7928 35.5964 23.3085 33.7702 21.3283L40.1256 21.3423V15.628H28.4344C28.2166 15.3188 27.9721 15.0224 27.7867 14.6805L27.7844 14.6816Z" fill="white"/>
<path d="M40.2367 0H32.959V7.32926H40.2367V0Z" fill="white"/>
<path d="M62.5515 14.3622L65.0067 5.1543H66.8143L63.9476 15.6353H61.2281L59.1995 7.15316L57.1857 15.6353H54.4511L51.5693 5.1543H53.392L55.8613 14.3622L58.0663 5.1543H60.3883L62.5493 14.3622H62.5515Z" fill="white"/>
<path d="M69.1395 15.6363H67.2578L70.9773 5.15527H73.5344L77.2388 15.6363H75.3722L74.6817 13.6818H69.8315L69.1406 15.6363H69.1395ZM70.2127 12.3503H74.3142L72.2564 6.69557L70.2138 12.3503H70.2127Z" fill="white"/>
<path d="M83.5475 16.0062C80.9462 16.0062 79.0645 14.4076 79.0645 12.2161H80.7399C80.7399 13.5627 81.916 14.5406 83.5915 14.5406C85.0757 14.5406 85.9437 13.7704 85.9437 12.719C85.9437 11.5195 84.6203 11.3421 83.1512 11.1356C81.1964 10.8695 79.1966 10.5136 79.1966 8.10046C79.1966 6.16111 80.8281 4.78418 83.2531 4.78418C85.6784 4.78418 87.4568 6.29413 87.4568 8.3817H85.8256C85.8256 7.13779 84.7525 6.24978 83.2682 6.24978C81.7839 6.24978 80.9462 6.96042 80.9462 7.92194C80.9462 9.1215 82.1511 9.31406 83.6505 9.52059C85.5913 9.78663 87.6933 10.1425 87.6933 12.4962C87.6933 14.5394 86.0909 16.005 83.5475 16.005V16.0062Z" fill="white"/>
<path d="M91.4276 15.6363H89.5459L93.2654 5.15527H95.8225L99.5269 15.6363H97.6603L96.9698 13.6818H92.1195L91.4291 15.6363H91.4276ZM92.5008 12.3503H96.6026L94.5445 6.69557L92.5019 12.3503H92.5008Z" fill="white"/>
<path d="M101.807 15.6363V5.15527H106.511C108.525 5.15527 109.95 6.33967 109.95 7.96748C109.95 8.98855 109.303 9.87772 108.407 10.1286C109.48 10.3946 110.244 11.4308 110.244 12.6456C110.244 14.3924 108.716 15.6363 106.57 15.6363H101.808H101.807ZM103.57 6.62091V9.44831H106.245C107.378 9.44831 108.171 8.87069 108.171 8.04219C108.171 7.21368 107.378 6.62091 106.245 6.62091H103.57ZM106.275 10.8404H103.57V14.1707H106.275C107.554 14.1707 108.464 13.4601 108.464 12.4974C108.464 11.5347 107.553 10.8392 106.275 10.8392V10.8404Z" fill="white"/>
<path d="M114.877 5.15527V15.6363H113.113V5.15527H114.877Z" fill="white"/>
<path d="M62.5515 31.1269L65.0067 21.9189H66.8143L63.9476 32.4H61.2281L59.1995 23.9178L57.1857 32.4H54.4511L51.5693 21.9189H53.392L55.8613 31.1269L58.0663 21.9189H60.3893L62.5504 31.1269H62.5515Z" fill="white"/>
<path d="M69.1405 32.4H67.2588L70.9783 21.9189H73.5354L77.2398 32.4H75.3732L74.6827 30.4454H69.8324L69.1416 32.4H69.1405ZM70.2137 29.114H74.3141L72.2563 23.4592L70.2137 29.114Z" fill="white"/>
<path d="M79.5196 32.4V21.9189H81.2833V30.8597H86.1926V32.3988H79.5186L79.5196 32.4Z" fill="white"/>
<path d="M88.6494 32.4V21.9189H90.4131V30.8597H95.3224V32.3988H88.6494V32.4Z" fill="white"/>
<path d="M99.4839 30.89H105.129V32.4H97.7793V21.9189H104.982V23.4289H99.4839V26.3158H104.393V27.6776H99.4839V30.89Z" fill="white"/>
<path d="M110.114 23.4441H106.777V21.9189H115.2V23.4441H111.878V32.4H110.114V23.4441Z" fill="white"/>
</svg>
